<svg xmlns="http://www.w3.org/2000/svg" xmlns:xlink="http://www.w3.org/1999/xlink" width="160" height="160" viewBox="0 0 160 160">
  <defs>
    <clipPath id="clip-flower-yellow">
      <rect width="160" height="160"/>
    </clipPath>
  </defs>
  <g id="flower-yellow" clip-path="url(#clip-flower-yellow)">
    <path id="Path_7107" data-name="Path 7107" d="M145,53.33a29.487,29.487,0,0,0-37.725-18.7c-.88.313-1.73.674-2.563,1.061.083-.932.139-1.871.139-2.825,0-16.744-13.273-30.317-29.645-30.317S45.566,16.118,45.566,32.862a30.948,30.948,0,0,0,1.15,8.29A29.231,29.231,0,0,0,39.1,38.077C23.178,34.179,7.179,44.217,3.366,60.5s6,32.643,21.927,36.541c.907.223,1.814.386,2.719.52-.562.738-1.1,1.5-1.606,2.3a30.727,30.727,0,0,0,9,41.873,29.258,29.258,0,0,0,40.948-9.207c.5-.8.951-1.626,1.37-2.456.5.784,1.024,1.557,1.6,2.306a29.205,29.205,0,0,0,41.636,5.026,30.78,30.78,0,0,0,4.915-42.578c-.577-.748-1.189-1.452-1.819-2.129.887-.224,1.774-.478,2.654-.791C142.183,86.42,150.373,69.148,145,53.33M76.26,99.75a29.824,29.824,0,0,0-8.906-9.093A29.069,29.069,0,0,0,55.545,86.2a30.437,30.437,0,0,0,5.482-11.586A30.8,30.8,0,0,0,60.7,59.284a28.908,28.908,0,0,0,26.8,1.139A30.817,30.817,0,0,0,88.989,73.2a30.316,30.316,0,0,0,6.574,10.975A29.219,29.219,0,0,0,84.243,89.8,30.015,30.015,0,0,0,76.26,99.75" transform="translate(3.402 5.469)" fill="#fe0"/>
    <path id="Path_7108" data-name="Path 7108" d="M145,53.33a29.487,29.487,0,0,0-37.725-18.7c-.88.313-1.73.674-2.563,1.061.083-.932.139-1.871.139-2.825,0-16.744-13.273-30.317-29.645-30.317S45.566,16.118,45.566,32.862a30.948,30.948,0,0,0,1.15,8.29A29.231,29.231,0,0,0,39.1,38.077C23.178,34.179,7.179,44.217,3.366,60.5s6,32.643,21.927,36.541c.907.223,1.814.386,2.719.52-.562.738-1.1,1.5-1.606,2.3a30.727,30.727,0,0,0,9,41.873,29.258,29.258,0,0,0,40.948-9.207c.5-.8.951-1.626,1.37-2.456.5.784,1.024,1.557,1.6,2.306a29.205,29.205,0,0,0,41.636,5.026,30.78,30.78,0,0,0,4.915-42.578c-.577-.748-1.189-1.452-1.819-2.129.887-.224,1.774-.478,2.654-.791C142.183,86.42,150.373,69.148,145,53.33ZM76.26,99.75a29.824,29.824,0,0,0-8.906-9.093A29.069,29.069,0,0,0,55.545,86.2a30.437,30.437,0,0,0,5.482-11.586A30.8,30.8,0,0,0,60.7,59.284a28.908,28.908,0,0,0,26.8,1.139A30.817,30.817,0,0,0,88.989,73.2a30.316,30.316,0,0,0,6.574,10.975A29.219,29.219,0,0,0,84.243,89.8,30.015,30.015,0,0,0,76.26,99.75Z" transform="translate(3.402 5.469)" fill="none" stroke="#221714" stroke-linecap="round" stroke-linejoin="round" stroke-width="6"/>
    <path id="Path_7109" data-name="Path 7109" d="M92.8,70.188c0,13.67-10.836,24.752-24.2,24.752s-24.2-11.081-24.2-24.752,10.836-24.752,24.2-24.752S92.8,56.517,92.8,70.188Z" transform="translate(10.018 13.373)" fill="none" stroke="#221714" stroke-linecap="round" stroke-linejoin="round" stroke-width="4.338"/>
    <path id="Path_7110" data-name="Path 7110" d="M92.8,70.188c0,13.67-10.836,24.752-24.2,24.752s-24.2-11.081-24.2-24.752,10.836-24.752,24.2-24.752S92.8,56.517,92.8,70.188" transform="translate(10.018 13.373)" fill="#fff"/>
    <path id="Path_7111" data-name="Path 7111" d="M92.8,70.188c0,13.67-10.836,24.752-24.2,24.752s-24.2-11.081-24.2-24.752,10.836-24.752,24.2-24.752S92.8,56.517,92.8,70.188Z" transform="translate(10.018 13.373)" fill="none" stroke="#221714" stroke-linecap="round" stroke-linejoin="round" stroke-width="6"/>
    <rect id="Rectangle_13886" data-name="Rectangle 13886" width="150" height="150" transform="translate(3 5)" fill="none"/>
  </g>
</svg>
