<svg xmlns="http://www.w3.org/2000/svg" xmlns:xlink="http://www.w3.org/1999/xlink" width="220" height="280" viewBox="0 0 220 280">
  <defs>
    <clipPath id="clip-path">
      <rect id="Rectangle_13699" data-name="Rectangle 13699" width="176.062" height="229.845" fill="none"/>
    </clipPath>
    <clipPath id="clip-Img-charactor-dog">
      <rect width="220" height="280"/>
    </clipPath>
  </defs>
  <g id="Img-charactor-dog" clip-path="url(#clip-Img-charactor-dog)">
    <g id="Group_43000" data-name="Group 43000" transform="translate(15703 -8150)">
      <rect id="Rectangle_13827" data-name="Rectangle 13827" width="220" height="280" transform="translate(-15703 8150)" fill="none"/>
      <ellipse id="Ellipse_81" data-name="Ellipse 81" cx="64" cy="18" rx="64" ry="18" transform="translate(-15640 8378)" fill="#e4eef2"/>
      <g id="Group_43007" data-name="Group 43007" transform="translate(-15681.031 8175.078)">
        <g id="Group_42827" data-name="Group 42827" clip-path="url(#clip-path)">
          <path id="Path_5398" data-name="Path 5398" d="M138.664,349.409a6.056,6.056,0,0,1,5.972,10.538l-17.449,9.888a86.081,86.081,0,0,0-11.029-7.672Z" transform="translate(-66.362 -199.171)" fill="#fff"/>
          <path id="Path_5399" data-name="Path 5399" d="M107.216,381.389l2.078-1.178a86.1,86.1,0,0,1,11.029,7.671l-7.136,4.044a6.056,6.056,0,0,1-5.972-10.538" transform="translate(-59.499 -217.219)" fill="#f1975b"/>
          <path id="Path_5400" data-name="Path 5400" d="M108.975,374.359a6.979,6.979,0,0,1-6.079-3.541,6.974,6.974,0,0,1,2.632-9.515l24.585-13.931A6.981,6.981,0,1,1,137,359.519L112.411,373.45A6.973,6.973,0,0,1,108.975,374.359Zm24.574-26.046a5.129,5.129,0,0,0-2.524.669l-24.585,13.932a5.133,5.133,0,0,0-.017,8.92,5.125,5.125,0,0,0,5.076.009l24.586-13.931a5.133,5.133,0,0,0,.017-8.92A5.16,5.16,0,0,0,133.549,348.313Z" transform="translate(-58.266 -197.939)" fill="#221714"/>
          <path id="Path_5401" data-name="Path 5401" d="M284.909,394.222l8.377-7.644a18.172,18.172,0,0,0-18.471-30.5l-26-28.767a18.169,18.169,0,0,0-25.662-1.3l-.066.06a18.169,18.169,0,0,0-1.232,25.6l37.325,41.3a18.169,18.169,0,0,0,25.727,1.239" transform="translate(-124.07 -183.579)" fill="#fff"/>
          <path id="Path_5402" data-name="Path 5402" d="M271.431,398.663h0c-.306,0-.615-.007-.92-.022a19.1,19.1,0,0,1-13.247-6.27l-37.325-41.3a19.078,19.078,0,0,1,1.295-26.905l0,0,.059-.054.007-.006a19.081,19.081,0,0,1,26.968,1.365l25.587,28.313a19.094,19.094,0,0,1,18.819,32.253l-8.377,7.643a19.091,19.091,0,0,1-12.868,4.989ZM222.478,325.53a17.229,17.229,0,0,0-1.168,24.3l37.325,41.3a17.248,17.248,0,0,0,11.964,5.662c.275.013.555.02.831.02h0a17.242,17.242,0,0,0,11.622-4.506l8.377-7.643a17.236,17.236,0,0,0-8.142-29.629,17.382,17.382,0,0,0-3.487-.354,17.2,17.2,0,0,0-5.9,1.039.925.925,0,0,1-1-.249l-26-28.767a17.168,17.168,0,0,0-9.292-5.324,17.385,17.385,0,0,0-3.508-.358,17.176,17.176,0,0,0-11.552,4.447Z" transform="translate(-122.838 -182.346)" fill="#221714"/>
          <path id="Path_5403" data-name="Path 5403" d="M305.89,391.362a18.172,18.172,0,0,1,18.471,30.5l-8.377,7.643a18.169,18.169,0,0,1-25.727-1.239l-18.7-20.688,26.843-24.494Z" transform="translate(-155.147 -218.858)" fill="#fff000"/>
          <path id="Path_5404" data-name="Path 5404" d="M297.173,380.923h.045a.925.925,0,0,1,.642.3l7.074,7.829a19.093,19.093,0,0,1,18.818,32.253l-8.376,7.644a19.092,19.092,0,0,1-12.869,4.989c-.305,0-.615-.007-.92-.022a19.1,19.1,0,0,1-13.247-6.27l-18.7-20.689a.925.925,0,0,1,.063-1.3l26.843-24.494A.925.925,0,0,1,297.173,380.923Zm7.485,10.132a.925.925,0,0,1-.686-.3l-6.862-7.593L271.633,406.4l18.078,20.006a17.249,17.249,0,0,0,11.964,5.662c.276.013.555.02.831.02a17.243,17.243,0,0,0,11.622-4.506l8.377-7.644a17.236,17.236,0,0,0-8.141-29.629,17.384,17.384,0,0,0-3.487-.354,17.2,17.2,0,0,0-5.9,1.039A.925.925,0,0,1,304.657,391.055Z" transform="translate(-153.914 -217.626)" fill="#221714"/>
          <path id="Path_5405" data-name="Path 5405" d="M131.415,407.365l11.123,2.206a18.172,18.172,0,0,0,13.584-32.965l7.727-38a18.17,18.17,0,0,0-14.184-21.426l-.088-.017a18.168,18.168,0,0,0-21.338,14.2l-11.094,54.553a18.169,18.169,0,0,0,14.27,21.443" transform="translate(-66.718 -181.002)" fill="#fff"/>
          <path id="Path_5406" data-name="Path 5406" d="M144.859,409.614h0a19.248,19.248,0,0,1-3.735-.368L130,407.039a19.1,19.1,0,0,1-15-22.534L126.1,329.952a19.094,19.094,0,0,1,18.691-15.292,19.233,19.233,0,0,1,3.73.367l.054.011.033.006.008,0a19.079,19.079,0,0,1,14.906,22.516l-7.6,37.4a19.1,19.1,0,0,1-11.056,34.655Zm-.07-93.1A17.1,17.1,0,0,0,139,317.518a17.214,17.214,0,0,0-11.089,12.8l-11.094,54.553a17.244,17.244,0,0,0,13.544,20.351l11.123,2.206a17.385,17.385,0,0,0,3.375.333h0a17.093,17.093,0,0,0,5.81-1.016,17.256,17.256,0,0,0,3.707-30.6.925.925,0,0,1-.395-.954l7.727-38a17.23,17.23,0,0,0-13.46-20.335l-.032-.006-.048-.009h-.006A17.373,17.373,0,0,0,144.789,316.51Z" transform="translate(-65.484 -179.769)" fill="#221714"/>
          <path id="Path_5407" data-name="Path 5407" d="M155.971,432.255a18.172,18.172,0,0,1-13.584,32.965l-11.123-2.206a18.169,18.169,0,0,1-14.27-21.443l5.557-27.325,35.645,7.07Z" transform="translate(-66.632 -236.664)" fill="#fff000"/>
          <path id="Path_5408" data-name="Path 5408" d="M121.316,412.089a.928.928,0,0,1,.181.018l35.645,7.07a.925.925,0,0,1,.726,1.091l-2.1,10.34a19.092,19.092,0,0,1-14.792,34.287l-11.123-2.206a19.095,19.095,0,0,1-15-22.534l5.557-27.325A.925.925,0,0,1,121.316,412.089Zm34.554,8.721-33.83-6.71-5.374,26.423a17.244,17.244,0,0,0,13.543,20.352l11.123,2.206a17.391,17.391,0,0,0,3.375.333,17.094,17.094,0,0,0,5.811-1.016,17.256,17.256,0,0,0,3.707-30.6.925.925,0,0,1-.395-.955Z" transform="translate(-65.398 -235.431)" fill="#221714"/>
          <path id="Path_5409" data-name="Path 5409" d="M214,359.585s-37,34.958-82.514,0" transform="translate(-75.122 -205.435)" fill="#fff"/>
          <path id="Path_5410" data-name="Path 5410" d="M171.88,374.814a59.029,59.029,0,0,1-9.68-.8,64.8,64.8,0,0,1-15.706-4.779,77.02,77.02,0,0,1-8.286-4.328,90.838,90.838,0,0,1-8.514-5.82.925.925,0,0,1,1.127-1.467,88.98,88.98,0,0,0,8.326,5.693,75.188,75.188,0,0,0,8.073,4.22,62.98,62.98,0,0,0,15.234,4.647,57.629,57.629,0,0,0,25.794-1.584,64.621,64.621,0,0,0,9.94-3.823,67.326,67.326,0,0,0,7.523-4.238,50.486,50.486,0,0,0,6.426-4.855.925.925,0,0,1,1.27,1.345,51.077,51.077,0,0,1-6.622,5.018,69.174,69.174,0,0,1-7.718,4.36,66.524,66.524,0,0,1-10.225,3.947A60.256,60.256,0,0,1,171.88,374.814Z" transform="translate(-73.889 -204.203)" fill="#221714"/>
          <path id="Path_5411" data-name="Path 5411" d="M298.535,46.185,313.69,35.238a18.27,18.27,0,0,0-21.4-29.62L277.14,16.565a18.27,18.27,0,0,0,21.4,29.62" transform="translate(-154.007 -1.233)" fill="#f1975b"/>
          <path id="Path_5412" data-name="Path 5412" d="M286.619,49.338h0a19.283,19.283,0,0,1-8.611-2.03,19.189,19.189,0,0,1-2.643-32.725L290.518,3.637A19.194,19.194,0,1,1,313,34.756L297.842,45.7a19.108,19.108,0,0,1-11.223,3.636ZM301.743,1.85A17.219,17.219,0,0,0,291.6,5.136L276.447,16.082a17.33,17.33,0,0,0-3.9,24.217,17.323,17.323,0,0,0,14.075,7.19h0a17.258,17.258,0,0,0,10.14-3.286l15.155-10.947a17.33,17.33,0,0,0,3.9-24.217,17.322,17.322,0,0,0-14.075-7.19Z" transform="translate(-152.772 0)" fill="#221714"/>
          <path id="Path_5413" data-name="Path 5413" d="M81.013,143.607a17.612,17.612,0,0,1-27.863,21.2L19.229,126.5A17.612,17.612,0,0,1,15,91.942l5.545-1.56a17.609,17.609,0,0,1,17.541,4.828l40.605,45.356a17.666,17.666,0,0,1,2.32,3.042" transform="translate(-1.232 -51.259)" fill="#fff"/>
          <path id="Path_5414" data-name="Path 5414" d="M64.691,169.99a18.484,18.484,0,0,1-13.445-5.774l-.022-.024L17.564,126.173a18.534,18.534,0,0,1-4.048-36.354l5.545-1.56A18.532,18.532,0,0,1,37.525,93.34l.018.02,40.6,45.347a18.637,18.637,0,0,1,2.432,3.191A18.537,18.537,0,0,1,64.691,169.99ZM52.6,162.954a16.687,16.687,0,0,0,26.39-20.1,16.784,16.784,0,0,0-2.2-2.883l-.018-.02L36.174,94.6a16.681,16.681,0,0,0-16.611-4.565L14.018,91.6A16.679,16.679,0,0,0,8.35,120.876a16.716,16.716,0,0,0,9.674,3.465.925.925,0,0,1,.664.311Z" transform="translate(0.001 -50.027)" fill="#221714"/>
          <path id="Path_5415" data-name="Path 5415" d="M288.739,274.453a17.609,17.609,0,0,0,12.188-30.321l-16.8-16.108a17.609,17.609,0,1,0-24.372,25.423l16.8,16.108a17.551,17.551,0,0,0,12.184,4.9" transform="translate(-145.302 -127.475)" fill="#fff"/>
          <path id="Path_5416" data-name="Path 5416" d="M287.506,274.146a18.475,18.475,0,0,1-12.824-5.155l-16.8-16.107a18.534,18.534,0,1,1,25.652-26.758l16.8,16.108a18.529,18.529,0,0,1-12.828,31.913Zm-16.8-51.326a16.68,16.68,0,0,0-11.548,28.729l16.8,16.107a16.684,16.684,0,1,0,23.092-24.088l-16.8-16.108A16.607,16.607,0,0,0,270.708,222.819Z" transform="translate(-144.069 -126.243)" fill="#221714"/>
          <path id="Path_5417" data-name="Path 5417" d="M126.117,223.281h71.178l13.15,61.731h-97.58Z" transform="translate(-64.481 -127.563)" fill="#9fcc64"/>
          <path id="Path_5418" data-name="Path 5418" d="M150.014,316.622h0a12.605,12.605,0,0,1-9.664-14.98l1.521-7.054,24.644,5.315-1.521,7.055a12.605,12.605,0,0,1-14.98,9.664" transform="translate(-80.02 -168.302)" fill="#fff000"/>
          <path id="Path_5419" data-name="Path 5419" d="M151.451,316.6a13.612,13.612,0,0,1-2.865-.307,13.519,13.519,0,0,1-10.373-16.078l1.521-7.054a.925.925,0,0,1,1.1-.709l24.644,5.315a.925.925,0,0,1,.709,1.1l-1.521,7.055a13.533,13.533,0,0,1-13.214,10.68Zm-10.1-22.146-1.326,6.151a11.67,11.67,0,0,0,8.955,13.881,11.762,11.762,0,0,0,2.475.265,11.581,11.581,0,0,0,3.886-.67,11.661,11.661,0,0,0,7.52-8.55l1.326-6.151Z" transform="translate(-78.787 -167.069)" fill="#221714"/>
          <path id="Path_5420" data-name="Path 5420" d="M276.714,316.622h0a12.605,12.605,0,0,0,9.664-14.98l-1.521-7.054L260.213,299.9l1.521,7.055a12.605,12.605,0,0,0,14.98,9.664" transform="translate(-148.663 -168.302)" fill="#fff000"/>
          <path id="Path_5421" data-name="Path 5421" d="M272.812,316.6h0A13.519,13.519,0,0,1,259.6,305.92l-1.521-7.055a.925.925,0,0,1,.709-1.1l24.644-5.315a.925.925,0,0,1,1.1.709l1.521,7.055a13.519,13.519,0,0,1-10.373,16.078A13.608,13.608,0,0,1,272.812,316.6ZM260.079,299.38l1.326,6.151a11.685,11.685,0,0,0,11.406,9.221h0a11.758,11.758,0,0,0,2.474-.265,11.67,11.67,0,0,0,8.955-13.881l-1.326-6.151Z" transform="translate(-147.43 -167.069)" fill="#221714"/>
          <path id="Line_647" data-name="Line 647" d="M-.308,59.88H-2.157V0H-.308Z" transform="translate(99.453 97.433)" fill="#221714"/>
          <path id="Path_5422" data-name="Path 5422" d="M124.884,221.124h71.178a.925.925,0,0,1,.9.732l13.15,61.731a.925.925,0,0,1-.9,1.117h-97.58a.925.925,0,0,1-.9-1.119l13.252-61.731A.925.925,0,0,1,124.884,221.124Zm70.429,1.849H125.631l-12.855,59.882h95.293Z" transform="translate(-63.248 -126.331)" fill="#221714"/>
          <path id="Path_5423" data-name="Path 5423" d="M230.457,212.972s-7.084,15.166-32.221,15.166c-28.207,0-35.192-13.649-35.192-13.649" transform="translate(-93.149 -121.673)" fill="#4db7e7"/>
          <path id="Path_5424" data-name="Path 5424" d="M197.139,228.541a66.477,66.477,0,0,1-17.645-2.166,39.815,39.815,0,0,1-11.031-4.807c-5.418-3.506-7.263-7.031-7.339-7.18l1.646-.842v0a12.121,12.121,0,0,0,1.492,2.048A24.637,24.637,0,0,0,169.6,220.1a38.191,38.191,0,0,0,10.5,4.525,64.787,64.787,0,0,0,17.038,2.068,47.877,47.877,0,0,0,15.343-2.321,33.028,33.028,0,0,0,9.629-5.069,22.55,22.55,0,0,0,6.411-7.242l1.676.783a16.224,16.224,0,0,1-1.6,2.53,28.089,28.089,0,0,1-5.362,5.394,34.87,34.87,0,0,1-10.166,5.357A49.713,49.713,0,0,1,197.139,228.541Z" transform="translate(-92.052 -121.152)" fill="#040000"/>
          <path id="Path_5425" data-name="Path 5425" d="M150.294,114.878H180.24a28.332,28.332,0,0,0,28.332-28.332v-4.83a43.3,43.3,0,0,0-86.61,0v4.83a28.332,28.332,0,0,0,28.332,28.332" transform="translate(-69.678 -21.945)" fill="#fff"/>
          <path id="Path_5426" data-name="Path 5426" d="M114.8,61.7a40.862,40.862,0,0,1,40.8-38.932h10.85a40.831,40.831,0,0,1,11.136,1.575C172.089,51.8,143.208,62.476,114.8,61.7" transform="translate(-65.588 -13.008)" fill="#f1975b"/>
          <path id="Path_5427" data-name="Path 5427" d="M177.454,26.442a40.884,40.884,0,0,1,29.76,39.321V68.49a20.49,20.49,0,0,1,10.291,17.776v.968a25.227,25.227,0,0,1-25.227,25.227H143.433A28.861,28.861,0,0,1,114.572,83.6V65.763c0-.663.068-1.309.1-1.964,28.405.776,57.286-9.9,62.783-37.357" transform="translate(-65.456 -15.107)" fill="#fff"/>
          <path id="Path_5428" data-name="Path 5428" d="M154.236,20.612h10.85a42.125,42.125,0,0,1,8.427.85,41.6,41.6,0,0,1,14.956,6.293,41.94,41.94,0,0,1,15.151,18.4,41.616,41.616,0,0,1,2.437,7.851,42.126,42.126,0,0,1,.85,8.427v2.2a21.563,21.563,0,0,1,7.322,7.42A21.313,21.313,0,0,1,217.2,82.935V83.9a26.034,26.034,0,0,1-4.467,14.622A26.225,26.225,0,0,1,201.225,108a25.989,25.989,0,0,1-10.18,2.055H142.2a29.651,29.651,0,0,1-16.654-5.087,29.87,29.87,0,0,1-10.791-13.1,29.6,29.6,0,0,1-2.341-11.594V62.433a42.125,42.125,0,0,1,.85-8.427,41.6,41.6,0,0,1,6.293-14.956,41.94,41.94,0,0,1,18.4-15.151,41.616,41.616,0,0,1,7.851-2.437A42.124,42.124,0,0,1,154.236,20.612Zm36.81,87.594a24.184,24.184,0,0,0,13.587-4.15,24.376,24.376,0,0,0,8.806-10.693,24.15,24.15,0,0,0,1.909-9.459v-.968a19.564,19.564,0,0,0-9.828-16.974.925.925,0,0,1-.463-.8V62.433a40.27,40.27,0,0,0-.812-8.057,39.749,39.749,0,0,0-6.014-14.291A40.091,40.091,0,0,0,180.644,25.6a39.764,39.764,0,0,0-7.5-2.329,40.272,40.272,0,0,0-8.057-.812h-10.85a40.272,40.272,0,0,0-8.057.812,39.747,39.747,0,0,0-14.291,6.014,40.09,40.09,0,0,0-14.483,17.587,39.765,39.765,0,0,0-2.329,7.5,40.272,40.272,0,0,0-.812,8.057V80.269a27.8,27.8,0,0,0,4.771,15.619,28.02,28.02,0,0,0,12.292,10.123,27.761,27.761,0,0,0,10.874,2.2Z" transform="translate(-64.224 -11.776)" fill="#221714"/>
          <path id="Path_5429" data-name="Path 5429" d="M144.074,210.21s-23.34,11.072-30.725-16.376c0,0,23.229-7.13,30.725,16.376" transform="translate(-64.758 -110.159)" fill="#4db7e7"/>
          <path id="Path_5430" data-name="Path 5430" d="M132.379,212.11a21.166,21.166,0,0,1-5.886-.8,18.423,18.423,0,0,1-5.968-2.976,21.651,21.651,0,0,1-5.315-5.926,35.585,35.585,0,0,1-3.986-9.562.925.925,0,0,1,.622-1.124,30.155,30.155,0,0,1,8.11-1.057,28.187,28.187,0,0,1,6.274.683A22.95,22.95,0,0,1,132.922,194c5.015,3,8.649,7.948,10.8,14.7a.925.925,0,0,1-.485,1.116,23.435,23.435,0,0,1-3.19,1.156A27.948,27.948,0,0,1,132.379,212.11Zm-19.118-18.85a32.833,32.833,0,0,0,3.518,8.166,19.814,19.814,0,0,0,4.857,5.426,17.453,17.453,0,0,0,10.743,3.409,26.064,26.064,0,0,0,7.11-1.055c.936-.272,1.692-.546,2.206-.748a27.437,27.437,0,0,0-4.081-7.807,20.228,20.228,0,0,0-5.642-5.063,21.105,21.105,0,0,0-6.155-2.441,26.338,26.338,0,0,0-5.861-.637A30.291,30.291,0,0,0,113.261,193.26Z" transform="translate(-63.525 -108.927)" fill="#040000"/>
          <path id="Path_5431" data-name="Path 5431" d="M166.637,188.054s-24.43-8.4-10.525-33.188c0,0,21.6,11.139,10.525,33.188" transform="translate(-86.744 -88.477)" fill="#4db7e7"/>
          <path id="Path_5432" data-name="Path 5432" d="M165.406,187.746a.923.923,0,0,1-.3-.05,26.9,26.9,0,0,1-5.737-3,25.411,25.411,0,0,1-4.7-4.062,19.7,19.7,0,0,1-3.777-6.115,19.44,19.44,0,0,1-1.061-9.3,27.206,27.206,0,0,1,1.336-5.67,39.637,39.637,0,0,1,2.907-6.367.925.925,0,0,1,1.23-.369,26.031,26.031,0,0,1,3.332,2.167,32.52,32.52,0,0,1,3.137,2.679,28.966,28.966,0,0,1,3.269,3.759,22.62,22.62,0,0,1,4.307,10.814,23.147,23.147,0,0,1-.311,7.011,31.184,31.184,0,0,1-2.808,8A.925.925,0,0,1,165.406,187.746ZM155.239,154.9c-3.813,7.139-4.695,13.512-2.619,18.957a17.864,17.864,0,0,0,3.427,5.54,23.563,23.563,0,0,0,4.358,3.764,27.094,27.094,0,0,0,4.543,2.482,28.732,28.732,0,0,0,2.275-6.76,21.3,21.3,0,0,0,.289-6.451,20.794,20.794,0,0,0-3.967-9.936A29.653,29.653,0,0,0,155.239,154.9Z" transform="translate(-85.512 -87.244)" fill="#040000"/>
          <path id="Path_5433" data-name="Path 5433" d="M205.538,114.948a4.821,4.821,0,1,0,4.821-4.858,4.84,4.84,0,0,0-4.821,4.858" transform="translate(-117.426 -62.896)" fill="#221714"/>
          <path id="Path_5434" data-name="Path 5434" d="M253.57,139.3a2.947,2.947,0,1,0,2.947-2.947,2.947,2.947,0,0,0-2.947,2.947" transform="translate(-144.868 -77.902)" fill="#ec7463"/>
          <path id="Path_5435" data-name="Path 5435" d="M76.422,48.415,61.434,37.241A18.27,18.27,0,1,1,83.274,7.947L98.262,19.121a18.27,18.27,0,1,1-21.84,29.294" transform="translate(-30.898 -2.47)" fill="#f1975b"/>
          <path id="Path_5436" data-name="Path 5436" d="M86.093,51.731a19.113,19.113,0,0,1-11.458-3.807L59.647,36.75A19.179,19.179,0,0,1,55.731,9.889,19.176,19.176,0,0,1,82.592,5.973L97.58,17.147A19.179,19.179,0,0,1,101.5,44.008a19.2,19.2,0,0,1-15.4,7.723ZM71.134,4.016a17.507,17.507,0,0,0-7.668,1.777,17.246,17.246,0,0,0-3.384,2.184,17.426,17.426,0,0,0-2.868,3.018,17.329,17.329,0,0,0,3.539,24.273L75.74,46.441a17.263,17.263,0,0,0,10.353,3.44A17.507,17.507,0,0,0,93.761,48.1a17.245,17.245,0,0,0,3.384-2.184,17.426,17.426,0,0,0,2.868-3.018A17.329,17.329,0,0,0,96.475,18.63L81.487,7.456a17.263,17.263,0,0,0-10.353-3.44Z" transform="translate(-29.664 -1.238)" fill="#221714"/>
          <path id="Path_5437" data-name="Path 5437" d="M326.822,314a17.59,17.59,0,0,1-30.984-8.3l-.349-2.123c11.824-2.144,24.324,1.631,31.333,10.419" transform="translate(-168.816 -173.105)" fill="#f1975b"/>
          <path id="Path_5438" data-name="Path 5438" d="M320.292,189.111a17.613,17.613,0,0,1,.314,20.831l3.448,21a17.551,17.551,0,0,1-3.769,14c-7.009-8.789-19.508-12.563-31.333-10.419l-4.672-28.464a17.609,17.609,0,0,1,6.751-16.895l4.593-3.476a17.61,17.61,0,0,1,24.668,3.417" transform="translate(-162.279 -104.051)" fill="#fff"/>
          <path id="Path_5439" data-name="Path 5439" d="M305.423,251.1h0a18.482,18.482,0,0,1-10.4-3.207,18.479,18.479,0,0,1-7.872-12.327l-5.021-30.587a18.533,18.533,0,0,1,7.105-17.782l4.593-3.476a18.538,18.538,0,0,1,26.513,25.205l3.387,20.635a18.519,18.519,0,0,1-15.287,21.291A18.724,18.724,0,0,1,305.423,251.1ZM305,181.818A16.605,16.605,0,0,0,294.95,185.2l-4.593,3.476a16.684,16.684,0,0,0-6.4,16.007l5.021,30.587a16.775,16.775,0,0,0,.969,3.494,16.559,16.559,0,0,0,2.515,4.291,16.762,16.762,0,0,0,8.015,5.445,16.554,16.554,0,0,0,4.944.755h0a16.866,16.866,0,0,0,2.724-.223,16.67,16.67,0,0,0,13.762-19.167l-3.448-21a.925.925,0,0,1,.159-.686,16.687,16.687,0,0,0-6.293-24.672A16.843,16.843,0,0,0,305,181.818Z" transform="translate(-161.047 -102.819)" fill="#221714"/>
          <path id="Path_5440" data-name="Path 5440" d="M256.537,163.465a2.809,2.809,0,0,1-4.487,1.639,2.817,2.817,0,0,1-1.07-1.632.925.925,0,0,0-1.783.492,4.692,4.692,0,0,0,9.124-.007.926.926,0,0,0-1.783-.492" transform="translate(-142.351 -93.013)" fill="#221714"/>
          <path id="Path_5441" data-name="Path 5441" d="M176.877,208.589a.925.925,0,0,1-.841-.54c-.014-.03-1.368-3-2.805-6.635a55.609,55.609,0,0,1-3.465-11.166.925.925,0,1,1,1.831-.262c.8,5.623,6.069,17.178,6.122,17.294a.925.925,0,0,1-.84,1.31Z" transform="translate(-96.983 -108.087)" fill="#040000"/>
          <path id="Path_5442" data-name="Path 5442" d="M158.8,221.336a.921.921,0,0,1-.425-.1c-.094-.049-9.437-4.89-16.334-7.812a.925.925,0,1,1,.722-1.7c6.964,2.951,16.37,7.825,16.464,7.874a.925.925,0,0,1-.427,1.746Z" transform="translate(-80.83 -120.914)" fill="#040000"/>
          <path id="Path_5443" data-name="Path 5443" d="M274.983,125.838a.925.925,0,0,1-.6-1.625,12.4,12.4,0,0,1,3.389-2.093,12.206,12.206,0,0,1,3.064-.812,10.514,10.514,0,0,1,3.139.023l-.363,1.813h0a8.931,8.931,0,0,0-2.613.006,10.353,10.353,0,0,0-2.571.7,10.555,10.555,0,0,0-2.84,1.764A.921.921,0,0,1,274.983,125.838Z" transform="translate(-156.573 -69.247)" fill="#221714"/>
        </g>
      </g>
    </g>
  </g>
</svg>
