<svg xmlns="http://www.w3.org/2000/svg" xmlns:xlink="http://www.w3.org/1999/xlink" width="151" height="280" viewBox="0 0 151 280">
  <defs>
    <clipPath id="clip-path">
      <rect id="Rectangle_13914" data-name="Rectangle 13914" width="252.259" height="269.988" fill="none"/>
    </clipPath>
    <clipPath id="clip-path-2">
      <rect id="Rectangle_13907" data-name="Rectangle 13907" width="252.259" height="269.987" fill="none"/>
    </clipPath>
    <clipPath id="clip-path-5">
      <rect id="Rectangle_13909" data-name="Rectangle 13909" width="22.217" height="22.217" fill="none"/>
    </clipPath>
    <clipPath id="clip-Img-charactor-pig">
      <rect width="151" height="280"/>
    </clipPath>
  </defs>
  <g id="Img-charactor-pig" clip-path="url(#clip-Img-charactor-pig)">
    <g id="Group_43241" data-name="Group 43241" transform="matrix(0.978, -0.208, 0.208, 0.978, -18.959, 42.859)">
      <g id="Group_43239" data-name="Group 43239" clip-path="url(#clip-path)">
        <path id="Path_7206" data-name="Path 7206" d="M685.421,628.6l22.425-39.234,46.828,25.615-22.061,37.395Z" transform="translate(-523.812 -450.406)" fill="#f6c6d9"/>
        <path id="Path_7207" data-name="Path 7207" d="M908.366,724.258l.29,22.774L885.571,735.4l22.061-37.4,20.8,11.376Z" transform="translate(-676.77 -533.43)"/>
        <path id="Path_7208" data-name="Path 7208" d="M730.667,651.032a.6.6,0,0,1-.27-.064l-47.192-23.776a.6.6,0,0,1-.251-.833l22.425-39.234a.6.6,0,0,1,.809-.229l46.828,25.615a.6.6,0,0,1,.229.831l-22.061,37.395A.6.6,0,0,1,730.667,651.032Zm-46.356-24.627,46.125,23.239L751.9,613.266l-45.768-25.035Z" transform="translate(-521.867 -448.461)" fill="#221714"/>
        <g id="Group_43228" data-name="Group 43228" transform="translate(0 0.001)">
          <g id="Group_43227" data-name="Group 43227" clip-path="url(#clip-path-2)">
            <path id="Path_7209" data-name="Path 7209" d="M906.712,745.688a.6.6,0,0,1-.27-.064l-23.085-11.631a.6.6,0,0,1-.247-.841l22.061-37.4a.6.6,0,0,1,.8-.222l20.8,11.376a.6.6,0,0,1,.069,1.008l-19.817,14.693.286,22.467a.6.6,0,0,1-.6.608ZM884.469,733.21l21.631,10.9-.278-21.786a.6.6,0,0,1,.243-.49l19.311-14.317-19.466-10.648Z" transform="translate(-674.826 -531.486)" fill="#221714"/>
          </g>
        </g>
        <path id="Path_7210" data-name="Path 7210" d="M494.72,785.3,537.3,770.156,556.125,820.1l-41.1,13.99Z" transform="translate(-378.074 -588.568)" fill="#f6c6d9"/>
        <path id="Path_7211" data-name="Path 7211" d="M605.383,1002.374l-14.62,17.464-9.932-23.866,41.1-13.99,8.363,22.182Z" transform="translate(-443.882 -750.45)"/>
        <path id="Path_7212" data-name="Path 7212" d="M535.351,767.61a.6.6,0,0,1,.561.389l18.829,49.945a.6.6,0,0,1-.368.78l-41.1,13.99a.6.6,0,0,1-.747-.337l-20.3-48.786a.6.6,0,0,1,.353-.8l42.576-15.148A.6.6,0,0,1,535.351,767.61ZM553.4,817.787,535,768.973l-41.426,14.738L513.417,831.4Z" transform="translate(-376.13 -586.623)" fill="#221714"/>
        <g id="Group_43230" data-name="Group 43230" transform="translate(0 0.001)">
          <g id="Group_43229" data-name="Group 43229" clip-path="url(#clip-path-2)">
            <path id="Path_7213" data-name="Path 7213" d="M588.818,1018.493a.614.614,0,0,1-.091-.007.6.6,0,0,1-.463-.363l-9.932-23.866a.6.6,0,0,1,.36-.8l41.1-13.99a.6.6,0,0,1,.755.356l8.363,22.182a.6.6,0,0,1-.6.81l-24.606-1.769-14.423,17.229A.6.6,0,0,1,588.818,1018.493Zm-9.132-24.1,9.306,22.362,13.986-16.707a.6.6,0,0,1,.5-.213l23.977,1.724-7.827-20.761Z" transform="translate(-441.937 -748.506)" fill="#221714"/>
          </g>
        </g>
        <path id="Path_7214" data-name="Path 7214" d="M80.384,454.864l-9-2.865L61.032,476.3l8.178,4.253" transform="translate(-46.642 -345.426)" fill="#f6c6d9"/>
        <path id="Path_7215" data-name="Path 7215" d="M67.264,479.211a.6.6,0,0,1-.276-.068l-8.178-4.253a.6.6,0,0,1-.275-.767l10.348-24.3a.6.6,0,0,1,.734-.337l9,2.865a.6.6,0,1,1-.364,1.143l-8.484-2.7-9.916,23.29,7.685,4a.6.6,0,0,1-.277,1.132Z" transform="translate(-44.697 -343.481)" fill="#221714"/>
        <path id="Path_7216" data-name="Path 7216" d="M475.243,753.1l15.535,35.045,41.853-28.359-10.168-25.942" transform="translate(-363.19 -560.82)" fill="#4db7e7"/>
        <path id="Path_7217" data-name="Path 7217" d="M488.833,786.8a.6.6,0,0,1-.548-.357L472.749,751.4a.6.6,0,0,1,1.1-.486L489.091,785.3l40.862-27.687-9.993-25.5a.6.6,0,0,1,1.117-.438l10.168,25.942a.6.6,0,0,1-.222.716L489.169,786.7A.6.6,0,0,1,488.833,786.8Z" transform="translate(-361.245 -558.875)" fill="#221714"/>
        <path id="Path_7218" data-name="Path 7218" d="M662.917,546.886l33.815,19.86-31.1,41.844-29.469-10.451" transform="translate(-486.169 -417.941)" fill="#4db7e7"/>
        <g id="Group_43238" data-name="Group 43238" transform="translate(0 0.001)">
          <g id="Group_43237" data-name="Group 43237" clip-path="url(#clip-path-2)">
            <path id="Path_7219" data-name="Path 7219" d="M547.15,592.53l-21.717,22.39s-3.234-1.758-13.218,3.157-21.752,11.644-21.752,11.644l-5.9-11.686,57.72-46.433Z" transform="translate(-370.311 -436.831)" fill="#4db7e7"/>
            <path id="Path_7220" data-name="Path 7220" d="M663.688,607.245a.6.6,0,0,1-.2-.035l-29.469-10.451a.6.6,0,1,1,.4-1.131l29.051,10.3,30.435-40.951-33.238-19.522a.6.6,0,1,1,.608-1.035l33.815,19.86a.6.6,0,0,1,.178.875L664.17,607A.6.6,0,0,1,663.688,607.245Z" transform="translate(-484.224 -415.997)" fill="#221714"/>
            <path id="Path_7221" data-name="Path 7221" d="M152.492,443.528s-19.121,11.627-65.057,2.675L76.4,472.712s30.656,17.476,64.342,18.556" transform="translate(-58.386 -338.954)" fill="#fff"/>
            <path id="Path_7222" data-name="Path 7222" d="M138.8,489.923h-.02c-33.448-1.072-64.312-18.459-64.619-18.634a.6.6,0,0,1-.257-.752l11.036-26.51a.6.6,0,0,1,.669-.358c45.186,8.806,64.442-2.483,64.631-2.6a.6.6,0,0,1,.623,1.025c-.786.478-19.713,11.565-65,2.844L75.214,470.5c3.965,2.16,32.683,17.23,63.6,18.221a.6.6,0,0,1-.019,1.2Z" transform="translate(-56.441 -337.009)" fill="#221714"/>
            <path id="Path_7223" data-name="Path 7223" d="M409.4,404.982l23.487,15.272L360.1,485.431a305.764,305.764,0,0,1-32.556-48.521l-3.859-38.1,58.5-21.781Z" transform="translate(-247.368 -288.133)" fill="#fff"/>
            <path id="Path_7224" data-name="Path 7224" d="M370.664,574.692l-.046,0a.6.6,0,0,1-.418-.217,309.277,309.277,0,0,1-32.626-48.628.6.6,0,0,1,1.067-.548,307.949,307.949,0,0,0,32.089,47.931l71.735-64.236-22.83-14.844a.6.6,0,0,1,.654-1.006l23.487,15.271a.6.6,0,0,1,.073.95l-72.786,65.177A.6.6,0,0,1,370.664,574.692Z" transform="translate(-257.93 -376.795)" fill="#221714"/>
            <path id="Path_7225" data-name="Path 7225" d="M840.806,441.159l9.379,1.154,5.684-25.8-8.822-2.671" transform="translate(-642.56 -316.271)" fill="#f6c6d9"/>
            <path id="Path_7226" data-name="Path 7226" d="M848.24,440.968a.6.6,0,0,1-.074,0l-9.379-1.154a.6.6,0,0,1,.147-1.191l8.837,1.088,5.448-24.72-8.291-2.51a.6.6,0,1,1,.348-1.148L854.1,414a.6.6,0,0,1,.412.7l-5.684,25.8A.6.6,0,0,1,848.24,440.968Z" transform="translate(-640.616 -314.325)" fill="#221714"/>
            <path id="Path_7227" data-name="Path 7227" d="M880.582,450.97l11.948,2.792-3.524-14.379,12.224-9.24-14.964-4.968Z" transform="translate(-672.958 -324.927)"/>
            <path id="Path_7228" data-name="Path 7228" d="M890.586,452.418a.6.6,0,0,1-.136-.016L878.5,449.61a.6.6,0,0,1-.449-.713l5.684-25.8a.6.6,0,0,1,.775-.44l14.964,4.968a.6.6,0,0,1,.173,1.048l-11.909,9,3.43,14a.6.6,0,0,1-.583.743Zm-11.235-3.841,10.42,2.435-3.291-13.43a.6.6,0,0,1,.221-.621l11.313-8.552-13.249-4.4Z" transform="translate(-671.013 -322.983)" fill="#221714"/>
            <path id="Path_7229" data-name="Path 7229" d="M470.547,435.349s4.547,9.738-2.884,16.36c-8.07,7.191-17.392-4.758-17.392-4.758" transform="translate(-344.105 -332.703)" fill="#fff000"/>
            <path id="Path_7230" data-name="Path 7230" d="M460.05,452.667q-.4,0-.817-.037c-6.084-.55-11.167-6.981-11.38-7.254a.6.6,0,0,1,.946-.738c.049.063,4.982,6.3,10.546,6.8a7.707,7.707,0,0,0,5.975-2.119c7.017-6.253,2.783-15.565,2.74-15.659a.6.6,0,1,1,1.087-.508c.047.1,4.648,10.221-3.029,17.062A8.954,8.954,0,0,1,460.05,452.667Z" transform="translate(-342.16 -330.758)" fill="#221714"/>
            <path id="Path_7231" data-name="Path 7231" d="M541.244,379.9s37.843-10.206,81.8,3.823l-5.722,31.334s-27.635-.73-49,6.009" transform="translate(-413.629 -287.591)" fill="#fff"/>
            <path id="Path_7232" data-name="Path 7232" d="M566.376,419.859a.6.6,0,0,1-.18-1.172c19.617-6.188,44.783-6.1,48.681-6.046l5.536-30.313c-43.06-13.576-80.582-3.757-80.957-3.656a.6.6,0,0,1-.312-1.159c.38-.1,38.518-10.09,82.137,3.831a.6.6,0,0,1,.408.679l-5.722,31.334a.6.6,0,0,1-.606.492c-.275-.007-27.783-.649-48.8,5.981A.6.6,0,0,1,566.376,419.859Z" transform="translate(-411.684 -285.78)" fill="#221714"/>
            <path id="Path_7233" data-name="Path 7233" d="M364.557,490.926s4.513,9.754,14.367,8.341c10.7-1.534,7.574-16.364,7.574-16.364" transform="translate(-278.601 -369.045)" fill="#fff000"/>
            <path id="Path_7234" data-name="Path 7234" d="M375.07,498.061c-8.81,0-12.959-8.733-13-8.828a.6.6,0,0,1,1.089-.5c.177.382,4.453,9.331,13.738,8a7.707,7.707,0,0,0,5.473-3.2c3.206-4.585,1.615-12.363,1.6-12.441a.6.6,0,1,1,1.174-.247c.072.339,1.712,8.37-1.789,13.377a8.862,8.862,0,0,1-6.286,3.7A14.036,14.036,0,0,1,375.07,498.061Z" transform="translate(-276.657 -367.1)" fill="#221714"/>
            <path id="Path_7235" data-name="Path 7235" d="M26.682,435.957l-11.228-4.949.809,14.782L2.544,452.616l13.79,7.645Z" transform="translate(-1.944 -329.385)"/>
            <path id="Path_7236" data-name="Path 7236" d="M13.509,428.463a.6.6,0,0,1,.242.051l11.228,4.949a.6.6,0,0,1,.31.784l-10.348,24.3a.6.6,0,0,1-.843.29L.309,451.2a.6.6,0,0,1,.024-1.062l13.366-6.65L12.91,429.1a.6.6,0,0,1,.6-.633Zm10.444,5.859-9.792-4.316.756,13.806a.6.6,0,0,1-.332.57L1.889,450.7l12.21,6.769Z" transform="translate(0 -327.441)" fill="#221714"/>
            <path id="Path_7237" data-name="Path 7237" d="M106.66,202.294s-8.36-7.13-23.871-4.251-18.028-1.632-19.714,2.805S78.565,236.5,100,229.643" transform="translate(-48.116 -150.826)" fill="#f6c6d9"/>
            <path id="Path_7238" data-name="Path 7238" d="M342.21,45.9s-5.819-9.32-.683-24.237S342.571,3.6,347.209,2.583s32.976,20.579,23.033,40.769" transform="translate(-259.382 -1.948)" fill="#f6c6d9"/>
            <path id="Path_7239" data-name="Path 7239" d="M91.951,229.234c-7,0-14.141-3.566-20.636-10.42-7.072-7.462-11.817-17.315-10.74-20.148,1.026-2.7,2.528-2.585,5.519-2.353a50.6,50.6,0,0,0,14.646-.829c15.612-2.9,24.019,4.085,24.37,4.384a.6.6,0,0,1-.778.914c-.082-.069-8.356-6.906-23.373-4.118A52.346,52.346,0,0,1,66,197.509c-3.028-.234-3.62-.221-4.305,1.583-.727,1.913,3.2,11.208,10.489,18.9,5.75,6.067,14.876,12.574,25.693,9.114a.6.6,0,1,1,.366,1.143A20.573,20.573,0,0,1,91.951,229.234Z" transform="translate(-46.176 -148.857)" fill="#221714"/>
            <path id="Path_7240" data-name="Path 7240" d="M340.209,44.564a.6.6,0,0,1-.509-.282c-.244-.39-5.911-9.736-.742-24.75a50.6,50.6,0,0,0,2.98-14.364c.212-2.993.319-4.5,3.142-5.112,2.96-.647,12.006,5.5,18.343,13.595,7.583,9.687,9.485,19.64,5.356,28.025a.6.6,0,1,1-1.076-.53c5.017-10.188-.072-20.173-5.225-26.755C355.95,6.05,347.336.792,345.336,1.229c-1.886.412-1.986,1-2.2,4.025a52.345,52.345,0,0,1-3.042,14.669c-4.972,14.442.569,23.633.625,23.725a.6.6,0,0,1-.509.917Z" transform="translate(-257.382 -0.009)" fill="#221714"/>
            <path id="Path_7241" data-name="Path 7241" d="M281.64,181.308l-75.074,34.637-10.247-22.211a41.34,41.34,0,0,1,20.218-54.856h0A41.34,41.34,0,0,1,271.393,159.1Z" transform="translate(-147.117 -103.221)" fill="#f6c6d9"/>
            <path id="Path_7242" data-name="Path 7242" d="M268.381,264.878,235.6,280a32.378,32.378,0,1,1-27.129-58.8l32.779-15.123a32.379,32.379,0,0,1,27.129,58.8" transform="translate(-144.935 -155.207)" fill="#f6c6d9"/>
            <path id="Path_7243" data-name="Path 7243" d="M229.665,132.524h0a41.91,41.91,0,0,1,34.5,18.056,32.976,32.976,0,0,1,2.486,60.914l-32.779,15.124a32.707,32.707,0,0,1-13.8,3.041,33.1,33.1,0,0,1-29.966-19.171,32.733,32.733,0,0,1-.969-25.295,41.965,41.965,0,0,1,40.522-52.669Zm-9.587,95.935a31.515,31.515,0,0,0,13.292-2.931L266.15,210.4a31.777,31.777,0,0,0-2.571-58.761.6.6,0,0,1-.292-.226,40.744,40.744,0,0,0-72.934,33.65.6.6,0,0,1-.018.369,31.546,31.546,0,0,0,.868,24.55A31.892,31.892,0,0,0,220.078,228.459Z" transform="translate(-142.955 -101.279)" fill="#221714"/>
            <g id="Group_43233" data-name="Group 43233" transform="translate(61.494 63.388)" opacity="0.58">
              <g id="Group_43232" data-name="Group 43232">
                <g id="Group_43231" data-name="Group 43231" clip-path="url(#clip-path-5)">
                  <path id="Path_7244" data-name="Path 7244" d="M282,275.3a11.106,11.106,0,1,0-5.432,14.737A11.106,11.106,0,0,0,282,275.3" transform="translate(-260.811 -268.847)" fill="#f3f3f4"/>
                </g>
              </g>
            </g>
            <g id="Group_43236" data-name="Group 43236" transform="translate(84.988 52.549)" opacity="0.58">
              <g id="Group_43235" data-name="Group 43235">
                <g id="Group_43234" data-name="Group 43234" clip-path="url(#clip-path-5)">
                  <path id="Path_7245" data-name="Path 7245" d="M381.645,229.332a11.106,11.106,0,1,0-5.432,14.737,11.106,11.106,0,0,0,5.432-14.737" transform="translate(-360.452 -222.876)" fill="#f3f3f4"/>
                </g>
              </g>
            </g>
            <path id="Path_7246" data-name="Path 7246" d="M306.489,297.74a3.43,3.43,0,1,1-4.551-1.678,3.43,3.43,0,0,1,4.551,1.678" transform="translate(-229.223 -226.016)" fill="#221714"/>
            <path id="Path_7247" data-name="Path 7247" d="M301.432,293.2a4.044,4.044,0,0,1,3.661,2.343,4.031,4.031,0,0,1-3.657,5.719,4.03,4.03,0,0,1-1.69-7.69A4,4,0,0,1,301.432,293.2Zm0,6.862A2.831,2.831,0,0,0,304,296.047a2.841,2.841,0,0,0-2.572-1.645,2.805,2.805,0,0,0-1.183.261,2.831,2.831,0,0,0,1.188,5.4Z" transform="translate(-227.282 -224.071)" fill="#221714"/>
            <path id="Path_7248" data-name="Path 7248" d="M390.578,258.944a3.43,3.43,0,1,1-4.551-1.678,3.43,3.43,0,0,1,4.551,1.678" transform="translate(-293.486 -196.367)" fill="#221714"/>
            <path id="Path_7249" data-name="Path 7249" d="M385.521,254.406a4.044,4.044,0,0,1,3.661,2.343,4.032,4.032,0,0,1-3.657,5.719,4.03,4.03,0,0,1-1.69-7.69A4,4,0,0,1,385.521,254.406Zm0,6.862a2.831,2.831,0,0,0,2.568-4.016,2.841,2.841,0,0,0-2.572-1.645,2.832,2.832,0,0,0-2.568,4.017A2.84,2.84,0,0,0,385.525,261.267Z" transform="translate(-291.544 -194.423)" fill="#221714"/>
            <rect id="Rectangle_13911" data-name="Rectangle 13911" width="6.966" height="3.029" transform="translate(80.941 69.845) rotate(-24.768)" fill="#e59cba"/>
            <path id="Rectangle_13912" data-name="Rectangle 13912" d="M.6,0H7.566a.6.6,0,0,1,.6.6V3.629a.6.6,0,0,1-.6.6H.6a.6.6,0,0,1-.6-.6V.6A.6.6,0,0,1,.6,0ZM6.966,1.2H1.2V3.029H6.966Z" transform="translate(80.145 69.552) rotate(-24.768)" fill="#221714"/>
            <path id="Path_7250" data-name="Path 7250" d="M267.267,269.871A11.106,11.106,0,1,0,282,275.3a11.106,11.106,0,0,0-14.737-5.432m8.265,17.913a8.622,8.622,0,1,1,4.217-11.44,8.622,8.622,0,0,1-4.217,11.44" transform="translate(-199.317 -205.459)" fill="#e59cba"/>
            <path id="Path_7251" data-name="Path 7251" d="M269.978,266.3h0a11.748,11.748,0,0,1,10.636,6.8,11.711,11.711,0,0,1-10.622,16.613,11.708,11.708,0,0,1-4.911-22.338A11.608,11.608,0,0,1,269.978,266.3Zm.015,22.217a10.509,10.509,0,0,0,9.533-14.91,10.545,10.545,0,0,0-9.547-6.107h0a10.511,10.511,0,0,0-9.532,14.91A10.544,10.544,0,0,0,269.993,288.52Zm-.012-19.732a9.254,9.254,0,0,1,8.379,5.36,9.226,9.226,0,0,1-8.368,13.087,9.254,9.254,0,0,1-8.379-5.36,9.226,9.226,0,0,1,8.368-13.087Zm.011,17.247a8.024,8.024,0,0,0,7.278-11.384,8.05,8.05,0,0,0-7.289-4.663,8.024,8.024,0,0,0-7.278,11.384A8.05,8.05,0,0,0,269.991,286.035Z" transform="translate(-197.383 -203.514)" fill="#221714"/>
            <path id="Path_7252" data-name="Path 7252" d="M366.908,223.9a11.106,11.106,0,1,0,14.737,5.432,11.106,11.106,0,0,0-14.737-5.432m8.265,17.913a8.622,8.622,0,1,1,4.217-11.44,8.622,8.622,0,0,1-4.217,11.44" transform="translate(-275.464 -170.327)" fill="#e59cba"/>
            <path id="Path_7253" data-name="Path 7253" d="M369.619,220.332h0a11.708,11.708,0,0,1,4.911,22.338,11.609,11.609,0,0,1-4.9,1.079,11.708,11.708,0,0,1-4.911-22.338A11.608,11.608,0,0,1,369.619,220.332Zm.015,22.217a10.511,10.511,0,0,0,9.533-14.91,10.545,10.545,0,0,0-9.547-6.107h0a10.511,10.511,0,0,0-9.532,14.91A10.544,10.544,0,0,0,369.634,242.549Zm-.012-19.732a9.223,9.223,0,0,1,3.869,17.6,9.146,9.146,0,0,1-3.858.85,9.254,9.254,0,0,1-8.379-5.36,9.226,9.226,0,0,1,8.368-13.087Zm.011,17.247a8.026,8.026,0,0,0,7.278-11.384,8.05,8.05,0,0,0-7.289-4.663,8.023,8.023,0,0,0-7.278,11.384A8.051,8.051,0,0,0,369.632,240.064Z" transform="translate(-273.53 -168.383)" fill="#221714"/>
            <path id="Path_7254" data-name="Path 7254" d="M352.852,310.09c-1.266-.413-3.317-3.1-7.3-1.554l0-.005-.033.019-.036.013,0,.005c-3.767,2.028-3.051,5.335-3.558,6.566s-5.111,6.7-.974,9.81c4.588,3.444,10.282-2.578,10.72-3.055.647-.025,8.924-.448,9.281-6.174.323-5.163-6.822-5.21-8.1-5.625" transform="translate(-259.25 -235.426)" fill="#e59cba"/>
            <path id="Path_7255" data-name="Path 7255" d="M345.989,305.514h0a7.33,7.33,0,0,1,4.2,1.524,4.873,4.873,0,0,0,.926.536,8.208,8.208,0,0,0,.995.184c2.339.364,7.815,1.215,7.513,6.049-.365,5.832-7.912,6.62-9.61,6.723-.857.886-4.241,4.126-7.863,4.126a5.7,5.7,0,0,1-3.487-1.178c-3.874-2.907-.968-7.626.273-9.641a8.222,8.222,0,0,0,.506-.877,4.87,4.87,0,0,0,.193-1.052,6.744,6.744,0,0,1,3.565-5.775.579.579,0,0,1,.128-.072.62.62,0,0,1,.142-.054A7.1,7.1,0,0,1,345.989,305.514Zm-3.835,17.942c3.5,0,7-3.759,7.152-3.919a.6.6,0,0,1,.419-.193c.342-.013,8.378-.378,8.705-5.612.205-3.288-3-4.245-6.5-4.789a9.313,9.313,0,0,1-1.182-.229,5.457,5.457,0,0,1-1.216-.676,6.226,6.226,0,0,0-3.541-1.325h0a5.941,5.941,0,0,0-2.143.436h0a5.556,5.556,0,0,0-3.013,4.9,5.45,5.45,0,0,1-.275,1.364,9.3,9.3,0,0,1-.594,1.048c-1.856,3.014-3.21,6.075-.575,8.053A4.522,4.522,0,0,0,342.154,323.457Z" transform="translate(-257.331 -233.481)" fill="#221714"/>
            <path id="Path_7257" data-name="Path 7257" d="M390.144,330.467a4.876,4.876,0,0,1,3.609,1.378,2.3,2.3,0,0,1,.525,1.918c-.183,1.09-1.248,1.74-2.851,1.74-1.665,0-3.744-.709-4.315-2.024a1.929,1.929,0,0,1,.521-2.178A3.449,3.449,0,0,1,390.144,330.467Zm1.284,3.836c.746,0,1.576-.194,1.667-.739a1.1,1.1,0,0,0-.258-.944,3.714,3.714,0,0,0-2.693-.953,2.443,2.443,0,0,0-1.633.453c-.465.5-.343.776-.3.881C388.509,333.682,390.041,334.3,391.427,334.3Z" transform="translate(-295.728 -252.55)" fill="#221714"/>
            <path id="Path_7257-2" data-name="Path 7257" d="M4.17,0A4.876,4.876,0,0,0,.56,1.378,2.3,2.3,0,0,0,.035,3.3c.183,1.09,1.248,1.74,2.851,1.74,1.665,0,3.744-.709,4.315-2.024A1.929,1.929,0,0,0,6.68.834,3.449,3.449,0,0,0,4.17,0ZM2.886,3.836c-.746,0-1.576-.194-1.667-.739a1.1,1.1,0,0,1,.258-.945A3.715,3.715,0,0,1,4.17,1.2,2.442,2.442,0,0,1,5.8,1.653c.465.5.343.776.3.881C5.8,3.215,4.272,3.836,2.886,3.836Z" transform="translate(82.245 86.6) rotate(-68)" fill="#221714"/>
            <path id="Path_7258" data-name="Path 7258" d="M272.895,387.865a23.08,23.08,0,0,1-8.986-1.71,19.859,19.859,0,0,1-10.693-10.624.6.6,0,0,1,1.128-.408,19,19,0,0,0,10.049,9.934c6.915,2.881,15.739,1.889,26.228-2.951a.6.6,0,1,1,.5,1.09C284.382,386.306,278.284,387.865,272.895,387.865Z" transform="translate(-193.485 -286.375)" fill="#221714"/>
            <path id="Path_7259" data-name="Path 7259" d="M411.1,300.114a.6.6,0,0,1-.252-1.145c10.5-4.845,16.985-10.921,19.274-18.061a18.929,18.929,0,0,0-1.042-14.07.6.6,0,0,1,1.042-.594,19.859,19.859,0,0,1,1.143,15.03c-2.4,7.473-9.1,13.793-19.914,18.784A.6.6,0,0,1,411.1,300.114Z" transform="translate(-313.711 -203.238)" fill="#221714"/>
            <path id="Path_7260" data-name="Path 7260" d="M243.879,123a4.307,4.307,0,1,0-8.375-1.73,5.221,5.221,0,0,0-8.762,5.181,3.867,3.867,0,0,0-.767,7.676,5.221,5.221,0,1,0,9.152,4.953,5.223,5.223,0,0,0,8.455-6.059,5.222,5.222,0,1,0,.3-10.02" transform="translate(-170.238 -89.662)" fill="#f3f3f4"/>
            <path id="Path_7261" data-name="Path 7261" d="M237.848,114.78a4.91,4.91,0,0,1,4.645,3.322,4.851,4.851,0,0,1,.223,2.211,5.034,5.034,0,0,1,.529-.024,5.822,5.822,0,1,1-.586,11.615,5.821,5.821,0,0,1-9.331,6.228,5.82,5.82,0,0,1-10.443-1.2,5.778,5.778,0,0,1,.243-4.367,4.468,4.468,0,0,1,.106-8.418,4.394,4.394,0,0,1,.8-.192,5.818,5.818,0,0,1,9.133-5.75,4.912,4.912,0,0,1,4.677-3.421Zm4.082,6.878a.6.6,0,0,1-.569-.791,3.7,3.7,0,0,0-4.714-4.686,3.712,3.712,0,0,0-2.495,3.2.6.6,0,0,1-1.033.362,4.621,4.621,0,0,0-7.755,4.585.6.6,0,0,1-.589.782,3.4,3.4,0,0,0-1.153.171,3.269,3.269,0,0,0,.505,6.314.6.6,0,0,1,.4.919,4.621,4.621,0,1,0,8.1,4.384.6.6,0,0,1,1-.152,4.623,4.623,0,0,0,7.483-5.364.6.6,0,0,1,.7-.873,4.622,4.622,0,1,0,1.427-9.019h0a4.608,4.608,0,0,0-1.163.15A.6.6,0,0,1,241.93,121.657Z" transform="translate(-168.289 -87.718)" fill="#221714"/>
          </g>
        </g>
      </g>
    </g>
  </g>
</svg>
