<svg xmlns="http://www.w3.org/2000/svg" xmlns:xlink="http://www.w3.org/1999/xlink" width="220" height="280" viewBox="0 0 220 280">
  <defs>
    <clipPath id="clip-path">
      <rect id="Rectangle_278" data-name="Rectangle 278" width="151.602" height="243.917" fill="none"/>
    </clipPath>
    <clipPath id="clip-path-2">
      <path id="Path_4583" data-name="Path 4583" d="M37.622,98.807,24.053,180.3h99.913L110.5,98.807Z" fill="none"/>
    </clipPath>
    <clipPath id="clip-path-4">
      <rect id="Rectangle_280" data-name="Rectangle 280" width="28.193" height="79.277" transform="translate(39.14 92.932)" fill="none"/>
    </clipPath>
    <clipPath id="clip-Img-charactor-cat">
      <rect width="220" height="280"/>
    </clipPath>
  </defs>
  <g id="Img-charactor-cat" clip-path="url(#clip-Img-charactor-cat)">
    <g id="Group_43000" data-name="Group 43000" transform="translate(15703 -8150)">
      <rect id="Rectangle_13827" data-name="Rectangle 13827" width="220" height="280" transform="translate(-15703 8150)" fill="none"/>
      <g id="Group_43001" data-name="Group 43001" transform="translate(-15668.801 8168.041)">
        <g id="Group_363" data-name="Group 363">
          <g id="Group_362" data-name="Group 362" clip-path="url(#clip-path)">
            <path id="Path_4535" data-name="Path 4535" d="M8.926,70.843c6.328,4.7,9.577,12,11.2,19.52,1.67,7.755,1.421,15.87,3.728,23.5a55.687,55.687,0,0,0,22.322,29.878,51.424,51.424,0,0,0,19.57,7.945c5.768,1.036,4.511,10.09-1.3,9.046a64.324,64.324,0,0,1-46.889-37.5c-3.045-7.07-4.246-14.494-5.089-22.095-.91-8.211-1.978-17.754-9.134-23.066-4.731-3.512.872-10.73,5.6-7.223" fill="#fff"/>
            <path id="Path_4536" data-name="Path 4536" d="M8.926,70.843c6.328,4.7,9.577,12,11.2,19.52,1.67,7.755,1.421,15.87,3.728,23.5a55.687,55.687,0,0,0,22.322,29.878,51.424,51.424,0,0,0,19.57,7.945c5.768,1.036,4.511,10.09-1.3,9.046a64.324,64.324,0,0,1-46.889-37.5c-3.045-7.07-4.246-14.494-5.089-22.095-.91-8.211-1.978-17.754-9.134-23.066C-1.4,74.554,4.2,67.336,8.926,70.843Z" fill="none" stroke="#221714" stroke-linecap="round" stroke-linejoin="round" stroke-width="1.894"/>
            <path id="Path_4537" data-name="Path 4537" d="M132.911,231.623c0,6.79-23.394,12.294-52.253,12.294s-52.252-5.5-52.252-12.294S51.8,219.329,80.658,219.329s52.253,5.5,52.253,12.294" fill="#e4eef2"/>
            <path id="Path_4538" data-name="Path 4538" d="M57.174,159.465c.035,0,.072,0,.108,0a2.663,2.663,0,0,0,2.424-2.854c-.358-9.174-2.869-55.1-17.137-58.353-9.194-2.093-26.729,2.408-40.782,56.07a2.779,2.779,0,0,0,1.748,3.385,2.518,2.518,0,0,0,3.129-1.891c9.3-35.535,22.312-55.042,34.861-52.2,7.677,1.749,12.292,32.174,13.118,53.221a2.634,2.634,0,0,0,2.531,2.625" fill="#fff000"/>
            <path id="Path_4539" data-name="Path 4539" d="M57.174,159.465c.035,0,.072,0,.108,0a2.663,2.663,0,0,0,2.424-2.854c-.358-9.174-2.869-55.1-17.137-58.353-9.194-2.093-26.729,2.408-40.782,56.07a2.779,2.779,0,0,0,1.748,3.385,2.518,2.518,0,0,0,3.129-1.891c9.3-35.535,22.312-55.042,34.861-52.2,7.677,1.749,12.292,32.174,13.118,53.221A2.634,2.634,0,0,0,57.174,159.465Z" fill="none" stroke="#221714" stroke-linecap="square" stroke-linejoin="round" stroke-width="1.894"/>
            <path id="Path_4540" data-name="Path 4540" d="M95.884,235.38H107.5a18.607,18.607,0,0,0,7.076-35.814l.192-39.7a18.6,18.6,0,0,0-18.514-18.693h-.091a18.6,18.6,0,0,0-18.6,18.514l-.276,57a18.6,18.6,0,0,0,18.6,18.693" fill="#fff"/>
            <path id="Path_4541" data-name="Path 4541" d="M95.884,235.38H107.5a18.607,18.607,0,0,0,7.076-35.814l.192-39.7a18.6,18.6,0,0,0-18.514-18.693h-.091a18.6,18.6,0,0,0-18.6,18.514l-.276,57a18.6,18.6,0,0,0,18.6,18.693Z" fill="none" stroke="#221714" stroke-linecap="round" stroke-linejoin="round" stroke-width="1.894"/>
            <path id="Path_4542" data-name="Path 4542" d="M114.572,199.566A18.607,18.607,0,0,1,107.5,235.38H95.885a18.6,18.6,0,0,1-18.6-18.693l.138-17.58h37.208Z" fill="#f4b6d1"/>
            <path id="Path_4543" data-name="Path 4543" d="M122.133,208.894a22.711,22.711,0,0,0-5.857,3.464,24.443,24.443,0,0,0-4.776,4.925c-.673.953-2.259.041-1.578-.922a26.4,26.4,0,0,1,11.725-9.229.92.92,0,0,1,1.124.638.935.935,0,0,1-.638,1.124" fill="#221714"/>
            <path id="Path_4544" data-name="Path 4544" d="M124.3,215.424a37.746,37.746,0,0,0-16.594-5.276c-1.163-.1-1.173-1.928,0-1.827a39.725,39.725,0,0,1,17.516,5.525c.992.627.076,2.209-.922,1.578" fill="#221714"/>
            <path id="Path_4545" data-name="Path 4545" d="M116.486,202.054a12.3,12.3,0,0,0-4.5,3.074A38.8,38.8,0,0,0,108.5,209.7a.937.937,0,0,1-1.25.327.921.921,0,0,1-.328-1.25,40.959,40.959,0,0,1,3.855-5.022A14.348,14.348,0,0,1,116,200.292a.92.92,0,0,1,1.124.638.935.935,0,0,1-.638,1.124" fill="#221714"/>
            <path id="Path_4546" data-name="Path 4546" d="M121.3,207.52c-4.733-2.976-10.672-3.561-16.119-4.011-1.164-.1-1.174-1.925,0-1.828,5.767.477,12.03,1.111,17.041,4.261.994.625.078,2.206-.922,1.578" fill="#221714"/>
            <path id="Path_4547" data-name="Path 4547" d="M114.572,199.566A18.607,18.607,0,0,1,107.5,235.38H95.885a18.6,18.6,0,0,1-18.6-18.693l.138-17.58h37.208Z" fill="none" stroke="#221714" stroke-linecap="round" stroke-linejoin="round" stroke-width="1.894"/>
            <path id="Path_4548" data-name="Path 4548" d="M53.706,235.38H65.317a18.607,18.607,0,0,0,7.076-35.814l.192-39.7a18.6,18.6,0,0,0-18.514-18.693H53.98a18.6,18.6,0,0,0-18.6,18.514l-.276,57a18.6,18.6,0,0,0,18.6,18.693" fill="#fff"/>
            <path id="Path_4549" data-name="Path 4549" d="M53.706,235.38H65.317a18.607,18.607,0,0,0,7.076-35.814l.192-39.7a18.6,18.6,0,0,0-18.514-18.693H53.98a18.6,18.6,0,0,0-18.6,18.514l-.276,57a18.6,18.6,0,0,0,18.6,18.693Z" fill="none" stroke="#221714" stroke-linecap="round" stroke-linejoin="round" stroke-width="1.894"/>
            <path id="Path_4550" data-name="Path 4550" d="M72.326,199.566A18.607,18.607,0,0,1,65.25,235.38H53.639a18.6,18.6,0,0,1-18.6-18.693l.138-17.58H72.381Z" fill="#f4b6d1"/>
            <path id="Path_4551" data-name="Path 4551" d="M80.6,208.894a22.717,22.717,0,0,0-5.858,3.464,24.443,24.443,0,0,0-4.776,4.925c-.672.953-2.259.041-1.578-.922a26.4,26.4,0,0,1,11.726-9.229.919.919,0,0,1,1.123.638.933.933,0,0,1-.637,1.124" fill="#221714"/>
            <path id="Path_4552" data-name="Path 4552" d="M82.769,215.424a37.746,37.746,0,0,0-16.594-5.276c-1.163-.1-1.173-1.928,0-1.827a39.725,39.725,0,0,1,17.516,5.525c.992.627.076,2.209-.922,1.578" fill="#221714"/>
            <path id="Path_4553" data-name="Path 4553" d="M74.954,202.054a12.3,12.3,0,0,0-4.5,3.074,38.8,38.8,0,0,0-3.489,4.568.937.937,0,0,1-1.25.327.921.921,0,0,1-.328-1.25,40.959,40.959,0,0,1,3.855-5.022,14.348,14.348,0,0,1,5.227-3.459.92.92,0,0,1,1.124.638.935.935,0,0,1-.638,1.124" fill="#221714"/>
            <path id="Path_4554" data-name="Path 4554" d="M79.765,207.52c-4.733-2.976-10.672-3.561-16.119-4.011-1.164-.1-1.174-1.925,0-1.828,5.767.477,12.03,1.111,17.041,4.261.994.625.078,2.206-.922,1.578" fill="#221714"/>
            <path id="Path_4555" data-name="Path 4555" d="M72.326,199.566A18.607,18.607,0,0,1,65.25,235.38H53.639a18.6,18.6,0,0,1-18.6-18.693l.138-17.58H72.381Z" fill="none" stroke="#221714" stroke-linecap="round" stroke-linejoin="round" stroke-width="1.894"/>
            <path id="Path_4556" data-name="Path 4556" d="M116.716,158.637s-37.884,35.794-84.488,0" fill="#fff"/>
            <path id="Path_4557" data-name="Path 4557" d="M116.716,158.637s-37.884,35.794-84.488,0" fill="none" stroke="#221714" stroke-linecap="round" stroke-linejoin="round" stroke-width="1.894"/>
            <path id="Path_4558" data-name="Path 4558" d="M27.326,149.466a18.031,18.031,0,0,1-12.48-31.046l17.2-16.493a18.03,18.03,0,1,1,24.955,26.031L39.8,144.451a17.969,17.969,0,0,1-12.475,5.015" fill="#fff"/>
            <path id="Path_4559" data-name="Path 4559" d="M27.326,149.466a18.031,18.031,0,0,1-12.48-31.046l17.2-16.493a18.03,18.03,0,1,1,24.955,26.031L39.8,144.451A17.969,17.969,0,0,1,27.326,149.466Z" fill="none" stroke="#221714" stroke-linecap="round" stroke-linejoin="round" stroke-width="1.894"/>
            <path id="Path_4560" data-name="Path 4560" d="M37.622,98.808H110.5L123.967,180.3H24.053Z" fill="#4db7e7"/>
          </g>
        </g>
        <g id="Group_365" data-name="Group 365">
          <g id="Group_364" data-name="Group 364" clip-path="url(#clip-path-2)">
            <path id="Path_4561" data-name="Path 4561" d="M133.577,209.006a.914.914,0,0,0,.914-.914V93.522a.914.914,0,0,0-1.828,0v114.57a.914.914,0,0,0,.914.914" fill="#fff"/>
            <path id="Path_4562" data-name="Path 4562" d="M122.634,209.006a.914.914,0,0,0,.914-.914V93.522a.914.914,0,0,0-1.828,0v114.57a.914.914,0,0,0,.914.914" fill="#fff"/>
            <path id="Path_4563" data-name="Path 4563" d="M111.693,209.006a.914.914,0,0,0,.914-.914V93.522a.914.914,0,0,0-1.828,0v114.57a.914.914,0,0,0,.914.914" fill="#fff"/>
            <path id="Path_4564" data-name="Path 4564" d="M100.75,209.006a.914.914,0,0,0,.914-.914V93.522a.914.914,0,0,0-1.828,0v114.57a.914.914,0,0,0,.914.914" fill="#fff"/>
            <path id="Path_4565" data-name="Path 4565" d="M89.808,209.006a.914.914,0,0,0,.914-.914V93.522a.914.914,0,0,0-1.828,0v114.57a.914.914,0,0,0,.914.914" fill="#fff"/>
            <path id="Path_4566" data-name="Path 4566" d="M78.865,209.006a.914.914,0,0,0,.914-.914V93.522a.914.914,0,0,0-1.828,0v114.57a.914.914,0,0,0,.914.914" fill="#fff"/>
            <path id="Path_4567" data-name="Path 4567" d="M67.924,209.006a.914.914,0,0,0,.914-.914V93.522a.914.914,0,0,0-1.828,0v114.57a.914.914,0,0,0,.914.914" fill="#fff"/>
            <path id="Path_4568" data-name="Path 4568" d="M56.981,209.006a.914.914,0,0,0,.914-.914V93.522a.914.914,0,0,0-1.828,0v114.57a.914.914,0,0,0,.914.914" fill="#fff"/>
            <path id="Path_4569" data-name="Path 4569" d="M46.04,209.006a.914.914,0,0,0,.914-.914V93.522a.914.914,0,0,0-1.828,0v114.57a.914.914,0,0,0,.914.914" fill="#fff"/>
            <path id="Path_4570" data-name="Path 4570" d="M35.1,209.006a.914.914,0,0,0,.914-.914V93.522a.914.914,0,0,0-1.828,0v114.57a.914.914,0,0,0,.914.914" fill="#fff"/>
            <path id="Path_4571" data-name="Path 4571" d="M24.156,209.006a.914.914,0,0,0,.913-.914V93.522a.914.914,0,0,0-1.828,0v114.57a.914.914,0,0,0,.915.914" fill="#fff"/>
            <path id="Path_4572" data-name="Path 4572" d="M21.58,206.431H136.15a.913.913,0,1,0,0-1.827H21.58a.913.913,0,1,0,0,1.827" fill="#fff"/>
            <path id="Path_4573" data-name="Path 4573" d="M21.58,195.49H136.15a.914.914,0,1,0,0-1.827H21.58a.914.914,0,1,0,0,1.827" fill="#fff"/>
            <path id="Path_4574" data-name="Path 4574" d="M21.58,184.547H136.15a.913.913,0,1,0,0-1.827H21.58a.913.913,0,1,0,0,1.827" fill="#fff"/>
            <path id="Path_4575" data-name="Path 4575" d="M21.58,173.6H136.15a.913.913,0,1,0,0-1.827H21.58a.913.913,0,1,0,0,1.827" fill="#fff"/>
            <path id="Path_4576" data-name="Path 4576" d="M21.58,162.664H136.15a.913.913,0,1,0,0-1.827H21.58a.913.913,0,1,0,0,1.827" fill="#fff"/>
            <path id="Path_4577" data-name="Path 4577" d="M21.58,151.721H136.15a.913.913,0,1,0,0-1.827H21.58a.913.913,0,1,0,0,1.827" fill="#fff"/>
            <path id="Path_4578" data-name="Path 4578" d="M21.58,140.78H136.15a.913.913,0,1,0,0-1.827H21.58a.913.913,0,1,0,0,1.827" fill="#fff"/>
            <path id="Path_4579" data-name="Path 4579" d="M21.58,129.837H136.15a.914.914,0,1,0,0-1.827H21.58a.914.914,0,1,0,0,1.827" fill="#fff"/>
            <path id="Path_4580" data-name="Path 4580" d="M21.58,118.895H136.15a.913.913,0,1,0,0-1.827H21.58a.913.913,0,1,0,0,1.827" fill="#fff"/>
            <path id="Path_4581" data-name="Path 4581" d="M21.58,107.952H136.15a.914.914,0,1,0,0-1.827H21.58a.914.914,0,1,0,0,1.827" fill="#fff"/>
            <path id="Path_4582" data-name="Path 4582" d="M21.58,97.011H136.15a.914.914,0,1,0,0-1.827H21.58a.914.914,0,1,0,0,1.827" fill="#fff"/>
          </g>
        </g>
        <g id="Group_367" data-name="Group 367">
          <g id="Group_366" data-name="Group 366" clip-path="url(#clip-path)">
            <path id="Path_4584" data-name="Path 4584" d="M37.622,98.808H110.5L123.967,180.3H24.053Z" fill="none" stroke="#221714" stroke-linecap="round" stroke-linejoin="round" stroke-width="1.894"/>
            <path id="Path_4585" data-name="Path 4585" d="M15.718,204.329H45.706a14.771,14.771,0,0,0,14.771-14.771V155.072H.947v34.486a14.771,14.771,0,0,0,14.771,14.771" fill="#fff000"/>
            <path id="Path_4586" data-name="Path 4586" d="M15.718,204.329H45.706a14.771,14.771,0,0,0,14.771-14.771V155.072H.947v34.486A14.771,14.771,0,0,0,15.718,204.329Z" fill="none" stroke="#221714" stroke-linecap="square" stroke-linejoin="round" stroke-width="1.894"/>
          </g>
        </g>
        <g id="Group_369" data-name="Group 369">
          <g id="Group_368" data-name="Group 368" clip-path="url(#clip-path-4)">
            <path id="Path_4587" data-name="Path 4587" d="M57.174,159.465c.035,0,.072,0,.108,0a2.663,2.663,0,0,0,2.424-2.854c-.358-9.174-2.869-55.1-17.137-58.353-9.194-2.093-26.729,2.408-40.782,56.07a2.779,2.779,0,0,0,1.748,3.385,2.518,2.518,0,0,0,3.129-1.891c9.3-35.535,22.312-55.042,34.861-52.2,7.677,1.749,12.292,32.174,13.118,53.221a2.634,2.634,0,0,0,2.531,2.625" fill="#fff000"/>
            <path id="Path_4588" data-name="Path 4588" d="M57.174,159.465c.035,0,.072,0,.108,0a2.663,2.663,0,0,0,2.424-2.854c-.358-9.174-2.869-55.1-17.137-58.353-9.194-2.093-26.729,2.408-40.782,56.07a2.779,2.779,0,0,0,1.748,3.385,2.518,2.518,0,0,0,3.129-1.891c9.3-35.535,22.312-55.042,34.861-52.2,7.677,1.749,12.292,32.174,13.118,53.221A2.634,2.634,0,0,0,57.174,159.465Z" fill="none" stroke="#221714" stroke-linecap="square" stroke-linejoin="round" stroke-width="1.894"/>
          </g>
        </g>
        <g id="Group_371" data-name="Group 371">
          <g id="Group_370" data-name="Group 370" clip-path="url(#clip-path)">
            <path id="Path_4589" data-name="Path 4589" d="M111.447,94.283s-7.853,15.529-35.72,15.529c-31.269,0-39.012-13.976-39.012-13.976" fill="#ec7463"/>
            <path id="Path_4590" data-name="Path 4590" d="M111.447,94.283s-7.853,15.529-35.72,15.529c-31.269,0-39.012-13.976-39.012-13.976" fill="none" stroke="#040000" stroke-miterlimit="10" stroke-width="1.894"/>
            <path id="Path_4591" data-name="Path 4591" d="M36.641,117l18.82,12.371a18.033,18.033,0,0,1,11.187,33.846L61.394,165.9a18.031,18.031,0,0,1-18.582-1.324L16.87,146.292a18.01,18.01,0,0,1-4.35-25.125" fill="#fff"/>
            <path id="Path_4592" data-name="Path 4592" d="M36.641,117l18.82,12.371a18.033,18.033,0,0,1,11.187,33.846L61.394,165.9a18.031,18.031,0,0,1-18.582-1.324L16.87,146.292a18.01,18.01,0,0,1-4.35-25.125" fill="none" stroke="#221714" stroke-linecap="square" stroke-linejoin="round" stroke-width="1.894"/>
            <path id="Path_4593" data-name="Path 4593" d="M78.036,15.4S107.343-3.273,115.563,2.2c6.709,4.468-5.361,40.247-5.361,40.247" fill="#fff"/>
            <path id="Path_4594" data-name="Path 4594" d="M78.036,15.4S107.343-3.273,115.563,2.2c6.709,4.468-5.361,40.247-5.361,40.247" fill="none" stroke="#221714" stroke-linecap="round" stroke-linejoin="round" stroke-width="1.894"/>
            <path id="Path_4595" data-name="Path 4595" d="M84.121,17.377S104.41,4.448,110.1,8.238c4.646,3.093-3.711,27.864-3.711,27.864" fill="#f5c1d8"/>
            <path id="Path_4596" data-name="Path 4596" d="M52.824,14.287S21.217-.156,13.832,6.4C7.8,11.754,24.707,45.521,24.707,45.521" fill="#fff"/>
            <path id="Path_4597" data-name="Path 4597" d="M52.824,14.287S21.217-.156,13.832,6.4C7.8,11.754,24.707,45.521,24.707,45.521" fill="none" stroke="#221714" stroke-linecap="round" stroke-linejoin="round" stroke-width="1.894"/>
            <path id="Path_4598" data-name="Path 4598" d="M46.208,17.5s-20.425-9.334-25.2-5.1c-3.9,3.459,7.027,25.28,7.027,25.28" fill="#f5c1d8"/>
            <path id="Path_4599" data-name="Path 4599" d="M63.019,10.794h11.11a41.677,41.677,0,0,1,18.7,4.407l11.866-.287a61.446,61.446,0,0,1-4.685,4.1,45.136,45.136,0,0,1,8.057,1.133,25.547,25.547,0,0,1-3.3,3.987A41.714,41.714,0,0,1,116,52.668V55.46a20.98,20.98,0,0,1,10.537,18.2v.991c0,14.266-15.189,25.831-25.83,25.831H50.7A29.551,29.551,0,0,1,21.145,70.932V52.669h0A41.874,41.874,0,0,1,63.019,10.794" fill="#fff"/>
            <path id="Path_4600" data-name="Path 4600" d="M63.019,11.741h9.773a43.394,43.394,0,0,1,18,3.54,5.937,5.937,0,0,0,2.772.849l3.709-.09,7.416-.179-.669-1.616q-2.249,2.161-4.685,4.1c-.694.552-.067,1.576.669,1.616a46.364,46.364,0,0,1,7.805,1.1q-.282-.695-.565-1.391a26.44,26.44,0,0,1-3.151,3.8.965.965,0,0,0,0,1.339A40.749,40.749,0,0,1,115.054,52.25c.008.8,0,1.609,0,2.413a4.945,4.945,0,0,0,0,.8c.135.781.765.976,1.383,1.375a20.132,20.132,0,0,1,9.07,14.932,23.084,23.084,0,0,1-3.931,15.17c-4.632,6.876-12.871,12.6-21.383,12.6H60.208c-4.825,0-9.992.42-14.758-.477A28.884,28.884,0,0,1,22.849,77.5c-.954-4.035-.758-8.17-.758-12.283V57.6a72.053,72.053,0,0,1,.477-11.234,40.968,40.968,0,0,1,32.139-33.78,41.586,41.586,0,0,1,8.312-.843.948.948,0,0,0,0-1.894A42.822,42.822,0,0,0,20.477,47.81c-.655,5.668-.279,11.5-.279,17.2a67.534,67.534,0,0,0,.426,11,30.516,30.516,0,0,0,30.268,25.42c4.605.008,9.211,0,13.816,0,11.965,0,23.933.078,35.9,0,8.7-.057,17.078-5.889,22.036-12.72,6.187-8.525,6.7-20.478-.062-28.865a22.326,22.326,0,0,0-6.1-5.2l.469.818a51.144,51.144,0,0,0-1.971-15.66,43.425,43.425,0,0,0-9.545-16.336V24.8a29.17,29.17,0,0,0,3.447-4.178.953.953,0,0,0-.566-1.391,49.327,49.327,0,0,0-8.309-1.166q.334.808.67,1.616,2.439-1.941,4.685-4.1a.957.957,0,0,0-.67-1.616l-6.428.155L95.05,14.2a12.859,12.859,0,0,1-1.731.042,4.568,4.568,0,0,1-1.373-.506A42.537,42.537,0,0,0,81.11,10.422a83.226,83.226,0,0,0-13.4-.575H63.019a.948.948,0,0,0,0,1.894" fill="#221714"/>
            <path id="Path_4601" data-name="Path 4601" d="M44.848,100.947s14.16,22.342-12.816,33.266c0,0-10.14-22.72,12.816-33.266" fill="#ec7463"/>
            <path id="Path_4602" data-name="Path 4602" d="M44.848,100.947s14.16,22.342-12.816,33.266C32.032,134.213,21.892,111.493,44.848,100.947Z" fill="none" stroke="#040000" stroke-linecap="round" stroke-linejoin="round" stroke-width="1.894"/>
            <path id="Path_4603" data-name="Path 4603" d="M44.61,100.462S37.247,125.868,11.2,112.89c0,0,10.308-22.644,33.413-12.428" fill="#ec7463"/>
            <path id="Path_4604" data-name="Path 4604" d="M44.61,100.462S37.247,125.868,11.2,112.89C11.2,112.89,21.5,90.246,44.61,100.462Z" fill="none" stroke="#040000" stroke-linecap="round" stroke-linejoin="round" stroke-width="1.894"/>
            <path id="Path_4605" data-name="Path 4605" d="M142.544,93.158a18.036,18.036,0,0,1-3.266,21.081l-.133,17.118a18.031,18.031,0,1,1-36.061-.219l.013-2.2.181-24.859A18.03,18.03,0,0,1,113,88.184l5.235-2.718a18.031,18.031,0,0,1,24.311,7.692" fill="#fff"/>
            <path id="Path_4606" data-name="Path 4606" d="M103.482,135.034a18.033,18.033,0,0,0,35.663-3.677l.133-17.119a18.034,18.034,0,0,0-21.045-28.773L113,88.184a18.029,18.029,0,0,0-9.72,15.891l-.194,27.062A18.074,18.074,0,0,0,103.482,135.034Z" fill="none" stroke="#221714" stroke-linecap="round" stroke-linejoin="round" stroke-width="1.894"/>
            <path id="Path_4607" data-name="Path 4607" d="M87.166,58.216A4.937,4.937,0,1,0,92.1,53.241a4.956,4.956,0,0,0-4.936,4.975" fill="#221714"/>
            <line id="Line_590" data-name="Line 590" y1="1.698" x2="3.773" transform="translate(91.931 52.426)" fill="none" stroke="#221714" stroke-linecap="round" stroke-linejoin="round" stroke-width="1.894"/>
            <line id="Line_591" data-name="Line 591" y1="1.698" x2="3.773" transform="translate(60.984 52.426)" fill="none" stroke="#221714" stroke-linecap="round" stroke-linejoin="round" stroke-width="1.894"/>
            <path id="Path_4608" data-name="Path 4608" d="M56.558,58.216a4.937,4.937,0,1,0,4.936-4.975,4.956,4.956,0,0,0-4.936,4.975" fill="#221714"/>
            <path id="Path_4609" data-name="Path 4609" d="M74.624,67.789a3.017,3.017,0,1,0,3.017-3.017,3.017,3.017,0,0,0-3.017,3.017" fill="#ec7463"/>
            <path id="Path_4610" data-name="Path 4610" d="M73.226,75.9a7.426,7.426,0,0,1-.856-.057c.1.014.028,0-.031-.006l-.188-.033c-.14-.026-.28-.057-.419-.091a8.081,8.081,0,0,1-.821-.248c-.06-.022-.119-.044-.178-.068s-.2-.083-.083-.032c-.131-.057-.26-.118-.388-.183a8.031,8.031,0,0,1-.705-.4c-.12-.077-.239-.157-.355-.241-.052-.037-.1-.074-.154-.113s-.051-.038,0,0l-.074-.06a8.4,8.4,0,0,1-1.194-1.227.952.952,0,0,0-1.339,0,.971.971,0,0,0,0,1.339A8.869,8.869,0,0,0,73.226,77.8a.947.947,0,0,0,0-1.894" fill="#221714"/>
            <path id="Path_4611" data-name="Path 4611" d="M18.539,181.867c.177.061.356.111.535.155-.127.134-.25.272-.367.42a5.968,5.968,0,0,0,9.371,7.392c.117-.148.223-.3.323-.454.084.163.175.325.276.483a5.968,5.968,0,1,0,10.055-6.43c-.1-.158-.21-.308-.323-.453.182-.027.365-.059.547-.1a5.968,5.968,0,1,0-4.312-11,5.966,5.966,0,1,0-11.705-1.632c0,.188.012.373.028.556-.167-.076-.338-.147-.516-.209a5.968,5.968,0,0,0-3.912,11.277m8.55-.415a5.949,5.949,0,0,0-2.279-1.107,5.914,5.914,0,0,0,1.622-4.676,5.935,5.935,0,0,0,5.4-.225,5.94,5.94,0,0,0,1.038,5.3,5.917,5.917,0,0,0-4.17,2.666,5.932,5.932,0,0,0-1.607-1.958" fill="#4db7e7"/>
            <path id="Path_4612" data-name="Path 4612" d="M18.539,181.867c.177.061.356.111.535.155-.127.134-.25.272-.367.42a5.968,5.968,0,0,0,9.371,7.392c.117-.148.223-.3.323-.454.084.163.175.325.276.483a5.968,5.968,0,1,0,10.055-6.43c-.1-.158-.21-.308-.323-.453.182-.027.365-.059.547-.1a5.968,5.968,0,1,0-4.312-11,5.966,5.966,0,1,0-11.705-1.632c0,.188.012.373.028.556-.167-.076-.338-.147-.516-.209a5.968,5.968,0,0,0-3.912,11.277Zm8.55-.415a5.949,5.949,0,0,0-2.279-1.107,5.914,5.914,0,0,0,1.622-4.676,5.935,5.935,0,0,0,5.4-.225,5.94,5.94,0,0,0,1.038,5.3,5.917,5.917,0,0,0-4.17,2.666A5.932,5.932,0,0,0,27.089,181.452Z" fill="none" stroke="#221714" stroke-linecap="round" stroke-linejoin="round" stroke-width="1.894"/>
            <path id="Path_4613" data-name="Path 4613" d="M24.035,179.147a4.872,4.872,0,1,0,4.872-4.872A4.872,4.872,0,0,0,24.035,179.147Z" fill="none" stroke="#221714" stroke-linecap="round" stroke-linejoin="round" stroke-width="1.894"/>
            <path id="Path_4614" data-name="Path 4614" d="M24.035,179.147a4.872,4.872,0,1,0,4.872-4.872,4.872,4.872,0,0,0-4.872,4.872" fill="#fff"/>
            <path id="Path_4615" data-name="Path 4615" d="M24.035,179.147a4.872,4.872,0,1,0,4.872-4.872A4.872,4.872,0,0,0,24.035,179.147Z" fill="none" stroke="#221714" stroke-linecap="round" stroke-linejoin="round" stroke-width="1.894"/>
            <path id="Path_4616" data-name="Path 4616" d="M31.815,18.531c.344,3.7,15.128,5.353,33.021,3.691s32.12-6.008,31.777-9.708S81.485,7.161,63.592,8.822s-32.121,6.009-31.777,9.709" fill="#ec7463"/>
            <path id="Path_4617" data-name="Path 4617" d="M31.815,18.531c.344,3.7,15.128,5.353,33.021,3.691s32.12-6.008,31.777-9.708S81.485,7.161,63.592,8.822,31.471,14.831,31.815,18.531Z" fill="none" stroke="#221714" stroke-linecap="round" stroke-linejoin="round" stroke-width="1.894"/>
            <path id="Path_4618" data-name="Path 4618" d="M50.73,6.283A21.318,21.318,0,0,1,75.765,3.958,27.091,27.091,0,0,1,85.3,13.394,113.161,113.161,0,0,1,64.362,17.12a113.135,113.135,0,0,1-21.267.193A27.081,27.081,0,0,1,50.73,6.283" fill="#ec7463"/>
            <path id="Path_4619" data-name="Path 4619" d="M50.73,6.283A21.318,21.318,0,0,1,75.765,3.958,27.091,27.091,0,0,1,85.3,13.394,113.161,113.161,0,0,1,64.362,17.12a113.135,113.135,0,0,1-21.267.193A27.081,27.081,0,0,1,50.73,6.283Z" fill="none" stroke="#221714" stroke-linecap="round" stroke-linejoin="round" stroke-width="1.894"/>
            <line id="Line_592" data-name="Line 592" x1="12.882" y1="2.591" transform="translate(36.263 64.937)" fill="none" stroke="#f5c1d8" stroke-linecap="round" stroke-linejoin="round" stroke-width="1.894"/>
            <line id="Line_593" data-name="Line 593" x1="12.63" y2="3.627" transform="translate(36.729 76.671)" fill="none" stroke="#f5c1d8" stroke-linecap="round" stroke-linejoin="round" stroke-width="1.894"/>
            <line id="Line_594" data-name="Line 594" x1="13.137" y1="0.296" transform="translate(35.284 71.935)" fill="none" stroke="#f5c1d8" stroke-linecap="round" stroke-linejoin="round" stroke-width="1.894"/>
            <line id="Line_595" data-name="Line 595" y1="2.591" x2="12.882" transform="translate(101.886 64.937)" fill="none" stroke="#f5c1d8" stroke-linecap="round" stroke-linejoin="round" stroke-width="1.894"/>
            <line id="Line_596" data-name="Line 596" x2="12.63" y2="3.627" transform="translate(101.672 76.671)" fill="none" stroke="#f5c1d8" stroke-linecap="round" stroke-linejoin="round" stroke-width="1.894"/>
            <line id="Line_597" data-name="Line 597" y1="0.296" x2="13.137" transform="translate(102.609 71.935)" fill="none" stroke="#f5c1d8" stroke-linecap="round" stroke-linejoin="round" stroke-width="1.894"/>
            <line id="Line_598" data-name="Line 598" x1="18.168" y2="6.912" transform="translate(26.442 100.462)" fill="none" stroke="#040000" stroke-linecap="round" stroke-linejoin="round" stroke-width="1.894"/>
            <line id="Line_599" data-name="Line 599" x1="6.304" y2="18.75" transform="translate(37.917 102.202)" fill="none" stroke="#040000" stroke-linecap="round" stroke-linejoin="round" stroke-width="1.894"/>
            <path id="Path_4620" data-name="Path 4620" d="M113.71,64.061a18.472,18.472,0,1,0,18.472-18.472A18.472,18.472,0,0,0,113.71,64.061" fill="#ec7463"/>
            <path id="Path_4621" data-name="Path 4621" d="M113.71,64.061a18.472,18.472,0,1,0,18.472-18.472A18.472,18.472,0,0,0,113.71,64.061Z" fill="none" stroke="#221714" stroke-linecap="round" stroke-linejoin="round" stroke-width="1.894"/>
            <path id="Path_4622" data-name="Path 4622" d="M109.412,90.318H138.2a3.822,3.822,0,1,0,0-7.644H109.412a3.822,3.822,0,1,0,0,7.644" fill="#ec7463"/>
            <path id="Path_4623" data-name="Path 4623" d="M109.412,90.318H138.2a3.822,3.822,0,1,0,0-7.644H109.412a3.822,3.822,0,1,0,0,7.644Z" fill="none" stroke="#221714" stroke-linecap="round" stroke-linejoin="round" stroke-width="1.894"/>
            <path id="Path_4624" data-name="Path 4624" d="M92.579,56.4a1.168,1.168,0,1,0,1.164-1.07,1.12,1.12,0,0,0-1.164,1.07" fill="#fff"/>
            <path id="Path_4625" data-name="Path 4625" d="M62.559,56.4a1.168,1.168,0,1,0,1.164-1.07,1.12,1.12,0,0,0-1.164,1.07" fill="#fff"/>
            <path id="Path_4626" data-name="Path 4626" d="M131.781,74.092l-7.585-7.63a6.253,6.253,0,0,1-.285-8.65,6.086,6.086,0,0,1,8.736-.109l.144.145.049-.049a6.254,6.254,0,0,1,8.648-.28,6.082,6.082,0,0,1,.108,8.733l-7.89,7.846a1.361,1.361,0,0,1-1.925-.006" fill="#fff"/>
            <path id="Path_4627" data-name="Path 4627" d="M131.781,74.092l-7.585-7.63a6.253,6.253,0,0,1-.285-8.65,6.086,6.086,0,0,1,8.736-.109l.144.145.049-.049a6.254,6.254,0,0,1,8.648-.28,6.082,6.082,0,0,1,.108,8.733l-7.89,7.846A1.361,1.361,0,0,1,131.781,74.092Z" fill="none" stroke="#221714" stroke-linecap="round" stroke-linejoin="round" stroke-width="1.894"/>
          </g>
        </g>
      </g>
    </g>
  </g>
</svg>
