<svg xmlns="http://www.w3.org/2000/svg" xmlns:xlink="http://www.w3.org/1999/xlink" width="160" height="280" viewBox="0 0 160 280">
  <defs>
    <clipPath id="clip-path">
      <rect id="Rectangle_13710" data-name="Rectangle 13710" width="149.469" height="280" fill="none"/>
    </clipPath>
    <clipPath id="clip-path-2">
      <rect id="Rectangle_13711" data-name="Rectangle 13711" width="29.544" height="82.72" transform="translate(0.749 31.631) rotate(-91.452)" fill="none"/>
    </clipPath>
    <clipPath id="clip-img-boaboly-case_6">
      <rect width="160" height="280"/>
    </clipPath>
  </defs>
  <g id="img-boaboly-case_6" data-name="img-boaboly-case – 6" clip-path="url(#clip-img-boaboly-case_6)">
    <g id="Group_43018" data-name="Group 43018" transform="translate(5.266 0)">
      <g id="Group_42845" data-name="Group 42845" transform="translate(0 0)">
        <g id="Group_42844" data-name="Group 42844" clip-path="url(#clip-path)">
          <path id="Path_5611" data-name="Path 5611" d="M248.222,18.562a4.189,4.189,0,0,0,3.636-6.067C247.481,3.766,237.08,2.454,236.641,2.4a4.19,4.19,0,0,0-1,8.319c.144.019,6.409.908,8.728,5.529a4.19,4.19,0,0,0,3.852,2.311" transform="translate(-198.312 -1.398)" fill="#ec7463"/>
          <path id="Path_5612" data-name="Path 5612" d="M246.715,18.143l.131,0a5.167,5.167,0,0,0,4.485-7.483,17.587,17.587,0,0,0-4.4-5.559A21.506,21.506,0,0,0,241.769,1.9a24.082,24.082,0,0,0-6.414-1.87h-.008A5.325,5.325,0,0,0,234.761,0a5.164,5.164,0,0,0-5.141,4.565,5.167,5.167,0,0,0,4.5,5.729c.142.02,5.909.871,7.98,5a5.167,5.167,0,0,0,4.62,2.851ZM235.127,1.976c.472.057,10.334,1.341,14.455,9.559a3.211,3.211,0,0,1-2.787,4.651h-.081a3.212,3.212,0,0,1-2.872-1.773,9.463,9.463,0,0,0-2.585-3.136,13.286,13.286,0,0,0-3.084-1.815,15.949,15.949,0,0,0-3.805-1.109h-.009a3.212,3.212,0,0,1-1.736-5.593,3.231,3.231,0,0,1,2.137-.8A3.362,3.362,0,0,1,235.127,1.976Z" transform="translate(-196.911 0)" fill="#221714"/>
          <path id="Path_5613" data-name="Path 5613" d="M60.245,151.213l116.118-2.944-6.685-53.948c-.7-27.772-24.89-49.686-54.02-48.948h0C86.527,46.112,63.483,69.224,64.187,97Z" transform="translate(-51.691 -26.687)" fill="#221714"/>
          <path id="Path_5614" data-name="Path 5614" d="M58.847,150.793h.025l116.118-2.944a.978.978,0,0,0,.946-1.1l-6.679-53.9a49.1,49.1,0,0,0-4.593-19.515,50.532,50.532,0,0,0-5.027-8.487,52.167,52.167,0,0,0-6.563-7.368,53.581,53.581,0,0,0-7.886-6.06,54.545,54.545,0,0,0-9-4.563,55.286,55.286,0,0,0-9.9-2.877,56.429,56.429,0,0,0-10.594-1c-.481,0-.968.006-1.45.018h0a56.645,56.645,0,0,0-10.791,1.314,55.377,55.377,0,0,0-10,3.238,54.612,54.612,0,0,0-9,4.952,53.662,53.662,0,0,0-7.793,6.456,52.251,52.251,0,0,0-6.371,7.751,50.594,50.594,0,0,0-4.738,8.836,49.109,49.109,0,0,0-3.724,20.029l-3.939,54.17a.978.978,0,0,0,.975,1.049Zm115.015-4.872L59.9,148.81l3.864-53.142q0-.048,0-.1a47.155,47.155,0,0,1,3.575-19.28A48.634,48.634,0,0,1,71.9,67.8a50.291,50.291,0,0,1,6.133-7.46,51.7,51.7,0,0,1,7.508-6.22,52.649,52.649,0,0,1,8.68-4.774,53.414,53.414,0,0,1,9.65-3.124,54.681,54.681,0,0,1,10.414-1.268h0c.466-.012.939-.018,1.4-.018a54.47,54.47,0,0,1,10.226.966,53.327,53.327,0,0,1,9.552,2.775,52.584,52.584,0,0,1,8.677,4.4,51.621,51.621,0,0,1,7.6,5.838A50.207,50.207,0,0,1,158.059,66a48.575,48.575,0,0,1,4.832,8.158A47.147,47.147,0,0,1,167.3,92.948q0,.048.007.1Z" transform="translate(-50.293 -25.289)" fill="#221714"/>
          <path id="Path_5615" data-name="Path 5615" d="M180.57,61.132s16.988-25.31-9.291-44.666-75.08-5.832-94.464,16.5c-15.539,17.9-10.99,37.5-.533,39.267l6.771-11.943,90.537-17.24Z" transform="translate(-63.974 -4.223)" fill="#ec7463"/>
          <path id="Path_5616" data-name="Path 5616" d="M74.885,71.814a.978.978,0,0,0,.85-.5l6.548-11.55,89.292-17,6.685,17.319a.978.978,0,0,0,1.724.193,31.179,31.179,0,0,0,2.326-4.407,39.82,39.82,0,0,0,1.79-4.892,36.362,36.362,0,0,0,1.253-6.213,30.066,30.066,0,0,0-2.03-14.927,32.261,32.261,0,0,0-4.737-7.909,43.6,43.6,0,0,0-8.126-7.65,46.463,46.463,0,0,0-15.2-7.234A65.351,65.351,0,0,0,137.781,4.8a87.734,87.734,0,0,0-18.1,1.964A98.8,98.8,0,0,0,102.2,12.207a88.161,88.161,0,0,0-15.47,8.262,61.492,61.492,0,0,0-12.047,10.46,47.083,47.083,0,0,0-6.091,8.811,37.7,37.7,0,0,0-3.323,8.633,29.863,29.863,0,0,0-.885,7.975,22.246,22.246,0,0,0,1.233,6.842c1.714,4.783,5.034,7.921,9.109,8.611A.98.98,0,0,0,74.885,71.814Zm97.309-31.139a.98.98,0,0,0-.183.017L81.473,57.932a.978.978,0,0,0-.668.478L74.386,69.732a8.539,8.539,0,0,1-3.829-2.189,11.42,11.42,0,0,1-1.76-2.2,14.782,14.782,0,0,1-1.345-2.814,20.3,20.3,0,0,1-1.119-6.241,27.912,27.912,0,0,1,.83-7.452,35.749,35.749,0,0,1,3.153-8.184,45.126,45.126,0,0,1,5.839-8.443A59.544,59.544,0,0,1,87.821,22.089a86.206,86.206,0,0,1,15.126-8.077,96.844,96.844,0,0,1,17.138-5.333,85.776,85.776,0,0,1,17.7-1.922A63.4,63.4,0,0,1,154.734,8.93,44.518,44.518,0,0,1,169.3,15.855a41.67,41.67,0,0,1,7.745,7.282,30.334,30.334,0,0,1,4.451,7.407,28.115,28.115,0,0,1,1.92,13.936,34.343,34.343,0,0,1-1.172,5.874,37.834,37.834,0,0,1-1.694,4.66c-.431.98-.847,1.813-1.2,2.471L173.105,41.3A.978.978,0,0,0,172.194,40.676Z" transform="translate(-62.576 -2.825)" fill="#221714"/>
          <path id="Path_5617" data-name="Path 5617" d="M39.625,181.835a17.713,17.713,0,1,0,17.258-18.156,17.713,17.713,0,0,0-17.258,18.156" transform="translate(58.117 -96.305)" fill="#fadbc5"/>
          <path id="Path_5618" data-name="Path 5618" d="M55.925,198.679c.16,0,.322,0,.483-.006a18.691,18.691,0,0,0-.466-37.375c-.162,0-.32,0-.482.006a18.691,18.691,0,0,0,.465,37.375Zm.017-35.426a16.735,16.735,0,0,1,.416,33.465c-.144,0-.29.005-.433.005a16.735,16.735,0,0,1-.415-33.465C55.655,163.255,55.8,163.253,55.942,163.253Z" transform="translate(59.515 -94.907)" fill="#221714"/>
          <path id="Line_661" data-name="Line 661" d="M-1.4.065h.025L17.751-.42a.978.978,0,0,0,.953-1,.978.978,0,0,0-1-.953L-1.423-1.89a.978.978,0,0,0-.953,1A.978.978,0,0,0-1.4.065Z" transform="translate(99.125 85.895)" fill="#221714"/>
          <path id="Path_5619" data-name="Path 5619" d="M80.739,157.136l6.92,26.147,2.662-26.389Z" transform="translate(25.916 -92.316)" fill="#221714"/>
          <path id="Path_5620" data-name="Path 5620" d="M310.117,186.9a17.713,17.713,0,1,1-18.156-17.258A17.713,17.713,0,0,1,310.117,186.9" transform="translate(-273.719 -99.812)" fill="#fadbc5"/>
          <path id="Path_5621" data-name="Path 5621" d="M291.022,167.257h0c-.16,0-.323,0-.483.006A18.691,18.691,0,0,0,291,204.639c.16,0,.322,0,.482-.006a18.69,18.69,0,0,0-.464-37.375ZM291,202.683a16.735,16.735,0,0,1-.416-33.465c.144,0,.289-.005.433-.005h0a16.735,16.735,0,0,1,.415,33.465C291.293,202.681,291.147,202.683,291,202.683Z" transform="translate(-272.322 -98.414)" fill="#221714"/>
          <path id="Line_662" data-name="Line 662" d="M-1.4.136h.025L20.537-.42a.978.978,0,0,0,.953-1,.978.978,0,0,0-1-.953l-21.91.556a.978.978,0,0,0-.953,1A.978.978,0,0,0-1.4.136Z" transform="translate(15.871 87.935)" fill="#221714"/>
          <path id="Path_5622" data-name="Path 5622" d="M78.472,539.19l11.729-.3a18.8,18.8,0,0,0,6.231-36.359l-.823-40.108a18.8,18.8,0,0,0-19.181-18.409l-.093,0A18.8,18.8,0,0,0,58.019,463.2L59.2,520.783A18.8,18.8,0,0,0,78.472,539.19" transform="translate(17.067 -261.256)" fill="#fadbc5"/>
          <path id="Path_5623" data-name="Path 5623" d="M76.6,538.776c.166,0,.335,0,.5-.006l11.729-.3a19.779,19.779,0,0,0,15.556-31.316A19.852,19.852,0,0,0,96,500.47l-.81-39.462a19.761,19.761,0,0,0-19.765-19.371c-.137,0-.276,0-.414,0h-.1a19.76,19.76,0,0,0-19.267,20.176l1.182,57.586A19.776,19.776,0,0,0,76.6,538.776Zm-1.173-95.184a17.805,17.805,0,0,1,17.809,17.455l.823,40.108a.978.978,0,0,0,.628.893,17.821,17.821,0,0,1-5.906,34.468l-11.729.3c-.15,0-.3.006-.452.006A17.822,17.822,0,0,1,58.78,519.365L57.6,461.779A17.8,17.8,0,0,1,74.962,443.6l.09,0C75.176,443.594,75.3,443.592,75.424,443.592Z" transform="translate(18.465 -259.858)" fill="#221714"/>
          <path id="Path_5624" data-name="Path 5624" d="M95.838,569.683a18.8,18.8,0,0,1-6.231,36.359l-11.729.3a18.8,18.8,0,0,1-19.271-18.406l-.592-28.845,37.586-.953Z" transform="translate(17.661 -328.406)" fill="#cd9c7b"/>
          <path id="Path_5625" data-name="Path 5625" d="M94.2,555.76h-.025l-37.586.953a.978.978,0,0,0-.953,1l.592,28.845A19.776,19.776,0,0,0,76,605.926c.166,0,.335,0,.5-.006l11.729-.3a19.779,19.779,0,0,0,15.556-31.316A19.852,19.852,0,0,0,95.4,567.62l-.224-10.9a.978.978,0,0,0-.978-.958Zm-36.588,2.883,35.631-.9.217,10.565a.978.978,0,0,0,.628.893,17.821,17.821,0,0,1-5.906,34.468l-11.729.3c-.15,0-.3.006-.452.006a17.822,17.822,0,0,1-17.817-17.455Z" transform="translate(19.059 -327.008)" fill="#221714"/>
          <path id="Path_5626" data-name="Path 5626" d="M181.985,541.815l11.729-.3a18.8,18.8,0,0,0,6.231-36.359l-.823-40.108a18.8,18.8,0,0,0-19.181-18.409l-.093,0a18.8,18.8,0,0,0-18.316,19.178l1.182,57.586a18.8,18.8,0,0,0,19.271,18.407" transform="translate(-129.052 -262.8)" fill="#fadbc5"/>
          <path id="Path_5627" data-name="Path 5627" d="M180.11,541.4c.167,0,.335,0,.5-.006l11.729-.3A19.779,19.779,0,0,0,207.9,509.781a19.852,19.852,0,0,0-8.386-6.686l-.81-39.462a19.761,19.761,0,0,0-19.765-19.371c-.137,0-.276,0-.414,0h-.1a19.76,19.76,0,0,0-19.267,20.176l1.182,57.586A19.776,19.776,0,0,0,180.11,541.4Zm-1.173-95.184a17.805,17.805,0,0,1,17.809,17.455l.823,40.108a.978.978,0,0,0,.628.893,17.821,17.821,0,0,1-5.906,34.468l-11.729.3c-.15,0-.3.006-.452.006a17.822,17.822,0,0,1-17.817-17.455L161.112,464.4a17.8,17.8,0,0,1,17.363-18.181l.09,0C178.689,446.219,178.814,446.217,178.937,446.217Z" transform="translate(-127.654 -261.403)" fill="#221714"/>
          <rect id="Rectangle_13708" data-name="Rectangle 13708" width="29.543" height="82.72" transform="translate(31.678 220.419) rotate(-91.452)" fill="#ec7463"/>
          <rect id="Rectangle_13709" data-name="Rectangle 13709" width="29.543" height="82.72" transform="translate(31.678 220.419) rotate(-91.452)" fill="#4db7e7"/>
        </g>
      </g>
      <g id="Group_42847" data-name="Group 42847" transform="translate(30.929 188.788)">
        <g id="Group_42846" data-name="Group 42846" transform="translate(0 0)" clip-path="url(#clip-path-2)">
          <path id="Path_5628" data-name="Path 5628" d="M11.385,480.516a1.047,1.047,0,0,0,1.02-1.073L9.076,348.162a1.047,1.047,0,1,0-2.094.053L10.311,479.5a1.047,1.047,0,0,0,1.073,1.02" transform="translate(103.261 -393.046)" fill="#fff"/>
          <path id="Path_5629" data-name="Path 5629" d="M41.849,481.289a1.047,1.047,0,0,0,1.02-1.073L39.54,348.935a1.047,1.047,0,1,0-2.094.053l3.329,131.28a1.047,1.047,0,0,0,1.073,1.02" transform="translate(60.258 -393.5)" fill="#fff"/>
          <path id="Path_5630" data-name="Path 5630" d="M72.308,482.061a1.047,1.047,0,0,0,1.02-1.073L70,349.707a1.047,1.047,0,1,0-2.094.053l3.329,131.28a1.047,1.047,0,0,0,1.073,1.02" transform="translate(17.262 -393.955)" fill="#fff"/>
          <path id="Path_5631" data-name="Path 5631" d="M102.772,482.832a1.047,1.047,0,0,0,1.021-1.073l-3.329-131.28a1.047,1.047,0,0,0-2.094.053l3.329,131.28a1.046,1.046,0,0,0,1.073,1.02" transform="translate(-25.742 -394.409)" fill="#fff"/>
          <path id="Path_5632" data-name="Path 5632" d="M133.232,483.605a1.047,1.047,0,0,0,1.02-1.073l-3.329-131.28a1.047,1.047,0,1,0-2.094.053l3.329,131.28a1.047,1.047,0,0,0,1.073,1.02" transform="translate(-68.739 -394.864)" fill="#fff"/>
          <path id="Path_5633" data-name="Path 5633" d="M163.7,484.378a1.047,1.047,0,0,0,1.02-1.073l-3.329-131.28a1.047,1.047,0,0,0-2.094.053l3.329,131.28a1.047,1.047,0,0,0,1.073,1.02" transform="translate(-111.742 -395.318)" fill="#fff"/>
          <path id="Path_5634" data-name="Path 5634" d="M194.155,485.15a1.047,1.047,0,0,0,1.02-1.073L191.846,352.8a1.047,1.047,0,1,0-2.094.053l3.329,131.28a1.047,1.047,0,0,0,1.073,1.02" transform="translate(-154.738 -395.772)" fill="#fff"/>
          <path id="Path_5635" data-name="Path 5635" d="M224.619,485.923a1.047,1.047,0,0,0,1.02-1.073l-3.329-131.28a1.047,1.047,0,1,0-2.094.053l3.329,131.28a1.047,1.047,0,0,0,1.073,1.02" transform="translate(-197.741 -396.227)" fill="#fff"/>
          <path id="Path_5636" data-name="Path 5636" d="M255.078,486.695a1.047,1.047,0,0,0,1.02-1.073l-3.329-131.28a1.047,1.047,0,0,0-2.094.053L254,485.674a1.047,1.047,0,0,0,1.073,1.02" transform="translate(-240.737 -396.681)" fill="#fff"/>
          <path id="Path_5637" data-name="Path 5637" d="M285.542,487.468a1.047,1.047,0,0,0,1.02-1.073l-3.329-131.28a1.047,1.047,0,1,0-2.094.053l3.329,131.28a1.047,1.047,0,0,0,1.073,1.02" transform="translate(-283.74 -397.136)" fill="#fff"/>
          <path id="Path_5638" data-name="Path 5638" d="M316,488.24a1.047,1.047,0,0,0,1.02-1.073l-3.329-131.28a1.047,1.047,0,1,0-2.094.053l3.329,131.28A1.046,1.046,0,0,0,316,488.24" transform="translate(-326.736 -397.59)" fill="#fff"/>
          <path id="Path_5639" data-name="Path 5639" d="M1.074,664.163l131.28-3.329a1.047,1.047,0,0,0-.053-2.094L1.021,662.069a1.047,1.047,0,0,0,.053,2.094" transform="translate(-14.835 -576.39)" fill="#fff"/>
          <path id="Path_5640" data-name="Path 5640" d="M1.846,633.7l131.28-3.329a1.047,1.047,0,0,0-.053-2.094L1.793,631.61a1.047,1.047,0,0,0,.053,2.094" transform="translate(-15.925 -558.468)" fill="#fff"/>
          <path id="Path_5641" data-name="Path 5641" d="M2.619,603.24l131.28-3.329a1.047,1.047,0,1,0-.053-2.094L2.566,601.146a1.047,1.047,0,1,0,.053,2.094" transform="translate(-17.016 -540.543)" fill="#fff"/>
          <path id="Path_5642" data-name="Path 5642" d="M3.391,572.78l131.28-3.329a1.047,1.047,0,0,0-.053-2.094L3.338,570.686a1.047,1.047,0,1,0,.053,2.094" transform="translate(-18.105 -522.62)" fill="#fff"/>
          <path id="Path_5643" data-name="Path 5643" d="M4.163,542.321l131.28-3.329a1.047,1.047,0,0,0-.053-2.094L4.11,540.227a1.047,1.047,0,1,0,.053,2.094" transform="translate(-19.195 -504.698)" fill="#fff"/>
          <path id="Path_5644" data-name="Path 5644" d="M4.936,511.857l131.28-3.329a1.047,1.047,0,1,0-.053-2.094L4.883,509.763a1.047,1.047,0,0,0,.053,2.094" transform="translate(-20.286 -486.773)" fill="#fff"/>
          <path id="Path_5645" data-name="Path 5645" d="M5.708,481.4l131.28-3.329a1.047,1.047,0,0,0-.053-2.094L5.655,479.3a1.047,1.047,0,0,0,.053,2.094" transform="translate(-21.376 -468.851)" fill="#fff"/>
          <path id="Path_5646" data-name="Path 5646" d="M6.481,450.934l131.28-3.329a1.047,1.047,0,1,0-.053-2.094L6.427,448.84a1.047,1.047,0,0,0,.053,2.094" transform="translate(-22.467 -450.926)" fill="#fff"/>
          <path id="Path_5647" data-name="Path 5647" d="M7.253,420.475l131.28-3.329a1.047,1.047,0,1,0-.053-2.094L7.2,418.381a1.047,1.047,0,1,0,.053,2.094" transform="translate(-23.557 -433.004)" fill="#fff"/>
          <path id="Path_5648" data-name="Path 5648" d="M8.025,390.011l131.28-3.329a1.047,1.047,0,0,0-.053-2.094L7.972,387.917a1.047,1.047,0,0,0,.053,2.094" transform="translate(-24.647 -415.079)" fill="#fff"/>
          <path id="Path_5649" data-name="Path 5649" d="M8.8,359.552l131.28-3.329a1.047,1.047,0,0,0-.053-2.094L8.744,357.458a1.047,1.047,0,0,0,.053,2.094" transform="translate(-25.737 -397.157)" fill="#fff"/>
        </g>
      </g>
      <g id="Group_42849" data-name="Group 42849" transform="translate(0 0)">
        <g id="Group_42848" data-name="Group 42848" clip-path="url(#clip-path)">
          <path id="Rectangle_13712" data-name="Rectangle 13712" d="M.978,84.676H30.521A.978.978,0,0,0,31.5,83.7V.978A.978.978,0,0,0,30.521,0H.978A.978.978,0,0,0,0,.978V83.7A.978.978,0,0,0,.978,84.676ZM29.543,82.72H1.956V1.956H29.543Z" transform="translate(30.725 221.421) rotate(-91.452)" fill="#221714"/>
          <path id="Path_5650" data-name="Path 5650" d="M199.517,572.313a18.8,18.8,0,0,1-6.231,36.359l-11.729.3a18.8,18.8,0,0,1-19.271-18.406l-.592-28.845,37.586-.953Z" transform="translate(-128.693 -329.953)" fill="#cd9c7b"/>
          <path id="Path_5651" data-name="Path 5651" d="M197.882,558.39h-.025l-37.586.953a.978.978,0,0,0-.953,1l.592,28.845a19.776,19.776,0,0,0,19.772,19.37c.166,0,.335,0,.5-.006l11.729-.3a19.779,19.779,0,0,0,15.556-31.316,19.852,19.852,0,0,0-8.386-6.686l-.224-10.9a.978.978,0,0,0-.978-.958Zm-36.588,2.883,35.631-.9.217,10.565a.978.978,0,0,0,.628.893,17.821,17.821,0,0,1-5.906,34.469l-11.729.3c-.15,0-.3.006-.452.006a17.822,17.822,0,0,1-17.817-17.455Z" transform="translate(-127.295 -328.555)" fill="#221714"/>
          <path id="Path_5652" data-name="Path 5652" d="M35.616,305.848,50.393,290.3a17.147,17.147,0,0,1,14.571-5.2l69.4-1.76.125.763a17.124,17.124,0,0,1,12.914,4.679l15.546,14.777L141.4,326.228l2.87,29.886-88,2.231,1.541-31.4Z" transform="translate(-28.136 -166.719)" fill="#4db7e7"/>
          <path id="Path_5653" data-name="Path 5653" d="M142.761,342.815a7.729,7.729,0,0,1,9.835-4.768c.23.079.452.172.668.27-.022-.237-.037-.477-.037-.72a7.729,7.729,0,1,1,15.157,2.114,7.726,7.726,0,1,1,5.585,14.248c-.237.056-.473.1-.709.132.146.188.288.382.419.587a7.729,7.729,0,0,1-13.022,8.328c-.131-.2-.248-.414-.357-.626-.13.2-.267.4-.417.588a7.728,7.728,0,1,1-12.136-9.573c.151-.191.31-.37.475-.543-.232-.057-.463-.122-.692-.2a7.729,7.729,0,0,1-4.768-9.835m17.922,11.834a7.666,7.666,0,0,1,5.4-3.453,7.686,7.686,0,0,1-1.345-6.863,7.686,7.686,0,0,1-6.987.29,7.666,7.666,0,0,1-2.1,6.056,7.665,7.665,0,0,1,5.033,3.97" transform="translate(-89.016 -194.094)" fill="#fff"/>
          <path id="Path_5654" data-name="Path 5654" d="M159.558,327.493a8.7,8.7,0,0,0-8.681,8.037,8.658,8.658,0,0,0-2.212-.287h0a8.707,8.707,0,0,0-3.478,16.69,8.7,8.7,0,0,0,7.225,13.557,8.787,8.787,0,0,0,3.74-.84,8.6,8.6,0,0,0,2.666-1.964,8.706,8.706,0,0,0,14.627-9.354,8.7,8.7,0,0,0,2.681-15.153,8.687,8.687,0,0,0-7.381-1.6q-.249.06-.5.135.016-.257.016-.514a8.7,8.7,0,0,0-8.706-8.706Zm-7.692,10.4a.978.978,0,0,0,.974-1.069c-.022-.233-.032-.439-.032-.629a6.751,6.751,0,1,1,13.239,1.846.978.978,0,0,0,1.419,1.12,6.748,6.748,0,1,1,4.878,12.445c-.187.044-.39.082-.62.115a.978.978,0,0,0-.634,1.568c.146.188.266.356.367.514a6.752,6.752,0,0,1-5.68,10.389,6.745,6.745,0,0,1-5.695-3.115c-.1-.16-.2-.339-.312-.548a.978.978,0,0,0-1.689-.083c-.128.2-.247.365-.364.513a6.683,6.683,0,0,1-2.4,1.919,6.819,6.819,0,0,1-2.9.652,6.751,6.751,0,0,1-5.295-10.932c.119-.151.255-.306.415-.474a.978.978,0,0,0-.474-1.624c-.228-.056-.426-.114-.607-.176a6.752,6.752,0,0,1,2.213-13.13h0a6.735,6.735,0,0,1,2.212.375c.18.062.371.14.584.237A.977.977,0,0,0,151.866,337.9Zm11.474,4.06a.976.976,0,0,0-.479.126,6.708,6.708,0,0,1-6.1.253.978.978,0,0,0-1.38.981,6.688,6.688,0,0,1-1.835,5.288.978.978,0,0,0,.475,1.625,6.688,6.688,0,0,1,4.395,3.467.978.978,0,0,0,1.691.084,6.688,6.688,0,0,1,4.715-3.016.978.978,0,0,0,.634-1.57,6.709,6.709,0,0,1-1.175-5.993.978.978,0,0,0-.941-1.246Zm-3.782,2.948a8.688,8.688,0,0,0,2.525-.376,8.688,8.688,0,0,0,.222,2.543,8.584,8.584,0,0,0,.8,2.087,8.644,8.644,0,0,0-3.732,2.387,8.639,8.639,0,0,0-3.478-2.744,8.639,8.639,0,0,0,1.452-4.186A8.592,8.592,0,0,0,159.558,344.905Z" transform="translate(-87.617 -192.696)" fill="#221714"/>
          <path id="Ellipse_66" data-name="Ellipse 66" d="M7.74,15.48A7.74,7.74,0,1,0,0,7.74,7.749,7.749,0,0,0,7.74,15.48Zm0-12.62a4.88,4.88,0,1,1-4.88,4.88A4.885,4.885,0,0,1,7.74,2.861Z" transform="translate(67.752 165.147) rotate(-112.5)" fill="#221714"/>
          <path id="Path_5655" data-name="Path 5655" d="M173.028,367.64a6.31,6.31,0,1,0,6.31-6.31,6.31,6.31,0,0,0-6.31,6.31" transform="translate(-107.397 -212.606)" fill="#fff000"/>
          <path id="Ellipse_67" data-name="Ellipse 67" d="M7.288,14.575a7.289,7.289,0,0,0,2.837-14A7.289,7.289,0,0,0,4.451,14,7.243,7.243,0,0,0,7.288,14.575Zm0-12.62a5.332,5.332,0,1,1-3.77,1.562A5.3,5.3,0,0,1,7.288,1.956Z" transform="translate(67.997 164.556) rotate(-112.5)" fill="#221714"/>
          <path id="Path_5656" data-name="Path 5656" d="M132.962,280.969h-.025l-69.325,1.758a18.45,18.45,0,0,0-2.171-.129h0a18.081,18.081,0,0,0-13.154,5.632L33.51,303.776a.978.978,0,0,0,.035,1.382l21.872,20.79L53.9,356.9a.978.978,0,0,0,1,1.025l88-2.231a.978.978,0,0,0,.948-1.071l-2.827-29.442,21.238-22.343a.978.978,0,0,0-.035-1.382l-15.546-14.777a18.066,18.066,0,0,0-12.5-4.982l-.263,0A.978.978,0,0,0,132.962,280.969Zm-69.4,3.715h.025l68.547-1.738a.978.978,0,0,0,1.01.74c.339-.021.684-.032,1.024-.032a16.118,16.118,0,0,1,11.155,4.443l14.838,14.1-20.872,21.957a.978.978,0,0,0-.265.767l2.77,28.842-85.9,2.178L57.391,325.6a.978.978,0,0,0-.3-.757L35.6,304.415l14.1-14.838a16.018,16.018,0,0,1,5.455-3.767,16.185,16.185,0,0,1,6.282-1.257,16.5,16.5,0,0,1,2.006.123A.966.966,0,0,0,63.566,284.684Z" transform="translate(-26.738 -165.321)" fill="#221714"/>
          <path id="Path_5657" data-name="Path 5657" d="M151.832,251.179a15.836,15.836,0,1,0,15.43-16.232,15.836,15.836,0,0,0-15.43,16.232" transform="translate(-96.522 -138.239)" fill="#fadbc5"/>
          <path id="Path_5658" data-name="Path 5658" d="M166.257,266.194c.144,0,.289,0,.433-.005a16.814,16.814,0,0,0-.418-33.623c-.144,0-.29,0-.434.006a16.814,16.814,0,0,0,.419,33.623Zm.015-31.673a14.858,14.858,0,0,1,.368,29.712c-.127,0-.257,0-.384,0a14.858,14.858,0,0,1-.369-29.712C166.018,234.523,166.144,234.521,166.273,234.521Z" transform="translate(-95.124 -136.841)" fill="#221714"/>
          <path id="Path_5659" data-name="Path 5659" d="M128.693,177l28.314-.718a26.8,26.8,0,0,0,26.108-27.467L183,144.253a40.958,40.958,0,0,0-81.89,2.076l.116,4.566A26.8,26.8,0,0,0,128.693,177" transform="translate(-75.266 -61.39)" fill="#fff"/>
          <path id="Path_5660" data-name="Path 5660" d="M70.491,126.685A38.648,38.648,0,0,1,108.131,88.9l10.259-.26a38.795,38.795,0,0,1,39.647,37.687l.065,2.578a19.38,19.38,0,0,1,10.156,16.56l.023.916a23.859,23.859,0,0,1-23.247,24.457L98.852,172a27.3,27.3,0,0,1-27.981-26.6l-.174-6.851-.254-10.013c-.016-.627.033-1.239.047-1.86" transform="translate(-47.815 -52.146)" fill="#fadbc5"/>
          <path id="Path_5661" data-name="Path 5661" d="M72.136,213.75a12.772,12.772,0,1,0,12.772-12.772A12.772,12.772,0,0,0,72.136,213.75" transform="translate(22.098 -118.255)" fill="#f6c6d9"/>
          <path id="Path_5662" data-name="Path 5662" d="M241.723,213.75a12.772,12.772,0,1,0,12.772-12.772,12.772,12.772,0,0,0-12.772,12.772" transform="translate(-217.291 -118.255)" fill="#f6c6d9"/>
          <path id="Path_5663" data-name="Path 5663" d="M118,86.248h0c-.34,0-.684,0-1.024.013l-10.259.26a39.944,39.944,0,0,0-7.968,1.008,39.444,39.444,0,0,0-14.026,6.325A39.77,39.77,0,0,0,70.8,111.66a39.466,39.466,0,0,0-2.122,7.5,39.945,39.945,0,0,0-.6,8.009l.428,16.865a28.145,28.145,0,0,0,5.081,15.473,28.364,28.364,0,0,0,12.363,9.94,28.068,28.068,0,0,0,10.808,2.145c.242,0,.487,0,.73-.009l46.183-1.171a24.726,24.726,0,0,0,13.775-4.593,24.907,24.907,0,0,0,8.718-11.151,24.683,24.683,0,0,0,1.706-9.715l-.023-.916a20.353,20.353,0,0,0-10.17-17.116l-.051-2.022a39.958,39.958,0,0,0-.98-7.848A39.44,39.44,0,0,0,150.5,103.2a39.783,39.783,0,0,0-17.34-13.942A39.484,39.484,0,0,0,118,86.248ZM96.759,169.638a26.189,26.189,0,0,1-14.476-4.345,26.393,26.393,0,0,1-9.561-11.266,26.164,26.164,0,0,1-2.261-10.042l-.428-16.865a37.986,37.986,0,0,1,.573-7.616,37.49,37.49,0,0,1,5.329-13.619A37.815,37.815,0,0,1,92.172,91.809a37.5,37.5,0,0,1,7.018-2.375,37.985,37.985,0,0,1,7.577-.958l10.259-.26c.324-.008.651-.013.976-.012a37.659,37.659,0,0,1,37.669,36.746l.065,2.578a.978.978,0,0,0,.511.835,18.533,18.533,0,0,1,6.859,6.443,18.306,18.306,0,0,1,2.786,9.282l.023.916a22.77,22.77,0,0,1-3.582,12.888,22.951,22.951,0,0,1-9.855,8.544,22.738,22.738,0,0,1-8.858,2.023L97.439,169.63C97.213,169.635,96.984,169.638,96.759,169.638Z" transform="translate(-46.426 -50.748)" fill="#221714"/>
          <path id="Path_5664" data-name="Path 5664" d="M135.285,192.218a4.56,4.56,0,1,0,4.56-4.6,4.577,4.577,0,0,0-4.56,4.6" transform="translate(-50.619 -110.397)" fill="#221714"/>
          <path id="Path_5665" data-name="Path 5665" d="M203.974,192.218a4.56,4.56,0,1,0,4.56-4.6,4.577,4.577,0,0,0-4.56,4.6" transform="translate(-147.581 -110.397)" fill="#221714"/>
          <path id="Path_5666" data-name="Path 5666" d="M172.454,218.106a2.787,2.787,0,1,0,2.716-2.857,2.787,2.787,0,0,0-2.716,2.857" transform="translate(-99.54 -126.651)" fill="#ec7463"/>
          <path id="Path_5667" data-name="Path 5667" d="M134.7,62.96l7.708-.2a40.513,40.513,0,0,1,41.527,39.474l.054,2.126-88.708,2.249-.054-2.126A40.513,40.513,0,0,1,134.7,62.96" transform="translate(-73.716 -36.922)" fill="#221714"/>
          <path id="Path_5668" data-name="Path 5668" d="M142.062,60.375h0c-.355,0-.716,0-1.071.014l-7.708.2a41.792,41.792,0,0,0-8.337,1.055,41.269,41.269,0,0,0-14.675,6.618A41.61,41.61,0,0,0,95.707,86.886a41.291,41.291,0,0,0-2.22,7.848,41.793,41.793,0,0,0-.631,8.38.978.978,0,0,0,.977.953h0l88.762-.124a.978.978,0,0,0,.976-1l-.054-2.126a41.806,41.806,0,0,0-1.026-8.211,41.263,41.263,0,0,0-6.43-14.495,41.622,41.622,0,0,0-18.142-14.586,41.309,41.309,0,0,0-15.859-3.148ZM94.8,102.11a39.778,39.778,0,0,1,.614-7.032A39.313,39.313,0,0,1,101,80.8a39.654,39.654,0,0,1,17.027-14.761,39.328,39.328,0,0,1,7.359-2.491,39.832,39.832,0,0,1,7.946-1l7.708-.2c.339-.009.683-.013,1.022-.013h0a39.49,39.49,0,0,1,39.5,38.534l.029,1.124Z" transform="translate(-72.319 -35.525)" fill="#221714"/>
          <path id="Line_663" data-name="Line 663" d="M-1.4-.42H5.855A.978.978,0,0,0,6.832-1.4a.978.978,0,0,0-.978-.978H-1.4a.978.978,0,0,0-.978.978A.978.978,0,0,0-1.4-.42Z" transform="translate(86.839 74.849)" fill="#221714"/>
          <path id="Line_664" data-name="Line 664" d="M-1.4-.42H5.855A.978.978,0,0,0,6.832-1.4a.978.978,0,0,0-.978-.978H-1.4a.978.978,0,0,0-.978.978A.978.978,0,0,0-1.4-.42Z" transform="translate(58.913 74.849)" fill="#221714"/>
          <path id="Path_5669" data-name="Path 5669" d="M287.1,320.3a7.067,7.067,0,0,1,.482-8.921,4.915,4.915,0,0,1,7.658.631" transform="translate(-263.379 -182.303)" fill="#fadbc5"/>
          <path id="Path_5670" data-name="Path 5670" d="M285.7,319.879a.978.978,0,0,0,.781-1.565,6.03,6.03,0,0,1-1.15-3.951,5.679,5.679,0,0,1,1.548-3.7,3.944,3.944,0,0,1,3.09-1.247,4.225,4.225,0,0,1,3.088,1.78.978.978,0,0,0,1.563-1.175,6.6,6.6,0,0,0-2.056-1.819,5.8,5.8,0,0,0-2.467-.738,5.653,5.653,0,0,0-2.442.378,6.182,6.182,0,0,0-2.172,1.45,7.631,7.631,0,0,0-2.105,4.962,7.987,7.987,0,0,0,1.54,5.231A.976.976,0,0,0,285.7,319.879Z" transform="translate(-261.981 -180.905)" fill="#221714"/>
          <path id="Path_5671" data-name="Path 5671" d="M271.085,302.259c-6.236-.482-11.75,3.884-13.856,10.325l-15.35,8a15.507,15.507,0,0,0-7.56,10.011,18.694,18.694,0,0,0,.636,11.457c2.761,7.1,9.33,10.82,15.6,9.32a12.538,12.538,0,0,0,2.878-1.081l1.552-.808,20.8-10.835c4.712-2.455,7.85-7.759,8.152-13.779l.266-5.308c.449-8.96-5.422-16.7-13.114-17.3" transform="translate(-230.948 -177.827)" fill="#fadbc5"/>
          <path id="Path_5672" data-name="Path 5672" d="M246.379,351.279h0a12.935,12.935,0,0,0,3.007-.356,13.569,13.569,0,0,0,3.1-1.165l22.353-11.644a15.509,15.509,0,0,0,6.12-5.922,18.946,18.946,0,0,0,2.557-8.676l.265-5.307a19.67,19.67,0,0,0-.819-6.733,18.113,18.113,0,0,0-2.882-5.693,15.533,15.533,0,0,0-4.538-4.072,13.411,13.411,0,0,0-5.775-1.824c-.336-.026-.677-.039-1.013-.039a13.01,13.01,0,0,0-4.544.82,14.086,14.086,0,0,0-3.974,2.286,15.989,15.989,0,0,0-3.171,3.488,17.8,17.8,0,0,0-2.029,4.06l-15,7.814a14.95,14.95,0,0,0-4.8,4,17.638,17.638,0,0,0-2.964,5.594,19.684,19.684,0,0,0,.383,13.094,16.875,16.875,0,0,0,5.618,7.527,14.24,14.24,0,0,0,3.869,2.037A13.133,13.133,0,0,0,246.379,351.279ZM268.757,301.8c.286,0,.576.011.862.033,7.156.552,12.634,7.852,12.212,16.274l-.266,5.307a16.983,16.983,0,0,1-2.287,7.778,13.558,13.558,0,0,1-5.34,5.183l-22.353,11.643a11.611,11.611,0,0,1-2.654,1,10.978,10.978,0,0,1-2.552.3h0a11.661,11.661,0,0,1-6.946-2.363,14.925,14.925,0,0,1-4.957-6.663,17.728,17.728,0,0,1-.344-11.786,15.69,15.69,0,0,1,2.634-4.977,13.006,13.006,0,0,1,4.176-3.484l15.35-8a.978.978,0,0,0,.478-.563,15.915,15.915,0,0,1,1.921-3.957,14.038,14.038,0,0,1,2.782-3.063A11.486,11.486,0,0,1,268.757,301.8Z" transform="translate(-229.558 -176.43)" fill="#221714"/>
          <path id="Path_5673" data-name="Path 5673" d="M183.188,86.06s-10.677-24.085-45.165-20.589S79.757,96.992,79.757,96.992s-1.923-27.985,44.876-44.269c44.334-15.426,64.073,25.1,58.555,33.337" transform="translate(-67.448 -28.981)" fill="#ec7463"/>
          <path id="Path_5674" data-name="Path 5674" d="M76.451,97.493a.978.978,0,0,0,.746-.345h0c.015-.017,1.508-1.769,4.225-4.4A110.9,110.9,0,0,1,93.27,82.825a99.45,99.45,0,0,1,18.219-10.549,82.824,82.824,0,0,1,11.1-3.986,73.3,73.3,0,0,1,12.225-2.323,66.072,66.072,0,0,1,6.633-.344,54.772,54.772,0,0,1,9.914.876,46.347,46.347,0,0,1,8.221,2.3,41.481,41.481,0,0,1,11.855,6.974,34.673,34.673,0,0,1,8.418,10.061.978.978,0,0,0,1.693.119c.94-1.4,1.222-3.5.815-6.062a26.547,26.547,0,0,0-2.9-8.075,41.661,41.661,0,0,0-5.8-8.2,45.876,45.876,0,0,0-8.716-7.525,45.342,45.342,0,0,0-11.559-5.512,47.841,47.841,0,0,0-14.3-2.137,55.935,55.935,0,0,0-9.433.826,67.582,67.582,0,0,0-10.27,2.641,102.3,102.3,0,0,0-14.759,6.277,73.9,73.9,0,0,0-11.034,7.079A51.745,51.745,0,0,0,80.563,79.852,41.045,41.045,0,0,0,77.5,86.344,35.757,35.757,0,0,0,76,91.625a22.747,22.747,0,0,0-.525,4.932.978.978,0,0,0,.977.937Zm65-33.826a68.033,68.033,0,0,0-6.83.354,75.263,75.263,0,0,0-12.569,2.389A84.811,84.811,0,0,0,110.67,70.5,101.454,101.454,0,0,0,92.077,81.275,112.844,112.844,0,0,0,80.025,91.38c-.958.928-1.762,1.743-2.407,2.417.075-.561.179-1.2.323-1.9a33.948,33.948,0,0,1,1.441-5,39.186,39.186,0,0,1,2.942-6.173A49.934,49.934,0,0,1,94.875,66.743a72.086,72.086,0,0,1,10.716-6.855,100.425,100.425,0,0,1,14.419-6.125,65.622,65.622,0,0,1,9.971-2.565,53.976,53.976,0,0,1,9.1-.8A45.888,45.888,0,0,1,152.8,52.448a43.387,43.387,0,0,1,11.061,5.274,43.918,43.918,0,0,1,8.344,7.2,39.706,39.706,0,0,1,5.532,7.815,24.6,24.6,0,0,1,2.7,7.461,10.181,10.181,0,0,1,.092,2.9c-.281-.44-.618-.944-1.016-1.5a38.879,38.879,0,0,0-2.761-3.412,41.845,41.845,0,0,0-4.05-3.9,43.431,43.431,0,0,0-12.412-7.3,48.306,48.306,0,0,0-8.569-2.4A56.73,56.73,0,0,0,141.45,63.668Z" transform="translate(-64.143 -28.504)" fill="#221714"/>
          <path id="Path_5675" data-name="Path 5675" d="M203.76,576.594c.643-.393,1.29-.782,1.935-1.172a28.391,28.391,0,0,0-4.121-1.337,1.31,1.31,0,0,1,.632-2.542,31.181,31.181,0,0,1,6.221,2.226c.629-.382,1.257-.766,1.89-1.143a10.259,10.259,0,0,1,3.546-1.478,1.355,1.355,0,0,1,1.633.873,1.318,1.318,0,0,1-.873,1.633,8.726,8.726,0,0,0-3.117,1.312l-.361.218c1.517.868,3.008,1.783,4.49,2.708,1.423.888.171,3.189-1.264,2.293-1.906-1.189-3.805-2.4-5.792-3.448l-.123.074q-1.532.928-3.064,1.855a7.643,7.643,0,0,0-2.325,1.881,1.316,1.316,0,0,1-1.851.047,1.342,1.342,0,0,1-.047-1.851,8.929,8.929,0,0,1,2.591-2.149" transform="translate(-149.365 -336.047)" fill="#221714"/>
          <path id="Path_5676" data-name="Path 5676" d="M102.078,574.015c.643-.393,1.29-.782,1.935-1.172a28.363,28.363,0,0,0-4.121-1.337,1.31,1.31,0,0,1,.632-2.542,31.164,31.164,0,0,1,6.221,2.226c.629-.382,1.257-.766,1.89-1.143a10.258,10.258,0,0,1,3.546-1.478,1.355,1.355,0,0,1,1.633.873,1.318,1.318,0,0,1-.873,1.633,8.724,8.724,0,0,0-3.117,1.312l-.361.218c1.517.868,3.008,1.783,4.49,2.707,1.423.888.171,3.189-1.264,2.293-1.906-1.189-3.805-2.4-5.792-3.448l-.123.074q-1.532.928-3.064,1.855a7.647,7.647,0,0,0-2.325,1.881,1.316,1.316,0,0,1-1.851.047,1.342,1.342,0,0,1-.047-1.851,8.928,8.928,0,0,1,2.591-2.149" transform="translate(-5.831 -334.529)" fill="#221714"/>
          <path id="Path_5677" data-name="Path 5677" d="M174.856,239.885a10.621,10.621,0,0,0,5.183-1.389L179,236.836l0,0a8.515,8.515,0,0,1-2.4.9,8.014,8.014,0,0,1-2.42.162,7.244,7.244,0,0,1-2.775-.834.978.978,0,0,0-.921,1.725,9.188,9.188,0,0,0,3.572,1.061Q174.454,239.885,174.856,239.885Z" transform="translate(-100.529 -139.353)" fill="#221714"/>
          <path id="Path_5678" data-name="Path 5678" d="M315.361,159.516l-.936,27-8.507-25.353Z" transform="translate(-291.809 -93.859)" fill="#221714"/>
          <path id="Path_5679" data-name="Path 5679" d="M81.138,314.767a7.114,7.114,0,0,0-.927-8.885,4.845,4.845,0,0,0-7.548,1.016" transform="translate(37.283 -179.172)" fill="#fadbc5"/>
          <path id="Path_5680" data-name="Path 5680" d="M79.738,314.346a.977.977,0,0,0,.814-.434,8.034,8.034,0,0,0,1.259-5.3,7.657,7.657,0,0,0-2.334-4.847,6.131,6.131,0,0,0-2.224-1.34,5.574,5.574,0,0,0-2.441-.257,5.732,5.732,0,0,0-2.413.863,6.568,6.568,0,0,0-1.947,1.923.978.978,0,0,0,1.626,1.087,4.17,4.17,0,0,1,2.962-1.931,3.877,3.877,0,0,1,3.108,1.087,5.706,5.706,0,0,1,1.72,3.617,6.076,6.076,0,0,1-.94,4.008.978.978,0,0,0,.812,1.521Z" transform="translate(38.681 -177.774)" fill="#221714"/>
          <path id="Path_5681" data-name="Path 5681" d="M41.906,247.807S41.528,232.662,57.5,231.2c0,0,4.658,13.532-9.3,20.59" transform="translate(73.974 -136.039)" fill="#f1975b"/>
          <path id="Path_5682" data-name="Path 5682" d="M46.8,251.373a.974.974,0,0,0,.44-.105,19.93,19.93,0,0,0,7.712-6.52,16.7,16.7,0,0,0,2.7-7.162,19.148,19.148,0,0,0-.629-8.1.978.978,0,0,0-1.014-.655,18.963,18.963,0,0,0-9.665,3.4,15.842,15.842,0,0,0-4.915,6,19.7,19.7,0,0,0-1.9,8.2.978.978,0,0,0,1.955-.047h0a14.875,14.875,0,0,1,.191-2.295,18.1,18.1,0,0,1,1.552-5.08,13.888,13.888,0,0,1,4.314-5.236,16.643,16.643,0,0,1,7.842-2.911c.087.356.187.828.274,1.391a17.91,17.91,0,0,1,.049,5.14,14.75,14.75,0,0,1-2.4,6.3,18.032,18.032,0,0,1-6.947,5.829.978.978,0,0,0,.442,1.851Z" transform="translate(75.373 -134.641)" fill="#221714"/>
          <path id="Path_5683" data-name="Path 5683" d="M96.607,275.53l-6.293-3.985-23.42,36.982a3.724,3.724,0,1,0,6.293,3.985Z" transform="translate(25.566 -159.776)" fill="#63b631"/>
          <path id="Path_5684" data-name="Path 5684" d="M88.919,269.169a.977.977,0,0,0-.827.455l-23.42,36.982a4.7,4.7,0,0,0,3.969,7.218,4.7,4.7,0,0,0,3.976-2.187l23.42-36.982a.978.978,0,0,0-.3-1.349l-6.293-3.985A.973.973,0,0,0,88.919,269.169Zm-20.278,42.7a2.747,2.747,0,0,1-2.317-4.217l22.9-36.156,4.641,2.939-22.9,36.156A2.736,2.736,0,0,1,68.641,311.869Z" transform="translate(26.962 -158.378)" fill="#221714"/>
          <path id="Path_5685" data-name="Path 5685" d="M34.783,298.391c6.148-.8,11.827,3.286,14.236,9.613l15.6,7.211a15.483,15.483,0,0,1,7.988,9.617,18.85,18.85,0,0,1-.051,11.474c-2.375,7.232-8.689,11.277-14.967,10.095a12.346,12.346,0,0,1-2.9-.935l-1.576-.729L31.97,334.966c-4.788-2.214-8.162-7.353-8.764-13.35l-.531-5.287c-.9-8.926,4.525-16.957,12.108-17.938" transform="translate(66.701 -175.514)" fill="#fadbc5"/>
          <path id="Path_5686" data-name="Path 5686" d="M58.348,346.186a12.839,12.839,0,0,0,4.36-.768,13.948,13.948,0,0,0,3.922-2.194,16.768,16.768,0,0,0,5.44-8.01,19.842,19.842,0,0,0-.282-13.092,17.68,17.68,0,0,0-3.216-5.437,14.846,14.846,0,0,0-4.958-3.755l-15.242-7.047A16.906,16.906,0,0,0,43.1,298.8a13.369,13.369,0,0,0-8.2-2.885,12.93,12.93,0,0,0-1.654.107,13.229,13.229,0,0,0-5.63,2.115,15.459,15.459,0,0,0-4.288,4.3,18.181,18.181,0,0,0-2.565,5.83,19.833,19.833,0,0,0-.471,6.763l.531,5.287a19.059,19.059,0,0,0,2.968,8.533,15.428,15.428,0,0,0,6.359,5.607l22.713,10.5a13.365,13.365,0,0,0,3.133,1.008A12.759,12.759,0,0,0,58.348,346.186ZM34.9,297.873a11.431,11.431,0,0,1,7.008,2.478,15.033,15.033,0,0,1,4.786,6.6.978.978,0,0,0,.5.54l15.6,7.211a12.9,12.9,0,0,1,4.306,3.267,15.732,15.732,0,0,1,2.858,4.839,17.886,17.886,0,0,1,.254,11.793,14.822,14.822,0,0,1-4.794,7.085,12,12,0,0,1-3.372,1.888,10.787,10.787,0,0,1-5.69.465,11.406,11.406,0,0,1-2.674-.861l-22.713-10.5a13.477,13.477,0,0,1-5.545-4.905,17.1,17.1,0,0,1-2.657-7.655l-.531-5.287c-.843-8.391,4.209-15.959,11.26-16.87A10.961,10.961,0,0,1,34.9,297.873Z" transform="translate(68.114 -174.117)" fill="#221714"/>
        </g>
      </g>
    </g>
  </g>
</svg>
