<svg xmlns="http://www.w3.org/2000/svg" xmlns:xlink="http://www.w3.org/1999/xlink" width="220" height="280" viewBox="0 0 220 280">
  <defs>
    <clipPath id="clip-path">
      <rect id="Rectangle_13704" data-name="Rectangle 13704" width="219.999" height="219.917" fill="none"/>
    </clipPath>
    <clipPath id="clip-path-2">
      <path id="Path_5503" data-name="Path 5503" d="M287.516,106.013c-12.094,5.462-23.047,15.508-30.484,26.5s-11.155,24.7-9.065,37.8l.663-.094-4.97,39.9-.117.711a55.711,55.711,0,0,0,88.891-41.139,45.124,45.124,0,0,0-.654-11.325l2.018-.287c8.079-4.613,12.865-14.083,12.643-23.384s-5.108-18.2-12.3-24.1a37.392,37.392,0,0,0-19.374-8.2,64.494,64.494,0,0,0-7.284-.424,48.161,48.161,0,0,0-19.966,4.042" transform="translate(-243.541 -101.971)" fill="none"/>
    </clipPath>
    <clipPath id="clip-path-4">
      <path id="Path_5540" data-name="Path 5540" d="M166.914,38.183a38.61,38.61,0,0,0-38.61,38.61v2.574a19.344,19.344,0,0,0-9.715,16.782v.914a23.817,23.817,0,0,0,23.816,23.817H188.52a27.248,27.248,0,0,0,27.247-27.248V76.793a38.61,38.61,0,0,0-38.61-38.61Z" transform="translate(-118.589 -38.183)" fill="none"/>
    </clipPath>
    <clipPath id="clip-Img-charactor-squirrel">
      <rect width="220" height="280"/>
    </clipPath>
  </defs>
  <g id="Img-charactor-squirrel" clip-path="url(#clip-Img-charactor-squirrel)">
    <g id="Group_43000" data-name="Group 43000" transform="translate(15703 -8150)">
      <rect id="Rectangle_13827" data-name="Rectangle 13827" width="220" height="280" transform="translate(-15703 8150)" fill="none"/>
      <ellipse id="Ellipse_81" data-name="Ellipse 81" cx="64" cy="18" rx="64" ry="18" transform="translate(-15673 8378)" fill="#e4eef2"/>
      <g id="Group_43005" data-name="Group 43005" transform="translate(-15702.999 8180.042)">
        <g id="Group_42832" data-name="Group 42832">
          <g id="Group_42831" data-name="Group 42831" clip-path="url(#clip-path)">
            <path id="Path_5499" data-name="Path 5499" d="M243.541,280.082a55.711,55.711,0,0,0,88.891-41.138c.449-7.075-.516-14.386-3.862-20.636l-77.334.228-7.578,60.835" transform="translate(-144.975 -129.954)" fill="#f1975b"/>
            <path id="Path_5500" data-name="Path 5500" d="M253.627,170.312c-2.089-13.1,1.628-26.812,9.065-37.8s18.391-21.036,30.484-26.5c8.537-3.856,17.943-4.676,27.25-3.618a37.4,37.4,0,0,1,19.374,8.2c7.191,5.9,12.078,14.8,12.3,24.1s-4.565,18.771-12.644,23.384" transform="translate(-150.636 -60.701)" fill="#f1975b"/>
          </g>
        </g>
        <g id="Group_42834" data-name="Group 42834" transform="translate(98.566 41.27)">
          <g id="Group_42833" data-name="Group 42833" clip-path="url(#clip-path-2)">
            <path id="Path_5501" data-name="Path 5501" d="M373.221,113.224c-15.855-11.883-36.079-1.233-48.528,10.522C311.407,136.291,301.9,152.97,297.02,170.52a104.48,104.48,0,0,0-3.78,30.627c.105,4.059,6.424,4.074,6.319,0a98.9,98.9,0,0,1,11.22-48.352c7.6-14.5,19.084-28.593,34.27-35.5,8.374-3.81,17.37-4.318,24.983,1.388,1.376,1.031,3.517.211,4.322-1.133a3.231,3.231,0,0,0-1.133-4.322" transform="translate(-273.105 -105.578)" fill="#d67533"/>
            <path id="Path_5502" data-name="Path 5502" d="M292.1,243.9c4.129-3.588,8.793-6.48,13.095-9.849a46.966,46.966,0,0,0,10.818-11.824c5.824-9.162,8.5-19.848,11.219-30.231,2.693-10.3,5.6-21.061,12.459-29.471,5.685-6.966,14.134-12.119,23.412-10.467,4.256.757,8.45,2.762,11.019,6.352,3.526,4.929,3.462,11.4,2.97,17.169-.345,4.051,5.975,4.028,6.319,0,.505-5.935.293-12.066-2.251-17.556a20.854,20.854,0,0,0-9.794-9.864,28.132,28.132,0,0,0-28.008,2.433c-9.348,6.386-14.948,16.535-18.535,27.022-3.92,11.459-5.607,23.7-10.679,34.766a43.891,43.891,0,0,1-10.677,14.944c-4.989,4.4-10.81,7.74-15.835,12.107-3.075,2.672,1.41,7.125,4.468,4.468" transform="translate(-269.173 -127.885)" fill="#d67533"/>
          </g>
        </g>
        <g id="Group_42836" data-name="Group 42836">
          <g id="Group_42835" data-name="Group 42835" clip-path="url(#clip-path)">
            <path id="Path_5504" data-name="Path 5504" d="M241.816,279.548a56.338,56.338,0,0,0,25.728,10.4,57.592,57.592,0,0,0,27.7-2.79,55.4,55.4,0,0,0,21.965-14.984,58.736,58.736,0,0,0,12.84-23.1c2.639-9.275,3.136-19.8-.381-28.912a32.82,32.82,0,0,0-1.631-3.581c-.527-.992-2.035-.111-1.508.882,4.564,8.59,4.674,19.089,2.542,28.4a56.422,56.422,0,0,1-11.246,22.918,53.279,53.279,0,0,1-46.918,19.806,55.543,55.543,0,0,1-25.5-8.647q-1.388-.9-2.717-1.893a.879.879,0,0,0-1.194.313.894.894,0,0,0,.313,1.194" transform="translate(-143.691 -128.666)" fill="#221714"/>
            <path id="Path_5505" data-name="Path 5505" d="M253.184,168.776a48.356,48.356,0,0,1,.684-18.062,55.794,55.794,0,0,1,6.853-16.83,75.743,75.743,0,0,1,11.194-14,74.036,74.036,0,0,1,14.117-11.112,54.329,54.329,0,0,1,8.056-4.051,45.636,45.636,0,0,1,9.465-2.555,53.644,53.644,0,0,1,9.759-.609,48.687,48.687,0,0,1,9.464,1.027,36.4,36.4,0,0,1,15.913,7.992,33.459,33.459,0,0,1,9.532,13.8,27.565,27.565,0,0,1,.906,16.114,25.713,25.713,0,0,1-8.252,13.352,21.942,21.942,0,0,1-3.145,2.178.874.874,0,0,0,.882,1.508,26.016,26.016,0,0,0,10.755-12.358,28.679,28.679,0,0,0,1.777-16.747,33.947,33.947,0,0,0-7.833-15.691,37.478,37.478,0,0,0-15.087-10.345,48.126,48.126,0,0,0-19.336-2.518,48.953,48.953,0,0,0-19.293,4.964,70.776,70.776,0,0,0-15.372,10.49,82.3,82.3,0,0,0-12.441,13.821,59.436,59.436,0,0,0-8.44,16.8,52.068,52.068,0,0,0-2.358,18.643c.1,1.559.274,3.113.518,4.656a.879.879,0,0,0,1.074.61.894.894,0,0,0,.61-1.074" transform="translate(-149.351 -59.397)" fill="#221714"/>
            <path id="Path_5506" data-name="Path 5506" d="M147.661,413.461H136.955a17.156,17.156,0,0,1-6.525-33.022l-.176-36.605a17.153,17.153,0,0,1,17.07-17.236h.085a17.152,17.152,0,0,1,17.151,17.07l.254,52.557a17.153,17.153,0,0,1-17.153,17.236" transform="translate(-71.316 -194.417)" fill="#f1975b"/>
            <path id="Path_5507" data-name="Path 5507" d="M207.3,456.97a3.37,3.37,0,0,1-3.37-3.37V422.979a3.37,3.37,0,0,1,6.739,0V453.6a3.37,3.37,0,0,1-3.37,3.37" transform="translate(-121.398 -249.784)" fill="#d67533"/>
            <path id="Path_5508" data-name="Path 5508" d="M183.318,456.97a3.37,3.37,0,0,1-3.37-3.37V422.979a3.37,3.37,0,1,1,6.739,0V453.6a3.37,3.37,0,0,1-3.37,3.37" transform="translate(-107.119 -249.784)" fill="#d67533"/>
            <path id="Path_5509" data-name="Path 5509" d="M146.377,413.05H135.671a18.028,18.028,0,0,1-14.9-28.176,18.095,18.095,0,0,1,7.5-6.292l-.174-36.028a18.012,18.012,0,0,1,17.939-18.113h.089a18.011,18.011,0,0,1,18.024,17.939l.254,52.557a18.026,18.026,0,0,1-18.026,18.113Zm-.335-86.863a16.266,16.266,0,0,0-16.2,16.359l.176,36.605a.873.873,0,0,1-.541.811,16.28,16.28,0,0,0,6.193,31.342h10.706a16.281,16.281,0,0,0,16.28-16.359l-.254-52.557a16.265,16.265,0,0,0-16.278-16.2Z" transform="translate(-70.032 -193.133)" fill="#221714"/>
            <path id="Path_5510" data-name="Path 5510" d="M130.43,459.008a17.156,17.156,0,0,0,6.525,33.022H147.66a17.153,17.153,0,0,0,17.153-17.236l-.127-16.209H130.379Z" transform="translate(-71.315 -272.986)" fill="#63b631"/>
            <path id="Path_5511" data-name="Path 5511" d="M129.095,456.428H163.4a.873.873,0,0,1,.873.866L164.4,473.5v0a18.026,18.026,0,0,1-18.026,18.113H135.67a18.028,18.028,0,0,1-14.9-28.176,18.095,18.095,0,0,1,7.461-6.275.873.873,0,0,1,.863-.74Zm33.441,1.746H129.894a.872.872,0,0,1-.416.357,16.28,16.28,0,0,0,6.192,31.342h10.706a16.281,16.281,0,0,0,16.28-16.358Z" transform="translate(-70.031 -271.702)" fill="#221714"/>
            <path id="Path_5512" data-name="Path 5512" d="M245.866,413.461H235.16a17.156,17.156,0,0,1-6.525-33.022l-.176-36.605a17.153,17.153,0,0,1,17.07-17.236h.085a17.152,17.152,0,0,1,17.151,17.07l.254,52.557a17.153,17.153,0,0,1-17.153,17.236" transform="translate(-129.775 -194.417)" fill="#f1975b"/>
            <path id="Path_5513" data-name="Path 5513" d="M307.876,456.97a3.37,3.37,0,0,1-3.37-3.37V422.979a3.37,3.37,0,1,1,6.739,0V453.6a3.37,3.37,0,0,1-3.37,3.37" transform="translate(-181.266 -249.784)" fill="#d67533"/>
            <path id="Path_5514" data-name="Path 5514" d="M283.889,456.97a3.37,3.37,0,0,1-3.37-3.37V422.979a3.37,3.37,0,1,1,6.739,0V453.6a3.37,3.37,0,0,1-3.37,3.37" transform="translate(-166.987 -249.784)" fill="#d67533"/>
            <path id="Path_5515" data-name="Path 5515" d="M244.582,413.05H233.876a18.028,18.028,0,0,1-14.9-28.176,18.1,18.1,0,0,1,7.5-6.292l-.174-36.028a18.012,18.012,0,0,1,17.939-18.113h.089a18.011,18.011,0,0,1,18.024,17.939l.254,52.557a18.026,18.026,0,0,1-18.026,18.113Zm-.335-86.863a16.266,16.266,0,0,0-16.2,16.359l.176,36.605a.873.873,0,0,1-.541.811,16.28,16.28,0,0,0,6.193,31.342h10.706a16.281,16.281,0,0,0,16.28-16.359l-.254-52.557a16.265,16.265,0,0,0-16.278-16.2Z" transform="translate(-128.491 -193.133)" fill="#221714"/>
            <path id="Path_5516" data-name="Path 5516" d="M228.789,459.008a17.156,17.156,0,0,0,6.524,33.022h10.706a17.153,17.153,0,0,0,17.153-17.236l-.127-16.209H228.738Z" transform="translate(-129.866 -272.986)" fill="#63b631"/>
            <path id="Path_5517" data-name="Path 5517" d="M227.454,456.428h34.307a.873.873,0,0,1,.873.866l.127,16.209v0a18.026,18.026,0,0,1-18.026,18.113H234.029a18.028,18.028,0,0,1-14.9-28.176,18.095,18.095,0,0,1,7.461-6.275.873.873,0,0,1,.863-.74Zm33.441,1.746H228.253a.872.872,0,0,1-.416.357,16.28,16.28,0,0,0,6.192,31.342h10.706a16.281,16.281,0,0,0,16.28-16.358Z" transform="translate(-128.582 -271.702)" fill="#221714"/>
            <path id="Path_5518" data-name="Path 5518" d="M217.1,238.862H149.9l-3.984,49.85h73.578Z" transform="translate(-86.86 -142.189)" fill="#f1975b"/>
            <path id="Path_5519" data-name="Path 5519" d="M148.616,236.7h67.2a.873.873,0,0,1,.872.831l2.4,49.85a.873.873,0,0,1-.872.915H144.631a.873.873,0,0,1-.87-.943l3.984-49.85A.873.873,0,0,1,148.616,236.7Zm66.366,1.746h-65.56l-3.845,48.1h71.717Z" transform="translate(-85.576 -140.905)" fill="#221714"/>
            <path id="Path_5520" data-name="Path 5520" d="M274.855,196.657a15.169,15.169,0,0,1,1.9-18.622l40.989-30.074a15.167,15.167,0,0,1,10.511-4.638,13.955,13.955,0,0,0,1.72-.214,15.165,15.165,0,0,1,17.43,24.75,27.131,27.131,0,0,1-11.541,5.008L298.6,199.077a15.176,15.176,0,0,1-23.744-2.419m53.609-52.483a.052.052,0,0,0-.012.009.052.052,0,0,1,.012-.009" transform="translate(-162.221 -83.849)" fill="#f1975b"/>
            <path id="Path_5521" data-name="Path 5521" d="M286.39,203.309a16.031,16.031,0,0,1-11.548-27.163.864.864,0,0,1,.112-.1l40.929-30.031a16.039,16.039,0,0,1,11.056-4.85,12.864,12.864,0,0,0,1.434-.171,15.976,15.976,0,0,1,8.26-2.3,16.1,16.1,0,0,1,6.84,1.523,16.028,16.028,0,0,1,3.193,27.033,23.768,23.768,0,0,1-5.908,3.4,33.476,33.476,0,0,1-5.826,1.744l-37.049,26.057a15.993,15.993,0,0,1-11.493,4.85Zm-10.341-25.9a14.291,14.291,0,0,0,20.636,19.776.876.876,0,0,1,.126-.108l37.266-26.209a.873.873,0,0,1,.329-.142,31.862,31.862,0,0,0,5.693-1.686,22.027,22.027,0,0,0,5.475-3.147,14.291,14.291,0,0,0-2.844-24.09,14.436,14.436,0,0,0-6.1-1.358,14.23,14.23,0,0,0-7.485,2.122.874.874,0,0,1-.295.115,14.754,14.754,0,0,1-1.847.229h-.014a14.293,14.293,0,0,0-9.906,4.371.869.869,0,0,1-.112.1Z" transform="translate(-160.936 -82.565)" fill="#221714"/>
            <path id="Path_5522" data-name="Path 5522" d="M78.1,199.478a15.164,15.164,0,0,1-21.441-.4L19.39,172.867a27.127,27.127,0,0,1-11.541-5.008,15.165,15.165,0,0,1,17.43-24.75,13.94,13.94,0,0,0,1.72.214,15.166,15.166,0,0,1,10.511,4.638L78.5,178.036a15.148,15.148,0,0,1-.4,21.443M26.8,144.184a.038.038,0,0,0-.012-.009.038.038,0,0,1,.012.009" transform="translate(-1.284 -83.849)" fill="#f1975b"/>
            <path id="Path_5523" data-name="Path 5523" d="M66.293,203.309a15.993,15.993,0,0,1-11.493-4.85L17.751,172.4a33.445,33.445,0,0,1-5.826-1.743,23.769,23.769,0,0,1-5.908-3.4,16.03,16.03,0,0,1,6.537-28.173,16.154,16.154,0,0,1,3.5-.383,15.977,15.977,0,0,1,8.26,2.3,12.974,12.974,0,0,0,1.435.172,16.04,16.04,0,0,1,11.055,4.85l40.929,30.03a.876.876,0,0,1,.112.1,16.032,16.032,0,0,1-11.548,27.164ZM16.049,140.446a14.436,14.436,0,0,0-6.1,1.358A14.209,14.209,0,0,0,7.23,143.48a14.286,14.286,0,0,0-5.4,12.839,14.242,14.242,0,0,0,5.276,9.575,22.028,22.028,0,0,0,5.475,3.148,31.842,31.842,0,0,0,5.693,1.686.873.873,0,0,1,.33.142l37.266,26.209a.873.873,0,0,1,.126.108,14.292,14.292,0,0,0,20.207.378,14.352,14.352,0,0,0,2.171-2.659,14.187,14.187,0,0,0,1.826-4.354,14.261,14.261,0,0,0-3.568-13.143L35.708,147.381a.873.873,0,0,1-.112-.1,14.294,14.294,0,0,0-9.906-4.371h-.015a14.845,14.845,0,0,1-1.846-.229.873.873,0,0,1-.295-.115A14.231,14.231,0,0,0,16.049,140.446Z" transform="translate(0.002 -82.565)" fill="#221714"/>
            <path id="Path_5524" data-name="Path 5524" d="M214.619,238.862h-67.2l-5.67,44.792h78.636Z" transform="translate(-84.381 -142.189)" fill="#f3f3f4"/>
            <path id="Path_5525" data-name="Path 5525" d="M209.668,254.135s-24.018,4.238-14.7,29.4c0,0,21.778-7.211,14.7-29.4" transform="translate(-114.783 -151.281)" fill="#fff000"/>
            <path id="Path_5526" data-name="Path 5526" d="M208.385,251.978a.873.873,0,0,1,.831.608,29.44,29.44,0,0,1,1.442,7.869,21.853,21.853,0,0,1-.741,6.584,21.356,21.356,0,0,1-5.607,9.451,27.346,27.346,0,0,1-3.6,3.025,30.711,30.711,0,0,1-3.32,2.037,24.572,24.572,0,0,1-3.426,1.531.873.873,0,0,1-1.093-.525,37.425,37.425,0,0,1-1.775-6.365,25.686,25.686,0,0,1-.412-5.484,18.353,18.353,0,0,1,2.358-8.519,18.6,18.6,0,0,1,4.422-5.147,23.992,23.992,0,0,1,4.98-3.1,25.392,25.392,0,0,1,5.791-1.952A.88.88,0,0,1,208.385,251.978ZM194.208,281.12c.574-.235,1.421-.611,2.418-1.141a27.432,27.432,0,0,0,6.49-4.765,19.61,19.61,0,0,0,5.128-8.675,20.13,20.13,0,0,0,.669-6.045,27.143,27.143,0,0,0-1.127-6.616,25.676,25.676,0,0,0-4.652,1.669,22.2,22.2,0,0,0-4.6,2.871,16.85,16.85,0,0,0-3.988,4.65C191.817,267.838,191.7,273.908,194.208,281.12Z" transform="translate(-113.499 -149.997)" fill="#040000"/>
            <path id="Path_5527" data-name="Path 5527" d="M230.866,253.793s-12.731,20.8,12.3,30.483c0,0,9.019-21.093-12.3-30.483" transform="translate(-135.502 -151.077)" fill="#fff000"/>
            <path id="Path_5528" data-name="Path 5528" d="M229.582,251.636a.87.87,0,0,1,.352.074,29.439,29.439,0,0,1,6.851,4.13,21.854,21.854,0,0,1,4.442,4.916,21.356,21.356,0,0,1,3.368,10.46,27.347,27.347,0,0,1-.119,4.7,30.7,30.7,0,0,1-.673,3.836,24.567,24.567,0,0,1-1.122,3.581.873.873,0,0,1-1.118.471,37.424,37.424,0,0,1-5.944-2.886,25.685,25.685,0,0,1-4.382-3.323,18.353,18.353,0,0,1-4.822-7.408,18.6,18.6,0,0,1-.928-6.722,23.989,23.989,0,0,1,.977-5.783,25.39,25.39,0,0,1,2.372-5.632A.873.873,0,0,1,229.582,251.636Zm11.793,30.216c.2-.585.483-1.469.746-2.567a27.431,27.431,0,0,0,.728-8.018,19.61,19.61,0,0,0-3.1-9.587,20.129,20.129,0,0,0-4.086-4.5,27.144,27.144,0,0,0-5.7-3.537,25.677,25.677,0,0,0-1.83,4.591,22.194,22.194,0,0,0-.894,5.347,16.848,16.848,0,0,0,.843,6.068C229.84,274.847,234.313,278.952,241.375,281.852Z" transform="translate(-134.218 -149.793)" fill="#040000"/>
            <path id="Path_5529" data-name="Path 5529" d="M146.137,236.7h67.2a.873.873,0,0,1,.866.762l5.767,44.792a.873.873,0,0,1-.866.984H140.466a.873.873,0,0,1-.866-.983l5.67-44.792A.873.873,0,0,1,146.137,236.7Zm66.431,1.746H146.906L141.457,281.5H218.11Z" transform="translate(-83.097 -140.905)" fill="#221714"/>
            <path id="Path_5530" data-name="Path 5530" d="M160.432,22.967A20.389,20.389,0,1,1,140.042,2.578a20.389,20.389,0,0,1,20.389,20.389" transform="translate(-71.227 -1.535)" fill="#f1975b"/>
            <path id="Path_5531" data-name="Path 5531" d="M164.4,35.359a11.965,11.965,0,1,1-11.965-11.965A11.965,11.965,0,0,1,164.4,35.359" transform="translate(-83.618 -13.926)" fill="#fadbc5"/>
            <path id="Ellipse_62" data-name="Ellipse 62" d="M21.262,0a21.268,21.268,0,0,1,8.277,40.854A21.268,21.268,0,0,1,12.986,1.671,21.13,21.13,0,0,1,21.262,0Zm0,40.779a19.522,19.522,0,0,0,7.6-37.5A19.522,19.522,0,0,0,13.666,39.246,19.393,19.393,0,0,0,21.262,40.779Z" transform="translate(41.385 33.751) rotate(-69.183)" fill="#221714"/>
            <path id="Path_5532" data-name="Path 5532" d="M321.1,22.967A20.389,20.389,0,1,1,300.71,2.578,20.389,20.389,0,0,1,321.1,22.967" transform="translate(-166.869 -1.535)" fill="#f1975b"/>
            <path id="Path_5533" data-name="Path 5533" d="M323.787,35.359a11.965,11.965,0,1,1-11.965-11.965,11.965,11.965,0,0,1,11.965,11.965" transform="translate(-178.498 -13.926)" fill="#fadbc5"/>
            <path id="Ellipse_63" data-name="Ellipse 63" d="M21.262,0a21.268,21.268,0,0,1,8.277,40.854A21.268,21.268,0,0,1,12.986,1.671,21.13,21.13,0,0,1,21.262,0Zm0,40.779a19.522,19.522,0,0,0,7.6-37.5A19.522,19.522,0,0,0,13.666,39.246,19.393,19.393,0,0,0,21.262,40.779Z" transform="translate(103.772 21.433) rotate(-45)" fill="#221714"/>
            <path id="Path_5534" data-name="Path 5534" d="M153.607,228.553s7.241,14.318,32.935,14.318c28.831,0,35.971-12.886,35.971-12.886" transform="translate(-91.439 -136.053)" fill="#fff000"/>
            <path id="Path_5535" data-name="Path 5535" d="M185.4,243.162a54.54,54.54,0,0,1-16.246-2.277,36.624,36.624,0,0,1-10.363-5.044,27.617,27.617,0,0,1-5.473-5.085,15.163,15.163,0,0,1-1.632-2.391l1.558-.788v0a14.087,14.087,0,0,0,1.5,2.162,26,26,0,0,0,5.16,4.75,34.995,34.995,0,0,0,9.857,4.757,52.886,52.886,0,0,0,15.642,2.172,71.392,71.392,0,0,0,17.567-1.986,40.633,40.633,0,0,0,10.782-4.333c5.128-3.065,6.842-6.087,6.858-6.117l1.527.846c-.078.14-1.962,3.465-7.49,6.769a42.371,42.371,0,0,1-11.245,4.526A73.127,73.127,0,0,1,185.4,243.162Z" transform="translate(-90.293 -135.471)" fill="#040000"/>
            <path id="Path_5536" data-name="Path 5536" d="M128.3,76.793v2.574a19.344,19.344,0,0,0-9.716,16.782v.914A23.817,23.817,0,0,0,142.4,120.88h46.114a27.248,27.248,0,0,0,27.248-27.248V76.793a38.61,38.61,0,0,0-38.61-38.61H166.913a38.61,38.61,0,0,0-38.61,38.61" transform="translate(-70.593 -22.73)" fill="#f1975b"/>
          </g>
        </g>
        <g id="Group_42838" data-name="Group 42838" transform="translate(47.996 15.453)">
          <g id="Group_42837" data-name="Group 42837" clip-path="url(#clip-path-4)">
            <path id="Path_5537" data-name="Path 5537" d="M215.322,53.36a3.37,3.37,0,0,1-3.37-3.37V32.613a3.37,3.37,0,1,1,6.739,0V49.991a3.37,3.37,0,0,1-3.369,3.37" transform="translate(-174.166 -32.861)" fill="#d67533"/>
            <path id="Path_5538" data-name="Path 5538" d="M239.615,53.36a3.37,3.37,0,0,1-3.37-3.37V32.613a3.37,3.37,0,1,1,6.739,0V49.991a3.37,3.37,0,0,1-3.37,3.37" transform="translate(-188.627 -32.861)" fill="#d67533"/>
            <path id="Path_5539" data-name="Path 5539" d="M263.911,53.36a3.37,3.37,0,0,1-3.37-3.37V32.613a3.37,3.37,0,1,1,6.739,0V49.991a3.37,3.37,0,0,1-3.37,3.37" transform="translate(-203.09 -32.861)" fill="#d67533"/>
          </g>
        </g>
        <g id="Group_42840" data-name="Group 42840">
          <g id="Group_42839" data-name="Group 42839" clip-path="url(#clip-path)">
            <path id="Path_5541" data-name="Path 5541" d="M165.629,36.026h10.243a39.769,39.769,0,0,1,7.956.8,39.271,39.271,0,0,1,14.12,5.941,39.6,39.6,0,0,1,14.3,17.37,39.29,39.29,0,0,1,2.3,7.412,39.769,39.769,0,0,1,.8,7.956V92.348a27.994,27.994,0,0,1-4.8,15.723,28.2,28.2,0,0,1-12.372,10.187,27.946,27.946,0,0,1-10.946,2.21H141.121a24.579,24.579,0,0,1-13.8-4.217,24.759,24.759,0,0,1-8.944-10.862,24.536,24.536,0,0,1-1.941-9.611v-.914a20.214,20.214,0,0,1,9.716-17.279V75.509a39.771,39.771,0,0,1,.8-7.956,39.271,39.271,0,0,1,5.941-14.12,39.6,39.6,0,0,1,17.37-14.3,39.29,39.29,0,0,1,7.412-2.3A39.77,39.77,0,0,1,165.629,36.026Zm21.605,82.7a26.248,26.248,0,0,0,14.746-4.5,26.454,26.454,0,0,0,9.557-11.6,26.209,26.209,0,0,0,2.072-10.266V75.509a38.023,38.023,0,0,0-.767-7.606,37.526,37.526,0,0,0-5.678-13.492,37.849,37.849,0,0,0-16.6-13.673,37.54,37.54,0,0,0-7.082-2.2,38.02,38.02,0,0,0-7.606-.767H165.629a38.02,38.02,0,0,0-7.606.767,37.525,37.525,0,0,0-13.492,5.678,37.849,37.849,0,0,0-13.673,16.6,37.543,37.543,0,0,0-2.2,7.082,38.021,38.021,0,0,0-.767,7.606v2.574a.873.873,0,0,1-.437.757,18.6,18.6,0,0,0-6.719,6.64,18.375,18.375,0,0,0-2.56,9.385v.914a22.832,22.832,0,0,0,3.918,12.828,23.013,23.013,0,0,0,10.1,8.313,22.8,22.8,0,0,0,8.93,1.8Z" transform="translate(-69.309 -21.445)" fill="#221714"/>
            <path id="Path_5542" data-name="Path 5542" d="M145.708,360.625s34.887,40.611,73.982,0Z" transform="translate(-86.737 -214.672)" fill="#fff"/>
            <path id="Path_5543" data-name="Path 5543" d="M144.424,358.468h73.982a.873.873,0,0,1,.629,1.478c-11.7,12.154-24.211,18.317-37.185,18.317a44,44,0,0,1-15.4-2.875,56.484,56.484,0,0,1-12.025-6.3,65.136,65.136,0,0,1-7.835-6.29c-1.809-1.7-2.788-2.839-2.829-2.887a.873.873,0,0,1,.662-1.442Zm71.895,1.746H146.443c.384.388.845.842,1.38,1.344a63.379,63.379,0,0,0,7.629,6.115,54.7,54.7,0,0,0,11.638,6.09,42.255,42.255,0,0,0,14.761,2.755,39.289,39.289,0,0,0,8.318-.9,43.1,43.1,0,0,0,8.818-2.972,53.758,53.758,0,0,0,9.235-5.481A72.163,72.163,0,0,0,216.319,360.214Z" transform="translate(-85.453 -213.388)" fill="#221714"/>
            <line id="Line_650" data-name="Line 650" y1="14.019" transform="translate(79.236 145.925)" fill="#fff"/>
            <path id="Line_651" data-name="Line 651" d="M-1.284,13.608a.873.873,0,0,1-.873-.873V9.243a.873.873,0,0,1,.873-.873.873.873,0,0,1,.873.873v3.492A.873.873,0,0,1-1.284,13.608Zm0-6.984a.873.873,0,0,1-.873-.873V2.259a.873.873,0,0,1,.873-.873.873.873,0,0,1,.873.873V5.751A.873.873,0,0,1-1.284,6.624Zm0-6.984a.873.873,0,0,1-.873-.873v-.051a.873.873,0,0,1,.873-.873.873.873,0,0,1,.873.873v.051A.873.873,0,0,1-1.284-.36Z" transform="translate(80.52 147.209)" fill="#221714"/>
            <line id="Line_652" data-name="Line 652" y1="15.795" transform="translate(83.661 145.925)" fill="#fff"/>
            <path id="Line_653" data-name="Line 653" d="M-1.284,15.384a.873.873,0,0,1-.873-.873v-15.8a.873.873,0,0,1,.873-.873.873.873,0,0,1,.873.873v15.8A.873.873,0,0,1-1.284,15.384Z" transform="translate(84.945 147.209)" fill="#221714"/>
            <line id="Line_654" data-name="Line 654" y1="15.795" transform="translate(108.241 145.925)" fill="#fff"/>
            <path id="Line_655" data-name="Line 655" d="M-1.284,15.384a.873.873,0,0,1-.873-.873v-15.8a.873.873,0,0,1,.873-.873.873.873,0,0,1,.873.873v15.8A.873.873,0,0,1-1.284,15.384Z" transform="translate(109.525 147.209)" fill="#221714"/>
            <line id="Line_656" data-name="Line 656" y1="14.019" transform="translate(112.668 145.925)" fill="#fff"/>
            <path id="Line_657" data-name="Line 657" d="M-1.284,13.608a.873.873,0,0,1-.873-.873V9.243a.873.873,0,0,1,.873-.873.873.873,0,0,1,.873.873v3.492A.873.873,0,0,1-1.284,13.608Zm0-6.984a.873.873,0,0,1-.873-.873V2.259a.873.873,0,0,1,.873-.873.873.873,0,0,1,.873.873V5.751A.873.873,0,0,1-1.284,6.624Zm0-6.984a.873.873,0,0,1-.873-.873v-.051a.873.873,0,0,1,.873-.873.873.873,0,0,1,.873.873v.051A.873.873,0,0,1-1.284-.36Z" transform="translate(113.952 147.209)" fill="#221714"/>
            <path id="Line_658" data-name="Line 658" d="M4.943,11.683a.873.873,0,0,1-.777-.474L-2.06-.885A.873.873,0,0,1-1.684-2.06a.873.873,0,0,1,1.176.377L5.719,10.41a.873.873,0,0,1-.775,1.273Z" transform="translate(98.067 108.102)" fill="#040000"/>
            <path id="Line_659" data-name="Line 659" d="M-1.285,12.524a.869.869,0,0,1-.394-.094.873.873,0,0,1-.384-1.173L4.489-1.679a.873.873,0,0,1,1.173-.384A.873.873,0,0,1,6.046-.89L-.506,12.045A.873.873,0,0,1-1.285,12.524Z" transform="translate(87.168 108.598)" fill="#040000"/>
            <path id="Path_5544" data-name="Path 5544" d="M229.719,448.677c-1.982-3.545-5.284-8.141-10.044-6.6-3.937,1.271-4.891,7.808-.73,9.5,2.163.88,5.1.051,7.211-.63,2.491-.8,4.788-2.128,7.323-2.8a7.308,7.308,0,0,1,6.035.667,3.892,3.892,0,0,1,.385,6.034,5.458,5.458,0,0,1-5.993.132c-2.4-1.436-3.782-4.057-4.9-6.527-.556-1.234-2.371-.164-1.818,1.063,1.731,3.842,4.444,7.95,9.033,8.356,4.1.363,7.731-2.734,6.924-7.026-.812-4.319-5.6-5.683-9.411-4.923-2.5.5-4.753,1.747-7.119,2.636a21.318,21.318,0,0,1-3.641,1.021c-1.435.264-3.362.659-4.205-.882a3.141,3.141,0,0,1,3.47-4.677c2.843.576,4.362,3.408,5.657,5.725.661,1.183,2.481.122,1.818-1.063" transform="translate(-128.723 -262.975)" fill="#fff000"/>
            <path id="Path_5545" data-name="Path 5545" d="M234.477,458.9a1.282,1.282,0,0,0-1.6-.916,2.616,2.616,0,0,0-1.366,1.053c-.809.976-1.575,1.992-2.284,3.043a37.577,37.577,0,0,0-3.56,6.707,1.06,1.06,0,0,0,.735,1.3,1.08,1.08,0,0,0,1.3-.736,34.791,34.791,0,0,1,2.643-5.118q.753-1.208,1.6-2.354.407-.551.84-1.083.245-.3.5-.6c.053-.063.142-.189.142-.182a.1.1,0,0,1-.054.021.651.651,0,0,1-.5-.088l-.378-.378-.045-.108a1.053,1.053,0,1,0,2.031-.56" transform="translate(-134.304 -272.602)" fill="#fff000"/>
            <path id="Path_5546" data-name="Path 5546" d="M241.813,460.683a115.032,115.032,0,0,1,.722,11.534,1.054,1.054,0,0,0,2.106,0,115.023,115.023,0,0,0-.722-11.534,1.085,1.085,0,0,0-1.053-1.053,1.06,1.06,0,0,0-1.053,1.053" transform="translate(-143.943 -273.608)" fill="#fff000"/>
            <path id="Path_5547" data-name="Path 5547" d="M218.97,439.2c3.317,0,5.8,2.978,7.517,5.779a23.615,23.615,0,0,1,4.683-1.63,10.467,10.467,0,0,1,2.04-.2c3.307,0,6.7,1.551,7.371,5.123.765,4.063-2.453,7.055-6.273,7.055q-.323,0-.651-.029c-3.286-.291-5.6-2.489-7.289-5.119.263,2.939.449,5.885.485,8.836a.981.981,0,0,1-1.039,1.017,1.012,1.012,0,0,1-1.067-1.017c-.04-3.284-.251-6.56-.572-9.827-.126.163-.256.322-.378.488q-.846,1.145-1.6,2.354a34.752,34.752,0,0,0-2.643,5.118,1.129,1.129,0,0,1-1.01.775,1.061,1.061,0,0,1-1.021-1.335,37.548,37.548,0,0,1,3.56-6.707c.229-.34.5-.652.738-.984a13.21,13.21,0,0,1-3.264.489,5.779,5.779,0,0,1-2.181-.381c-4.161-1.693-3.206-8.23.731-9.5a6.038,6.038,0,0,1,1.863-.3m-.542,8.056a11.226,11.226,0,0,0,1.982-.249,21.329,21.329,0,0,0,3.641-1.021c.164-.062.325-.134.489-.2-1.147-1.944-2.573-3.874-4.865-4.338a3.764,3.764,0,0,0-.748-.077,3.116,3.116,0,0,0-2.722,4.753,2.306,2.306,0,0,0,2.223,1.131m15.959,5.981a4.656,4.656,0,0,0,2.944-.962,3.893,3.893,0,0,0-.385-6.034,6.075,6.075,0,0,0-3.532-1.011,9.816,9.816,0,0,0-2.5.344,26.937,26.937,0,0,0-3.669,1.35,1.03,1.03,0,0,1-.164.294,11.915,11.915,0,0,0,4.26,5.189,6.053,6.053,0,0,0,3.049.83M218.97,437.454h0a7.811,7.811,0,0,0-2.4.389,7.064,7.064,0,0,0-4.639,6.591,6.2,6.2,0,0,0,3.786,6.189,7.336,7.336,0,0,0,2.534.5,41.139,41.139,0,0,0-2.343,4.8,2.562,2.562,0,0,0,.091,2.131,2.9,2.9,0,0,0,1.8,1.514,2.784,2.784,0,0,0,3.372-1.753,32.074,32.074,0,0,1,1.667-3.433c.093,1.6.148,3.146.167,4.656a2.74,2.74,0,0,0,2.813,2.742,2.839,2.839,0,0,0,2.013-.821,2.717,2.717,0,0,0,.772-1.963c-.015-1.25-.058-2.547-.128-3.908a9.751,9.751,0,0,0,5.031,1.951c.267.023.538.036.805.036a8.3,8.3,0,0,0,6.447-2.914,7.406,7.406,0,0,0,1.542-6.21c-.748-3.976-4.315-6.546-9.087-6.546a12.176,12.176,0,0,0-2.382.233,20.239,20.239,0,0,0-3.676,1.165c-2.495-3.6-5.181-5.348-8.183-5.348m-.542,8.055c-.569,0-.642-.133-.69-.222a1.481,1.481,0,0,1-.056-1.505,1.4,1.4,0,0,1,1.246-.664,2.012,2.012,0,0,1,.4.042,4.444,4.444,0,0,1,2.5,1.722c-.582.166-1.162.3-1.735.408l-.1.019a9.225,9.225,0,0,1-1.566.2m11.011,2.393a18.254,18.254,0,0,1,1.922-.643,8,8,0,0,1,2.054-.284,4.324,4.324,0,0,1,2.529.694,2.279,2.279,0,0,1,.9,1.778,1.777,1.777,0,0,1-.608,1.467,2.953,2.953,0,0,1-1.849.576,4.317,4.317,0,0,1-2.154-.583,8.347,8.347,0,0,1-2.793-3" transform="translate(-126.155 -260.407)" fill="#221714"/>
            <path id="Path_5548" data-name="Path 5548" d="M130.956,448.677c-1.982-3.545-5.284-8.141-10.044-6.6-3.937,1.271-4.891,7.808-.73,9.5,2.163.88,5.1.051,7.211-.63,2.491-.8,4.788-2.128,7.323-2.8a7.308,7.308,0,0,1,6.035.667,3.892,3.892,0,0,1,.385,6.034,5.458,5.458,0,0,1-5.993.132c-2.4-1.436-3.782-4.057-4.9-6.527-.556-1.234-2.371-.164-1.818,1.063,1.731,3.842,4.444,7.95,9.033,8.356,4.1.363,7.731-2.734,6.924-7.026-.812-4.319-5.6-5.683-9.411-4.923-2.5.5-4.753,1.747-7.119,2.636a21.318,21.318,0,0,1-3.641,1.021c-1.435.264-3.362.659-4.205-.882a3.141,3.141,0,0,1,3.47-4.677c2.843.576,4.362,3.408,5.657,5.725.661,1.183,2.481.122,1.818-1.063" transform="translate(-69.932 -262.975)" fill="#fff000"/>
            <path id="Path_5549" data-name="Path 5549" d="M135.713,458.9a1.282,1.282,0,0,0-1.6-.916,2.616,2.616,0,0,0-1.366,1.053c-.809.976-1.575,1.992-2.284,3.043a37.574,37.574,0,0,0-3.56,6.707,1.06,1.06,0,0,0,.735,1.3,1.08,1.08,0,0,0,1.3-.736,34.791,34.791,0,0,1,2.643-5.118q.753-1.208,1.6-2.354.407-.551.84-1.083.245-.3.5-.6c.053-.063.142-.189.142-.182a.1.1,0,0,1-.054.021.651.651,0,0,1-.5-.088l-.378-.378-.045-.108a1.053,1.053,0,1,0,2.031-.56" transform="translate(-75.512 -272.602)" fill="#fff000"/>
            <path id="Path_5550" data-name="Path 5550" d="M143.05,460.683a115.027,115.027,0,0,1,.722,11.534,1.054,1.054,0,0,0,2.106,0,115.036,115.036,0,0,0-.722-11.534,1.085,1.085,0,0,0-1.053-1.053,1.06,1.06,0,0,0-1.053,1.053" transform="translate(-85.152 -273.608)" fill="#fff000"/>
            <path id="Path_5551" data-name="Path 5551" d="M120.207,439.2c3.317,0,5.8,2.978,7.517,5.779a23.616,23.616,0,0,1,4.683-1.63,10.467,10.467,0,0,1,2.04-.2c3.307,0,6.7,1.551,7.371,5.123.765,4.063-2.453,7.055-6.273,7.055q-.323,0-.651-.029c-3.286-.291-5.6-2.489-7.289-5.119.263,2.939.449,5.885.485,8.836a.981.981,0,0,1-1.039,1.017,1.012,1.012,0,0,1-1.067-1.017c-.04-3.284-.251-6.56-.572-9.827-.126.163-.256.322-.378.488q-.846,1.145-1.6,2.354a34.75,34.75,0,0,0-2.643,5.118,1.129,1.129,0,0,1-1.01.775,1.061,1.061,0,0,1-1.021-1.335,37.549,37.549,0,0,1,3.56-6.707c.229-.34.5-.652.738-.984a13.21,13.21,0,0,1-3.264.489,5.779,5.779,0,0,1-2.181-.381c-4.161-1.693-3.206-8.23.731-9.5a6.038,6.038,0,0,1,1.863-.3m-.542,8.056a11.226,11.226,0,0,0,1.982-.249,21.328,21.328,0,0,0,3.641-1.021c.164-.062.325-.134.489-.2-1.147-1.944-2.573-3.874-4.865-4.338a3.764,3.764,0,0,0-.748-.077,3.116,3.116,0,0,0-2.722,4.753,2.306,2.306,0,0,0,2.223,1.131m15.959,5.981a4.656,4.656,0,0,0,2.944-.962,3.893,3.893,0,0,0-.385-6.034,6.075,6.075,0,0,0-3.532-1.011,9.816,9.816,0,0,0-2.5.344,26.937,26.937,0,0,0-3.669,1.35,1.031,1.031,0,0,1-.164.294,11.915,11.915,0,0,0,4.26,5.189,6.053,6.053,0,0,0,3.049.83m-15.417-15.783h0a7.811,7.811,0,0,0-2.4.389,7.064,7.064,0,0,0-4.639,6.591,6.2,6.2,0,0,0,3.786,6.189,7.336,7.336,0,0,0,2.534.5,41.139,41.139,0,0,0-2.343,4.8,2.563,2.563,0,0,0,.091,2.131,2.9,2.9,0,0,0,1.8,1.514,2.784,2.784,0,0,0,3.372-1.753,32.074,32.074,0,0,1,1.667-3.433c.093,1.6.148,3.146.167,4.656a2.74,2.74,0,0,0,2.813,2.742,2.839,2.839,0,0,0,2.013-.821,2.717,2.717,0,0,0,.772-1.963c-.015-1.25-.058-2.547-.128-3.908a9.751,9.751,0,0,0,5.031,1.951c.267.023.538.036.805.036a8.3,8.3,0,0,0,6.447-2.914,7.406,7.406,0,0,0,1.542-6.21c-.748-3.976-4.315-6.546-9.087-6.546a12.176,12.176,0,0,0-2.382.233,20.238,20.238,0,0,0-3.676,1.165c-2.495-3.6-5.181-5.348-8.183-5.348m-.542,8.055c-.569,0-.642-.133-.69-.222a1.481,1.481,0,0,1-.056-1.505,1.4,1.4,0,0,1,1.246-.664,2.012,2.012,0,0,1,.4.042,4.444,4.444,0,0,1,2.5,1.722c-.582.166-1.162.3-1.735.408l-.1.019a9.225,9.225,0,0,1-1.566.2m11.011,2.393a18.255,18.255,0,0,1,1.922-.643,8,8,0,0,1,2.054-.284,4.324,4.324,0,0,1,2.529.694,2.278,2.278,0,0,1,.9,1.778,1.777,1.777,0,0,1-.608,1.467,2.953,2.953,0,0,1-1.849.576,4.317,4.317,0,0,1-2.154-.583,8.346,8.346,0,0,1-2.793-3" transform="translate(-67.364 -260.407)" fill="#221714"/>
            <path id="Path_5552" data-name="Path 5552" d="M180.445,26.789c-3.707-.476-4.948-.747-7.847-1.079-2.556-.293-6.5-.2-6.738-2.762-.217-2.313,2.044-4.009,4.035-5.206,11.378-6.838,23.21-13.835,36.4-15.347a18.577,18.577,0,0,1,9,.749,18.752,18.752,0,0,1,6.017,4.3,49.493,49.493,0,0,1,8.975,12.079,6.075,6.075,0,0,1,.971,4.129c-.543,2.24-3.162,3.175-5.409,3.688-14.408,3.287-30.694.882-45.4-.554" transform="translate(-98.724 -1.299)" fill="#63b631"/>
            <path id="Path_5553" data-name="Path 5553" d="M179.172,24.618c-1.983-.255-3.957-.573-5.939-.841-1.784-.24-3.618-.284-5.385-.623a4.358,4.358,0,0,1-1.96-.745,1.226,1.226,0,0,1-.383-.578,2.247,2.247,0,0,1,.045-1.186,4.874,4.874,0,0,1,1.71-2.217,22.644,22.644,0,0,1,2.88-1.878c8.682-5.208,17.583-10.424,27.422-13.111a49.842,49.842,0,0,1,7.457-1.47,19.693,19.693,0,0,1,7.564.31A15.289,15.289,0,0,1,218.8,6.163a47.5,47.5,0,0,1,4.954,5.485,48.784,48.784,0,0,1,4.171,6.394,7.834,7.834,0,0,1,1.283,3.432,2.753,2.753,0,0,1-1.16,2.251c-1.6,1.236-3.888,1.553-5.815,1.916a66.344,66.344,0,0,1-7.7.965c-10.541.733-21.1-.519-31.57-1.606q-1.892-.2-3.784-.383a.879.879,0,0,0-.873.873.892.892,0,0,0,.873.873c11.072,1.083,22.181,2.612,33.332,2.105a76.34,76.34,0,0,0,8.232-.807,26.139,26.139,0,0,0,7.023-1.75,6.127,6.127,0,0,0,2.379-1.861,4.454,4.454,0,0,0,.709-3.515,12.638,12.638,0,0,0-1.589-3.688q-.994-1.785-2.133-3.485a50.963,50.963,0,0,0-4.985-6.3,27.148,27.148,0,0,0-5.977-5.133C211.375-.868,205.477-.1,200.295.984c-10.567,2.211-20.153,7.57-29.337,13.042-2.04,1.215-4.443,2.344-5.99,4.2-1.259,1.513-1.952,4-.241,5.478,1.413,1.22,3.543,1.3,5.31,1.456,1.862.161,3.707.434,5.555.707q1.787.264,3.579.494a.878.878,0,0,0,.873-.873.9.9,0,0,0-.873-.873" transform="translate(-97.451 0)" fill="#221714"/>
            <path id="Path_5554" data-name="Path 5554" d="M195.537,135.4a4.552,4.552,0,1,1-4.552-4.587,4.569,4.569,0,0,1,4.552,4.587" transform="translate(-110.98 -77.869)" fill="#221714"/>
            <path id="Path_5555" data-name="Path 5555" d="M265.267,135.4a4.552,4.552,0,1,1-4.551-4.587,4.569,4.569,0,0,1,4.551,4.587" transform="translate(-152.489 -77.869)" fill="#221714"/>
            <path id="Path_5556" data-name="Path 5556" d="M229.315,159.86a2.782,2.782,0,1,1-2.782-2.782,2.782,2.782,0,0,1,2.782,2.782" transform="translate(-133.194 -93.505)" fill="#ec7463"/>
            <path id="Path_5557" data-name="Path 5557" d="M203.045,179.451c-.031.344-.053.692-.053,1.045a11.491,11.491,0,1,0,22.982,0c0-.353-.021-.7-.053-1.045Z" transform="translate(-120.837 -106.823)" fill="#f4b6d1"/>
            <path id="Path_5558" data-name="Path 5558" d="M203.045,179.451c-.031.344-.053.692-.053,1.045a11.491,11.491,0,1,0,22.982,0c0-.353-.021-.7-.053-1.045Z" transform="translate(-120.837 -106.823)" fill="#ec7463"/>
            <path id="Path_5559" data-name="Path 5559" d="M201.761,177.294h22.877a.873.873,0,0,1,.869.794c.038.424.056.78.056,1.123a12.364,12.364,0,1,1-24.728,0c0-.343.018-.7.056-1.123A.873.873,0,0,1,201.761,177.294Zm22.055,1.746H202.583c0,.058,0,.115,0,.172a10.618,10.618,0,1,0,21.236,0C223.817,179.155,223.817,179.1,223.815,179.04Z" transform="translate(-119.553 -105.539)" fill="#221714"/>
            <path id="Path_5560" data-name="Path 5560" d="M221.848,180.394a3.719,3.719,0,1,0,7.419,0,4.274,4.274,0,0,0-.108-.943h-7.2a4.274,4.274,0,0,0-.108.943" transform="translate(-132.061 -106.823)" fill="#fff"/>
            <path id="Path_5561" data-name="Path 5561" d="M220.672,177.294h7.2a.873.873,0,0,1,.852.681,5.171,5.171,0,0,1,.13,1.136,5,5,0,0,1-1.32,3.419,4.4,4.4,0,0,1-6.525,0,5,5,0,0,1-1.32-3.419,5.172,5.172,0,0,1,.13-1.136A.873.873,0,0,1,220.672,177.294Zm6.436,1.746h-5.671q0,.035,0,.07a2.849,2.849,0,1,0,5.673,0Q227.11,179.075,227.109,179.04Z" transform="translate(-130.777 -105.539)" fill="#221714"/>
            <path id="Path_5562" data-name="Path 5562" d="M262.47,151.159s2.045-5.034,8.809-4.4" transform="translate(-156.243 -87.328)" fill="#f1975b"/>
            <path id="Path_5563" data-name="Path 5563" d="M190.451,151.159s-2.045-5.034-8.809-4.4" transform="translate(-108.128 -87.328)" fill="#f1975b"/>
            <path id="Path_5564" data-name="Path 5564" d="M257.107,118.547a.979.979,0,1,1-.979-.979.979.979,0,0,1,.979.979" transform="translate(-151.884 -69.986)" fill="#d67533"/>
            <path id="Path_5565" data-name="Path 5565" d="M266.381,118.547a.979.979,0,1,1-.979-.979.979.979,0,0,1,.979.979" transform="translate(-157.405 -69.986)" fill="#d67533"/>
            <path id="Path_5566" data-name="Path 5566" d="M275.655,118.547a.979.979,0,1,1-.979-.979.979.979,0,0,1,.979.979" transform="translate(-162.925 -69.986)" fill="#d67533"/>
            <path id="Path_5567" data-name="Path 5567" d="M193.523,118.547a.979.979,0,1,1-.979-.979.979.979,0,0,1,.979.979" transform="translate(-114.034 -69.986)" fill="#d67533"/>
            <path id="Path_5568" data-name="Path 5568" d="M202.8,118.547a.979.979,0,1,1-.979-.979.979.979,0,0,1,.979.979" transform="translate(-119.555 -69.986)" fill="#d67533"/>
            <path id="Path_5569" data-name="Path 5569" d="M212.071,118.547a.979.979,0,1,1-.979-.979.979.979,0,0,1,.979.979" transform="translate(-125.075 -69.986)" fill="#d67533"/>
            <path id="Path_5570" data-name="Path 5570" d="M475.742,52.185a2.841,2.841,0,0,1-2.047-3.25,16.927,16.927,0,0,1,15.228-13.949,2.839,2.839,0,0,1,.413,5.664c-.391.032-8.507.823-10.053,9.305a2.84,2.84,0,0,1-3.3,2.283c-.081-.015-.161-.033-.238-.054" transform="translate(-281.953 -20.822)" fill="#9b5832"/>
            <path id="Path_5571" data-name="Path 5571" d="M475.21,51.874a3.74,3.74,0,0,1-.669-.061c-.1-.018-.206-.042-.31-.07a3.714,3.714,0,0,1-2.677-4.249,18.173,18.173,0,0,1,2.68-6.814,17.054,17.054,0,0,1,4.325-4.466,18.88,18.88,0,0,1,4.807-2.477,16.89,16.89,0,0,1,4.213-.906c.088-.006.178-.009.266-.009a3.712,3.712,0,0,1,.278,7.414,11.578,11.578,0,0,0-4.239,1.377,9.856,9.856,0,0,0-3.026,2.566,10.568,10.568,0,0,0-2,4.649A3.71,3.71,0,0,1,475.21,51.874Zm12.634-17.306c-.047,0-.1,0-.143.005a15.166,15.166,0,0,0-3.764.814,17.132,17.132,0,0,0-4.363,2.247,15.314,15.314,0,0,0-3.885,4.01,16.438,16.438,0,0,0-2.419,6.164,1.968,1.968,0,0,0,1.417,2.25c.055.015.11.027.164.037a2,2,0,0,0,.358.033,1.964,1.964,0,0,0,1.931-1.613,12.294,12.294,0,0,1,2.338-5.407,11.592,11.592,0,0,1,3.557-3.021,13.263,13.263,0,0,1,4.945-1.591h.007a1.966,1.966,0,0,0-.143-3.927Z" transform="translate(-280.669 -19.538)" fill="#221714"/>
            <path id="Path_5572" data-name="Path 5572" d="M415.839,123.65h0c-8.748-2.377-18.337-21.012-14.975-33.379l5.015-18.455a14.477,14.477,0,0,1,17.766-10.173l16.847,4.578a14.477,14.477,0,0,1,10.173,17.766l-5.015,18.455c-3.361,12.367-19.871,23.909-29.811,21.208" transform="translate(-238.216 -36.391)" fill="#cd9c7b"/>
            <path id="Path_5573" data-name="Path 5573" d="M417.7,123.636a12.871,12.871,0,0,1-3.371-.427,11.657,11.657,0,0,1-3.563-1.736,20.412,20.412,0,0,1-3.356-3,35.468,35.468,0,0,1-5.67-8.68,39.912,39.912,0,0,1-3.328-10.572,29.524,29.524,0,0,1-.383-5.371,21.52,21.52,0,0,1,.711-5.095L403.753,70.3A15.334,15.334,0,0,1,422.59,59.516l16.847,4.578a15.338,15.338,0,0,1,10.787,18.838l-5.015,18.455a25.691,25.691,0,0,1-4.182,8.361,37.491,37.491,0,0,1-6.854,7.072,35.95,35.95,0,0,1-8.194,4.937,25.713,25.713,0,0,1-4.2,1.385A18.2,18.2,0,0,1,417.7,123.636Zm.859-62.914a13.512,13.512,0,0,0-4.343.717,13.576,13.576,0,0,0-8.776,9.323l-5.015,18.455a19.775,19.775,0,0,0-.65,4.68,27.774,27.774,0,0,0,.361,5.052,38.138,38.138,0,0,0,3.182,10.1A33.705,33.705,0,0,0,408.7,117.3a13.7,13.7,0,0,0,6.087,4.225,11.13,11.13,0,0,0,2.913.366,16.452,16.452,0,0,0,3.683-.449,23.959,23.959,0,0,0,3.917-1.291,34.18,34.18,0,0,0,7.788-4.7c5.261-4.181,9.065-9.475,10.438-14.524l5.015-18.455a13.592,13.592,0,0,0-9.56-16.7L422.132,61.2A13.641,13.641,0,0,0,418.557,60.721Z" transform="translate(-236.932 -35.107)" fill="#221714"/>
            <path id="Path_5574" data-name="Path 5574" d="M453.274,75.493l-39.665-10.78a7.057,7.057,0,0,1-4.96-8.661,8.577,8.577,0,0,1,10.526-6.027l36.733,9.983a8.576,8.576,0,0,1,6.027,10.526,7.057,7.057,0,0,1-8.661,4.959" transform="translate(-243.112 -29.599)" fill="#9b5832"/>
            <path id="Path_5575" data-name="Path 5575" d="M453.844,75.331a7.949,7.949,0,0,1-2.084-.279l-39.665-10.78a7.924,7.924,0,0,1-5.573-9.732,9.44,9.44,0,0,1,11.6-6.641l36.733,9.983a9.442,9.442,0,0,1,6.641,11.6,7.935,7.935,0,0,1-7.648,5.852ZM415.636,49.312a7.65,7.65,0,0,0-2.459.406A7.686,7.686,0,0,0,408.207,55a6.184,6.184,0,0,0,4.346,7.59l39.666,10.78a6.166,6.166,0,0,0,5.348-1.032,6.123,6.123,0,0,0,2.241-3.314,7.7,7.7,0,0,0-5.414-9.454l-36.733-9.983A7.727,7.727,0,0,0,415.636,49.312Z" transform="translate(-241.827 -28.315)" fill="#221714"/>
            <path id="Path_5576" data-name="Path 5576" d="M448.76,130.04A16.018,16.018,0,1,0,429.1,141.3,16.018,16.018,0,0,0,448.76,130.04" transform="translate(-248.398 -65.372)" fill="#9b5832"/>
            <path id="Path_5577" data-name="Path 5577" d="M440,135.714a2.27,2.27,0,1,1-1.591-2.8,2.279,2.279,0,0,1,1.591,2.8" transform="translate(-259.267 -79.071)" fill="#fff"/>
            <path id="Path_5578" data-name="Path 5578" d="M473.568,144.836a2.27,2.27,0,1,1-1.591-2.8,2.279,2.279,0,0,1,1.591,2.8" transform="translate(-279.248 -84.502)" fill="#fff"/>
            <path id="Path_5579" data-name="Path 5579" d="M454.991,150.733a1.388,1.388,0,1,1-.975-1.7,1.388,1.388,0,0,1,.975,1.7" transform="translate(-269.223 -88.685)" fill="#fff"/>
            <path id="Path_5580" data-name="Path 5580" d="M432.028,141.45h0a16.9,16.9,0,1,1,5.4-.89A16.941,16.941,0,0,1,432.027,141.45Zm-.021-32.043a15.047,15.047,0,0,0-4.836.8,15.15,15.15,0,0,0,4.855,29.5h0a15.041,15.041,0,0,0,4.834-.8,15.15,15.15,0,0,0-4.855-29.5Z" transform="translate(-247.113 -64.088)" fill="#221714"/>
            <path id="Line_660" data-name="Line 660" d="M4.223,1.095a.745.745,0,0,1-.2-.026L-1.29-.377a.744.744,0,0,1-.523-.913A.744.744,0,0,1-.9-1.813L4.418-.367a.744.744,0,0,1-.195,1.462Z" transform="translate(181.711 66.927)" fill="#fff"/>
            <path id="Path_5581" data-name="Path 5581" d="M510.651,123.1c-.444,1.632-1.783,2.689-2.992,2.36s-1.829-1.918-1.386-3.55,1.783-2.689,2.992-2.36,1.829,1.918,1.386,3.55" transform="translate(-301.288 -71.131)" fill="#b28364"/>
            <path id="Path_5582" data-name="Path 5582" d="M407.294,143.122c-.444,1.632-1.783,2.689-2.992,2.36s-1.829-1.918-1.386-3.55,1.783-2.689,2.992-2.36,1.829,1.918,1.386,3.55" transform="translate(-239.762 -83.049)" fill="#b28364"/>
            <path id="Path_5583" data-name="Path 5583" d="M509.57,142.479c-.247.91-.995,1.5-1.669,1.317a1.538,1.538,0,0,1-.773-1.98c.248-.91.995-1.5,1.669-1.317a1.538,1.538,0,0,1,.773,1.98" transform="translate(-301.835 -83.616)" fill="#b28364"/>
            <path id="Path_5584" data-name="Path 5584" d="M500.1,132.547c-.247.91-.995,1.5-1.669,1.317a1.538,1.538,0,0,1-.773-1.98c.248-.91.995-1.5,1.669-1.317a1.538,1.538,0,0,1,.773,1.98" transform="translate(-296.197 -77.704)" fill="#b28364"/>
            <path id="Path_5585" data-name="Path 5585" d="M413.316,128.9c-.248.91-.995,1.5-1.669,1.317a1.538,1.538,0,0,1-.773-1.98c.248-.91.995-1.5,1.669-1.317a1.538,1.538,0,0,1,.773,1.98" transform="translate(-244.537 -75.532)" fill="#b28364"/>
          </g>
        </g>
      </g>
    </g>
  </g>
</svg>
