<svg xmlns="http://www.w3.org/2000/svg" xmlns:xlink="http://www.w3.org/1999/xlink" width="80" height="80" viewBox="0 0 80 80">
  <defs>
    <clipPath id="clip-path">
      <rect id="Rectangle_13720" data-name="Rectangle 13720" width="78.386" height="76.531" fill="none"/>
    </clipPath>
    <clipPath id="clip-path-2">
      <path id="Path_6017" data-name="Path 6017" d="M224.315,135.668a11.959,11.959,0,0,0-4.288,4.837,33.309,33.309,0,0,1,14.1,2.107,24.11,24.11,0,0,1,10.963,8.486l.342-1.2h0a11.949,11.949,0,0,0,.269-5.4,25.711,25.711,0,0,0-10.307-7.142,27.381,27.381,0,0,0-9.977-1.7q-.562,0-1.1.016" transform="translate(-220.027 -135.652)" fill="none"/>
    </clipPath>
    <clipPath id="clip-path-4">
      <path id="Path_6021" data-name="Path 6021" d="M403.867,316.622l5.962,3.357,16.7-3-1.845-12.425-6.438-5Z" transform="translate(-403.867 -299.551)" fill="none"/>
    </clipPath>
    <clipPath id="clip-Img-cat-dance">
      <rect width="80" height="80"/>
    </clipPath>
  </defs>
  <g id="Img-cat-dance" clip-path="url(#clip-Img-cat-dance)">
    <g id="Group_43022" data-name="Group 43022" transform="translate(1 2)">
      <g id="Group_42861" data-name="Group 42861">
        <g id="Group_42860" data-name="Group 42860" clip-path="url(#clip-path)">
          <path id="Path_5969" data-name="Path 5969" d="M306.9,310.278a9.109,9.109,0,0,0-4.242,4.857c-.9,2.085-1.291,4.38-2.367,6.393a15.958,15.958,0,0,1-7.951,7.142,14.738,14.738,0,0,1-5.946,1.134c-1.679-.033-1.834,2.582-.143,2.615a18.249,18.249,0,0,0,11.133-3.628,18.067,18.067,0,0,0,4.149-4.277,21.8,21.8,0,0,0,2.671-5.923c.717-2.256,1.553-4.878,3.862-5.969a1.31,1.31,0,0,0-1.167-2.344" transform="translate(-255.759 -278.27)" fill="#fff"/>
          <path id="Path_5970" data-name="Path 5970" d="M305.183,307.594h0a1.631,1.631,0,0,1,1.53,1.31,1.429,1.429,0,0,1-.825,1.669c-2.209,1.044-3.014,3.577-3.724,5.811a22.144,22.144,0,0,1-2.705,5.992,18.706,18.706,0,0,1-15.164,8.022l-.339,0a1.438,1.438,0,0,1-1.452-1.525,1.572,1.572,0,0,1,1.569-1.614l.313,0a14.563,14.563,0,0,0,5.563-1.116,15.715,15.715,0,0,0,7.821-7.024,20.73,20.73,0,0,0,1.375-3.589,28.154,28.154,0,0,1,.983-2.785,9.288,9.288,0,0,1,4.371-4.989A1.6,1.6,0,0,1,305.183,307.594Zm-20.889,22.28a18.183,18.183,0,0,0,14.733-7.8,21.676,21.676,0,0,0,2.637-5.854c.706-2.221,1.584-4.985,4-6.126a.91.91,0,0,0,.538-1.08,1.1,1.1,0,0,0-1.019-.9h0a1.081,1.081,0,0,0-.462.111,8.787,8.787,0,0,0-4.114,4.724,27.763,27.763,0,0,0-.963,2.733,21.116,21.116,0,0,1-1.413,3.679,16.24,16.24,0,0,1-8.081,7.26,15.091,15.091,0,0,1-5.765,1.156l-.287,0h0a1.041,1.041,0,0,0-1.07,1.1.917.917,0,0,0,.938,1Z" transform="translate(-253.472 -275.984)" fill="#221714"/>
          <path id="Path_5971" data-name="Path 5971" d="M94.172,182.565l-8.38-14.015a34.182,34.182,0,0,0-1.47-1.888l-1.833-1.772a5.219,5.219,0,0,0-7.38.125h0a5.22,5.22,0,0,0,.125,7.381l1.647,1.592,8.332,13.934a5.22,5.22,0,1,0,8.96-5.357" transform="translate(-66.074 -146.63)" fill="#fff"/>
          <path id="Path_5972" data-name="Path 5972" d="M87.434,188.44h0a5.513,5.513,0,0,1-4.71-2.669l-8.332-13.934-1.6-1.538a5.481,5.481,0,1,1,7.62-7.882l1.833,1.772a5.5,5.5,0,0,1,.862,1.072,5.059,5.059,0,0,1,.65.87l8.38,14.015a5.483,5.483,0,0,1-4.7,8.3ZM76.6,161.4a4.958,4.958,0,0,0-3.446,8.522l1.647,1.592L83.173,185.5a4.987,4.987,0,0,0,4.26,2.414h0a4.958,4.958,0,0,0,4.25-7.5L83.3,166.4a5,5,0,0,0-.616-.824,5.318,5.318,0,0,0-.811-1.01l-1.833-1.772A4.933,4.933,0,0,0,76.6,161.4Z" transform="translate(-63.811 -144.344)" fill="#221714"/>
          <path id="Path_5973" data-name="Path 5973" d="M308.985,369.463h0a5.22,5.22,0,0,0,5.22,5.22h16.329a5.22,5.22,0,0,0,0-10.439H314.2a5.22,5.22,0,0,0-5.22,5.22" transform="translate(-277.232 -326.812)" fill="#fff"/>
          <path id="Path_5974" data-name="Path 5974" d="M311.918,361.7h16.329a5.481,5.481,0,0,1,0,10.963H311.918a5.481,5.481,0,0,1,0-10.963Zm16.329,10.439a4.958,4.958,0,0,0,0-9.916H311.918a4.958,4.958,0,0,0,0,9.916Z" transform="translate(-274.946 -324.526)" fill="#221714"/>
          <path id="Path_5975" data-name="Path 5975" d="M474.033,358.715h0a5.22,5.22,0,0,0,7.248,1.4l2.111-1.429a5.22,5.22,0,0,0-5.852-8.645l-2.111,1.429a5.22,5.22,0,0,0-1.4,7.248" transform="translate(-424.513 -313.26)" fill="#fff"/>
          <path id="Path_5976" data-name="Path 5976" d="M476.093,358.984h0a5.482,5.482,0,0,1-3.077-10.021l2.111-1.429a5.481,5.481,0,0,1,6.145,9.078l-2.111,1.429A5.454,5.454,0,0,1,476.093,358.984Zm2.1-11.869a4.933,4.933,0,0,0-2.774.853l-2.111,1.429a4.958,4.958,0,1,0,5.558,8.211l2.111-1.429a4.958,4.958,0,0,0-2.784-9.064Z" transform="translate(-422.247 -310.974)" fill="#221714"/>
          <path id="Path_5977" data-name="Path 5977" d="M148.858,506.462H145.53A5.332,5.332,0,0,1,143.5,496.2l-.055-11.377a5.331,5.331,0,0,1,5.305-5.357h.026a5.331,5.331,0,0,1,5.331,5.306l.079,16.335a5.331,5.331,0,0,1-5.331,5.357" transform="translate(-125.792 -430.193)" fill="#eaeaea"/>
          <path id="Path_5978" data-name="Path 5978" d="M146.571,504.438h-3.327a5.594,5.594,0,0,1-2.291-10.7l-.054-11.2a5.593,5.593,0,1,1,11.186-.054l.079,16.335a5.593,5.593,0,0,1-5.593,5.62Zm-.078-27a5.08,5.08,0,0,0-5.07,5.094l.055,11.377a.262.262,0,0,1-.162.243,5.07,5.07,0,0,0,1.928,9.759h3.327a5.069,5.069,0,0,0,5.069-5.094l-.079-16.335A5.08,5.08,0,0,0,146.493,477.441Z" transform="translate(-123.505 -427.907)" fill="#221714"/>
          <path id="Path_5979" data-name="Path 5979" d="M182.444,588.089l-10.718,2.775v-2.044l10.718-2.775Z" transform="translate(-154.079 -525.82)" fill="#f4b6d1"/>
          <path id="Path_5980" data-name="Path 5980" d="M180.158,583.5a.262.262,0,0,1,.262.262V585.8a.262.262,0,0,1-.2.253l-10.718,2.775a.262.262,0,0,1-.327-.253v-2.044a.262.262,0,0,1,.2-.254l10.718-2.775A.267.267,0,0,1,180.158,583.5Zm-.262,2.1v-1.5L169.7,586.736v1.5Z" transform="translate(-151.793 -523.533)" fill="#221714"/>
          <path id="Path_5981" data-name="Path 5981" d="M171.727,588.089l10.718,2.775v-2.044l-10.718-2.775Z" transform="translate(-154.079 -525.82)" fill="#f4b6d1"/>
          <path id="Path_5982" data-name="Path 5982" d="M169.44,583.5a.267.267,0,0,1,.066.008l10.718,2.775a.262.262,0,0,1,.2.254v2.044a.262.262,0,0,1-.327.253l-10.718-2.775a.262.262,0,0,1-.2-.253v-2.044a.262.262,0,0,1,.262-.262Zm10.456,3.239L169.7,584.1v1.5l10.194,2.639Z" transform="translate(-151.793 -523.533)" fill="#221714"/>
          <path id="Path_5983" data-name="Path 5983" d="M145.371,643.49a6.383,6.383,0,0,0-1.869-2.344v.007a5.332,5.332,0,0,0,2.028,10.263h3.327a5.331,5.331,0,0,0,5.331-5.357l-.04-5.038c-5.658,5.395-7.461,4.984-8.778,2.469" transform="translate(-125.792 -575.148)" fill="#f4b6d1"/>
          <path id="Path_5984" data-name="Path 5984" d="M151.863,638.474a.262.262,0,0,1,.262.26l.04,5.038a5.593,5.593,0,0,1-5.593,5.621h-3.327a5.594,5.594,0,0,1-2.166-10.751l.006,0a.261.261,0,0,1,.282.008,6.65,6.65,0,0,1,1.951,2.437c.6,1.152,1.208,1.643,2.025,1.643,1.335,0,3.35-1.328,6.341-4.18A.262.262,0,0,1,151.863,638.474Zm-6.521,4.776a2.92,2.92,0,0,1-2.489-1.924,6.435,6.435,0,0,0-1.666-2.161,5.07,5.07,0,0,0,2.057,9.7h3.327a5.069,5.069,0,0,0,5.069-5.094l-.035-4.437C148.713,642.039,146.77,643.25,145.342,643.25Z" transform="translate(-123.505 -572.861)" fill="#221714"/>
          <path id="Path_5985" data-name="Path 5985" d="M317.458,494.908l-2.234,2.466a5.332,5.332,0,0,1-8.967-5.389l-8.468-7.6a5.331,5.331,0,0,1-.407-7.529l.018-.02a5.331,5.331,0,0,1,7.511-.388l12.158,10.91a5.331,5.331,0,0,1,.39,7.548" transform="translate(-265.598 -426.266)" fill="#eaeaea"/>
          <path id="Path_5986" data-name="Path 5986" d="M308.984,497.1a5.595,5.595,0,0,1-5.319-7.323l-8.339-7.483a5.593,5.593,0,0,1-.427-7.9,5.593,5.593,0,0,1,7.9-.427l12.158,10.91a5.593,5.593,0,0,1,.409,7.918l-2.234,2.466A5.605,5.605,0,0,1,308.984,497.1Zm-9.92-24.038a5.07,5.07,0,0,0-3.388,8.843l8.468,7.6a.262.262,0,0,1,.071.284,5.07,5.07,0,0,0,8.527,5.124l2.234-2.466a5.069,5.069,0,0,0-.371-7.177L302.448,474.36A5.06,5.06,0,0,0,299.064,473.064Z" transform="translate(-263.311 -423.979)" fill="#221714"/>
          <path id="Path_5987" data-name="Path 5987" d="M380.208,526.289l-5.14,9.806-1.515-1.373,5.14-9.805Z" transform="translate(-335.165 -470.973)" fill="#f4b6d1"/>
          <path id="Path_5988" data-name="Path 5988" d="M376.407,522.368a.262.262,0,0,1,.176.068l1.515,1.373a.262.262,0,0,1,.056.316l-5.14,9.805a.262.262,0,0,1-.408.072l-1.515-1.373a.262.262,0,0,1-.056-.316l5.14-9.805a.262.262,0,0,1,.186-.136A.271.271,0,0,1,376.407,522.368Zm1.189,1.693-1.114-1.009-4.889,9.326,1.114,1.01Z" transform="translate(-332.879 -468.687)" fill="#221714"/>
          <path id="Path_5989" data-name="Path 5989" d="M355.058,550.5l9.253-6.079-1.515-1.373-9.253,6.079Z" transform="translate(-317.212 -487.24)" fill="#f4b6d1"/>
          <path id="Path_5990" data-name="Path 5990" d="M352.772,548.474a.261.261,0,0,1-.176-.068l-1.515-1.373a.262.262,0,0,1,.032-.413l9.253-6.079a.262.262,0,0,1,.32.025l1.515,1.373a.262.262,0,0,1-.032.413l-9.253,6.079A.261.261,0,0,1,352.772,548.474Zm-1.088-1.6,1.114,1.009,8.8-5.782-1.114-1.009Z" transform="translate(-314.926 -484.954)" fill="#221714"/>
          <path id="Path_5991" data-name="Path 5991" d="M395.887,570.046a6.378,6.378,0,0,0-2.992-.188l.006,0a5.332,5.332,0,0,0,8.967,5.389l2.234-2.466a5.332,5.332,0,0,0-.39-7.548l-3.76-3.353c.2,7.815-1.316,8.876-4.065,8.162" transform="translate(-352.242 -504.141)" fill="#f4b6d1"/>
          <path id="Path_5992" data-name="Path 5992" d="M395.6,574.977a5.595,5.595,0,0,1-5.275-7.451v0a.261.261,0,0,1,.2-.207,6.809,6.809,0,0,1,3.116.19,4.765,4.765,0,0,0,1.182.177,1.758,1.758,0,0,0,1.347-.523c.932-.956,1.316-3.357,1.209-7.557a.262.262,0,0,1,.436-.2l3.76,3.353a5.593,5.593,0,0,1,.41,7.919l-2.234,2.466A5.605,5.605,0,0,1,395.6,574.977Zm-4.814-7.181a5.07,5.07,0,0,0,8.573,4.992l2.234-2.466a5.069,5.069,0,0,0-.371-7.177l-3.311-2.953c.06,4.033-.368,6.306-1.37,7.334a2.278,2.278,0,0,1-1.722.681,5.266,5.266,0,0,1-1.313-.194A6.591,6.591,0,0,0,390.785,567.8Z" transform="translate(-349.926 -501.855)" fill="#221714"/>
          <path id="Path_5993" data-name="Path 5993" d="M181.3,318.375c.515-6.746-3.146-14.906-3.146-14.906l-7.763.431-7.278-2.4s-6.055,7.229-7.013,13.544-.085,12.735,10.947,14.191c10.284,1.094,13.768-4.5,14.254-10.864" transform="translate(-139.8 -270.52)" fill="#f4b6d1"/>
          <path id="Path_5994" data-name="Path 5994" d="M181.46,320.772a17.66,17.66,0,0,0,.343-2.4c.515-6.746-3.146-14.907-3.146-14.907l-7.763.431-7.278-2.4s-6.055,7.229-7.013,13.544c-.1.674-.183,1.348-.234,2.018,3.275,1.52,11.458,4.422,25.091,3.706" transform="translate(-140.3 -270.519)" fill="#f4b6d1"/>
          <path id="Path_5995" data-name="Path 5995" d="M167.052,465.117c8.966.954,12.763-3.172,13.911-8.466-13.633.716-21.816-2.186-25.091-3.706-.422,5.61,1.326,10.871,11.18,12.172" transform="translate(-139.803 -406.398)" fill="#4db7e7"/>
          <path id="Path_5996" data-name="Path 5996" d="M167.209,463.231h0a23.834,23.834,0,0,1-2.506-.139c-10.963-1.447-11.764-7.8-11.414-12.452a.262.262,0,0,1,.371-.218c3.053,1.417,9.814,3.793,20.8,3.793,1.36,0,2.763-.037,4.169-.111a.262.262,0,0,1,.27.317C178.026,458.439,175.289,463.231,167.209,463.231Zm-13.423-12.177c-.259,4.4.756,10.168,10.979,11.518a23.282,23.282,0,0,0,2.444.135c6.082,0,9.815-2.712,11.1-8.063-1.3.063-2.593.095-3.851.095C163.771,454.738,157.027,452.5,153.786,451.054Z" transform="translate(-137.481 -404.112)" fill="#221714"/>
          <path id="Path_5997" data-name="Path 5997" d="M167.236,327.352h0a23.823,23.823,0,0,1-2.506-.139c-4.625-.61-7.762-2.093-9.595-4.532-2.308-3.071-2.009-7.154-1.583-9.959.959-6.315,6.822-13.376,7.071-13.673a.262.262,0,0,1,.283-.081l7.278,2.4,7.667-.444a.262.262,0,0,1,.253.154c.037.082,3.682,8.3,3.168,15.033C178.88,321.238,176.474,327.352,167.236,327.352Zm-6.324-27.83c-.827,1.023-5.978,7.58-6.844,13.279-.411,2.711-.705,6.652,1.484,9.565,1.744,2.321,4.766,3.736,9.238,4.326a23.3,23.3,0,0,0,2.444.136c8.838,0,11.139-5.851,11.514-10.76.464-6.079-2.546-13.429-3.052-14.615l-7.581.421Z" transform="translate(-137.507 -268.234)" fill="#221714"/>
          <path id="Path_5998" data-name="Path 5998" d="M243.628,328.484l-1.52-.3a4.823,4.823,0,0,1-3.793-5.668l.514-2.6,10.981,2.176-.514,2.6a4.823,4.823,0,0,1-5.668,3.793" transform="translate(-213.741 -287.043)" fill="#fff"/>
          <path id="Path_5999" data-name="Path 5999" d="M242.279,326.553a5.125,5.125,0,0,1-.993-.1l-1.519-.3a5.085,5.085,0,0,1-4-5.976l.514-2.6a.262.262,0,0,1,.308-.206l10.981,2.176a.262.262,0,0,1,.206.308l-.514,2.6A5.094,5.094,0,0,1,242.279,326.553Zm-5.535-8.612-.463,2.339a4.561,4.561,0,0,0,3.587,5.36l1.52.3a4.555,4.555,0,0,0,5.36-3.587l.463-2.339Z" transform="translate(-211.45 -284.757)" fill="#221714"/>
          <rect id="Rectangle_13718" data-name="Rectangle 13718" width="19.704" height="1.904" transform="matrix(0.318, -0.948, 0.948, 0.318, 9.352, 27.756)" fill="#eaeaea"/>
          <path id="Rectangle_13719" data-name="Rectangle 13719" d="M.262,0h19.7a.262.262,0,0,1,.262.262v1.9a.262.262,0,0,1-.262.262H.262A.262.262,0,0,1,0,2.166V.262A.262.262,0,0,1,.262,0ZM19.7.524H.524V1.9H19.7Z" transform="matrix(0.318, -0.948, 0.948, 0.318, 9.02, 27.921)" fill="#221714"/>
          <path id="Path_6000" data-name="Path 6000" d="M204.555,139.66c-3.365-5.343-9.318-6.629-17.694-3.822a19.906,19.906,0,0,1-8.153,1,14.238,14.238,0,0,1-6.579-2.224,8.29,8.29,0,0,1-3.92-6.335,13.2,13.2,0,0,1,2.289-8.619,14.472,14.472,0,0,1,8.771-5.455c6.077-1.456,10.733-4.6,13.112-8.858a15.057,15.057,0,0,0,.829-12.3c-1.685-5.148-4.53-8.525-8.7-10.325-4.059-1.753-9.511-2.1-16.667-1.047-15.2,2.226-23.16.059-23.491-.035l.694-2.474c.077.021,7.838,2.1,22.425-.034,7.642-1.119,13.549-.716,18.058,1.231,4.884,2.109,8.195,6,10.122,11.884a17.557,17.557,0,0,1-1.028,14.357c-2.732,4.889-7.973,8.477-14.755,10.1a12,12,0,0,0-7.28,4.45,10.662,10.662,0,0,0-1.815,6.964,5.788,5.788,0,0,0,2.79,4.365c3.121,2.1,7.9,2.452,12.482.918,5.358-1.8,9.964-2.058,13.69-.781a13.223,13.223,0,0,1,6.994,5.67Z" transform="translate(-129.518 -70.446)" fill="#fff000"/>
          <path id="Path_6001" data-name="Path 6001" d="M202.268,137.635a.261.261,0,0,1-.222-.122,10.761,10.761,0,0,0-9.707-5.145,24.584,24.584,0,0,0-7.682,1.432,20.571,20.571,0,0,1-6.54,1.1c-.58,0-1.159-.027-1.722-.082a14.5,14.5,0,0,1-6.7-2.267,8.546,8.546,0,0,1-4.036-6.536A13.456,13.456,0,0,1,168,117.223a14.725,14.725,0,0,1,8.924-5.557c6.005-1.439,10.6-4.54,12.944-8.731a14.8,14.8,0,0,0,.809-12.1c-1.66-5.072-4.458-8.4-8.554-10.166a22.99,22.99,0,0,0-9.2-1.617,51.143,51.143,0,0,0-7.325.589,89.783,89.783,0,0,1-12.918,1A43.1,43.1,0,0,1,141.994,79.6a.262.262,0,0,1-.181-.323l.694-2.474a.262.262,0,0,1,.322-.182,42,42,0,0,0,9.919.92,86.132,86.132,0,0,0,12.4-.96,54.14,54.14,0,0,1,7.761-.619,26.019,26.019,0,0,1,10.439,1.868c4.957,2.141,8.315,6.08,10.267,12.043a17.812,17.812,0,0,1-1.049,14.567c-2.768,4.954-8.068,8.587-14.923,10.229a11.745,11.745,0,0,0-7.128,4.347,10.4,10.4,0,0,0-1.767,6.795,5.534,5.534,0,0,0,2.675,4.164,11.934,11.934,0,0,0,6.691,1.819,17.49,17.49,0,0,0,5.561-.932,27.674,27.674,0,0,1,8.687-1.59,15.927,15.927,0,0,1,5.171.809,13.478,13.478,0,0,1,7.131,5.778.262.262,0,0,1-.082.361l-2.174,1.369A.262.262,0,0,1,202.268,137.635Zm-9.929-5.791a11.251,11.251,0,0,1,10.009,5.169l1.731-1.09a12.914,12.914,0,0,0-6.716-5.341,15.407,15.407,0,0,0-5-.781,27.158,27.158,0,0,0-8.521,1.562,18.013,18.013,0,0,1-5.727.959,12.451,12.451,0,0,1-6.984-1.908,6.042,6.042,0,0,1-2.906-4.566,10.92,10.92,0,0,1,1.863-7.132,12.248,12.248,0,0,1,7.432-4.552c6.711-1.608,11.892-5.151,14.588-9.976a17.3,17.3,0,0,0,1.008-14.148c-1.9-5.812-5.166-9.648-9.977-11.725a25.513,25.513,0,0,0-10.231-1.826,53.621,53.621,0,0,0-7.686.613,86.656,86.656,0,0,1-12.474.966,45.428,45.428,0,0,1-9.805-.877l-.553,1.972a45.392,45.392,0,0,0,10.287.961,89.261,89.261,0,0,0,12.842-1,51.665,51.665,0,0,1,7.4-.594,23.5,23.5,0,0,1,9.408,1.66c4.241,1.832,7.134,5.261,8.844,10.484a15.311,15.311,0,0,1-.85,12.514c-2.414,4.32-7.13,7.511-13.279,8.984a14.219,14.219,0,0,0-8.619,5.352,12.938,12.938,0,0,0-2.24,8.45,8.035,8.035,0,0,0,3.805,6.134,13.977,13.977,0,0,0,6.458,2.18c.546.053,1.108.079,1.671.079a20.048,20.048,0,0,0,6.374-1.068A25.1,25.1,0,0,1,192.339,131.844Z" transform="translate(-127.231 -68.159)" fill="#221714"/>
          <path id="Path_6002" data-name="Path 6002" d="M246.609,72.9s-6.617-7.443-9.311-6.577c-2.2.706-1.673,11.515-1.673,11.515" transform="translate(-211.361 -59.443)" fill="#fff"/>
          <path id="Path_6003" data-name="Path 6003" d="M233.273,75.828a.262.262,0,0,1-.261-.249c-.055-1.127-.469-11.031,1.855-11.777,2.777-.892,8.9,5.878,9.587,6.653a.262.262,0,0,1-.391.348c-1.809-2.035-6.959-7.169-9.036-6.5-1.463.47-1.691,7.151-1.492,11.253a.262.262,0,0,1-.249.274Z" transform="translate(-209.01 -57.173)" fill="#221714"/>
          <path id="Path_6004" data-name="Path 6004" d="M258.436,91.419s-4.581-5.153-6.446-4.554c-1.523.489-1.159,7.972-1.159,7.972" transform="translate(-225.02 -77.895)" fill="#f5c1d8"/>
          <path id="Path_6005" data-name="Path 6005" d="M399.144,133.748s9.541-2.853,11.378-.7c1.5,1.757-4.629,10.675-4.629,10.675" transform="translate(-358.126 -118.654)" fill="#fff"/>
          <path id="Path_6006" data-name="Path 6006" d="M403.606,141.654a.262.262,0,0,1-.216-.41c2.326-3.384,5.643-9.188,4.646-10.357-1.416-1.659-8.5,0-11.1.782a.262.262,0,0,1-.15-.5c.993-.3,9.759-2.838,11.653-.62,1.585,1.856-3.973,10.064-4.612,10.993A.262.262,0,0,1,403.606,141.654Z" transform="translate(-355.839 -116.323)" fill="#221714"/>
          <path id="Path_6007" data-name="Path 6007" d="M416.184,149.818s6.166-1.844,7.353-.453c.969,1.135-2.991,6.9-2.991,6.9" transform="translate(-373.415 -133.55)" fill="#f5c1d8"/>
          <path id="Path_6008" data-name="Path 6008" d="M188.3,111.447l-3.063-.87a11.946,11.946,0,0,0-5.5-.249l-3.249-1.008a17.7,17.7,0,0,0,.97,1.5,12.939,12.939,0,0,0-2.31-.319,7.342,7.342,0,0,0,.6,1.357,11.956,11.956,0,0,0-5.332,6.986l-.219.77a6.012,6.012,0,0,0-4.33,4.192l-.078.273c-1.117,3.932,2.165,8.31,5.1,9.143l13.787,3.916a8.469,8.469,0,0,0,10.46-5.833l.581-2.045.849-2.989a12,12,0,0,0-8.265-14.822" transform="translate(-148.549 -98.086)" fill="#fff"/>
          <path id="Path_6009" data-name="Path 6009" d="M186.089,108.892l-2.135-.606-.9-.257a12.541,12.541,0,0,0-2.435-.437,12.327,12.327,0,0,0-3.226.181h.139l-3.249-1.008a.265.265,0,0,0-.3.385q.448.772.97,1.5l.3-.385a13.677,13.677,0,0,0-2.379-.328.264.264,0,0,0-.252.331,7.971,7.971,0,0,0,.624,1.42l.094-.358a12.341,12.341,0,0,0-5.263,6.536c-.155.453-.277.916-.408,1.376l.183-.183a6.353,6.353,0,0,0-3.718,2.637,6.859,6.859,0,0,0-1.081,4.267,8.6,8.6,0,0,0,1.742,4.377,7.883,7.883,0,0,0,3.368,2.706c.346.133.712.221,1.068.322l2.065.586,2.861.813,3.11.883,2.77.787,1.852.526a11.932,11.932,0,0,0,1.791.395,8.632,8.632,0,0,0,4.342-.59,8.778,8.778,0,0,0,3.5-2.614,8.666,8.666,0,0,0,1.172-1.93,11.386,11.386,0,0,0,.5-1.459l.567-1.995.739-2.6a12.664,12.664,0,0,0,.5-3.812,12.2,12.2,0,0,0-.911-4.3,12.434,12.434,0,0,0-2.356-3.7A12.168,12.168,0,0,0,188.2,109.7a12.579,12.579,0,0,0-2.108-.813.262.262,0,0,0-.139.5,11.742,11.742,0,0,1,4.273,2.241,11.866,11.866,0,0,1,2.947,3.663,11.7,11.7,0,0,1,1.278,4.486,12.042,12.042,0,0,1-.444,4.208l-.779,2.743q-.305,1.075-.611,2.15a8.2,8.2,0,0,1-10.2,5.678l-1.386-.394L178.3,133.4l-3.348-.951-3.2-.909-2.329-.661a10.51,10.51,0,0,1-1.262-.393,7.81,7.81,0,0,1-3.429-3.164,7.2,7.2,0,0,1-1.109-4.853,5.847,5.847,0,0,1,3.408-4.576,5.433,5.433,0,0,1,.541-.208c.2-.065.521-.082.6-.3s.124-.437.186-.654c.1-.335.2-.668.319-.995a11.687,11.687,0,0,1,2.914-4.416,11.846,11.846,0,0,1,2.011-1.534.267.267,0,0,0,.094-.358,7.259,7.259,0,0,1-.571-1.295l-.253.331a12.848,12.848,0,0,1,2.24.309c.2.046.438-.187.3-.385q-.521-.725-.97-1.5l-.3.385,1.74.54.87.27.406.126c.076.024.154.055.232.072a.644.644,0,0,0,.251-.021,11.737,11.737,0,0,1,3.442-.1,23.691,23.691,0,0,1,3.644.888l1.224.348a.262.262,0,0,0,.139-.5" transform="translate(-146.271 -95.783)" fill="#221714"/>
          <path id="Path_6010" data-name="Path 6010" d="M221.143,162.621l-8.453-2.4a8.313,8.313,0,0,1-5.726-10.268l.387-1.363a12.707,12.707,0,0,1,15.695-8.752h0a12.707,12.707,0,0,1,8.752,15.695l-.387,1.363a8.313,8.313,0,0,1-10.268,5.726" transform="translate(-185.41 -125.03)" fill="#fff"/>
          <path id="Path_6011" data-name="Path 6011" d="M242.642,212.012a1.415,1.415,0,1,1-.971-1.758,1.42,1.42,0,0,1,.971,1.758" transform="translate(-215.216 -188.599)" fill="#221714"/>
          <path id="Line_665" data-name="Line 665" d="M-1.379-1.261a.261.261,0,0,1-.168-.062l-.907-.763a.262.262,0,0,1-.032-.369.262.262,0,0,1,.369-.032l.907.763a.262.262,0,0,1,.032.369A.261.261,0,0,1-1.379-1.261Z" transform="translate(27.812 23.434)" fill="#221714"/>
          <path id="Line_666" data-name="Line 666" d="M-1.379-1.261a.261.261,0,0,1-.168-.062l-.907-.763a.262.262,0,0,1-.032-.369.262.262,0,0,1,.369-.032l.907.763a.262.262,0,0,1,.032.369A.261.261,0,0,1-1.379-1.261Z" transform="translate(36.343 25.857)" fill="#221714"/>
          <path id="Path_6012" data-name="Path 6012" d="M324.748,235.333a1.415,1.415,0,1,1-.971-1.758,1.42,1.42,0,0,1,.971,1.758" transform="translate(-288.884 -209.524)" fill="#221714"/>
          <path id="Path_6013" data-name="Path 6013" d="M273.42,250.449a.865.865,0,1,1-.6-1.068.865.865,0,0,1,.6,1.068" transform="translate(-243.8 -223.723)" fill="#ec7463"/>
          <path id="Line_667" data-name="Line 667" d="M1.468-1.73H1.447l-3.754-.294a.262.262,0,0,1-.241-.282.262.262,0,0,1,.282-.241l3.754.294a.262.262,0,0,1,.241.282A.262.262,0,0,1,1.468-1.73Z" transform="translate(39.464 31.243)" fill="#f5c1d8"/>
          <path id="Line_668" data-name="Line 668" d="M.911-.036a.261.261,0,0,1-.138-.04l-3.2-1.988a.262.262,0,0,1-.084-.361.262.262,0,0,1,.361-.084L1.049-.52a.262.262,0,0,1,.084.361A.262.262,0,0,1,.911-.036Z" transform="translate(38.69 33.747)" fill="#f5c1d8"/>
          <path id="Line_669" data-name="Line 669" d="M1.358-1.078a.262.262,0,0,1-.066-.008l-3.644-.947a.262.262,0,0,1-.188-.319.262.262,0,0,1,.319-.188l3.644.947a.262.262,0,0,1,.188.319A.262.262,0,0,1,1.358-1.078Z" transform="translate(39.296 32.596)" fill="#f5c1d8"/>
          <path id="Line_670" data-name="Line 670" d="M1.061-.3a.261.261,0,0,1-.12-.029L-2.406-2.054a.262.262,0,0,1-.113-.353.262.262,0,0,1,.353-.113L1.181-.8a.262.262,0,0,1,.113.353A.262.262,0,0,1,1.061-.3Z" transform="translate(22.556 25.669)" fill="#f5c1d8"/>
          <path id="Line_671" data-name="Line 671" d="M-2.286-2.013a.262.262,0,0,1-.262-.261.262.262,0,0,1,.261-.263l3.766-.011a.262.262,0,0,1,.263.261.262.262,0,0,1-.261.263l-3.765.011Z" transform="translate(21.482 29.929)" fill="#f5c1d8"/>
          <path id="Line_672" data-name="Line 672" d="M1.312-.915a.262.262,0,0,1-.077-.012l-3.6-1.11a.262.262,0,0,1-.173-.327.262.262,0,0,1,.327-.173l3.6,1.11a.262.262,0,0,1,.173.327A.262.262,0,0,1,1.312-.915Z" transform="translate(21.739 27.522)" fill="#f5c1d8"/>
          <path id="Path_6014" data-name="Path 6014" d="M272.913,280.986a1.594,1.594,0,0,1-1.069-.415.262.262,0,0,1,.37-.371,1.062,1.062,0,0,0,.786.259.262.262,0,1,1,.042.522C273,280.985,272.955,280.986,272.913,280.986Z" transform="translate(-243.84 -251.338)" fill="#221714"/>
          <path id="Path_6015" data-name="Path 6015" d="M235.39,137.349a28.314,28.314,0,0,0-11.076-1.681,11.959,11.959,0,0,0-4.288,4.837,33.305,33.305,0,0,1,14.1,2.107,24.11,24.11,0,0,1,10.963,8.486l.342-1.2a11.952,11.952,0,0,0,.269-5.4,25.71,25.71,0,0,0-10.307-7.142" transform="translate(-197.415 -121.712)" fill="#4db7e7"/>
        </g>
      </g>
      <g id="Group_42863" data-name="Group 42863" transform="translate(22.611 13.94)">
        <g id="Group_42862" data-name="Group 42862" clip-path="url(#clip-path-2)">
          <path id="Path_6016" data-name="Path 6016" d="M254.788,161.054a45.113,45.113,0,0,0-9.531-7.048c-6.3-3.628-15.555-3.254-15.648-3.25l-.056-1.232c.393-.018,9.709-.392,16.319,3.413a45.377,45.377,0,0,1,9.815,7.272Z" transform="translate(-228.575 -148.083)" fill="#fff"/>
        </g>
      </g>
      <g id="Group_42865" data-name="Group 42865">
        <g id="Group_42864" data-name="Group 42864" clip-path="url(#clip-path)">
          <path id="Path_6018" data-name="Path 6018" d="M223.126,133.1A27.3,27.3,0,0,1,233.2,134.82a26.1,26.1,0,0,1,10.41,7.216.262.262,0,0,1,.058.123,12.143,12.143,0,0,1-.275,5.521l-.342,1.2a.262.262,0,0,1-.466.079,23.951,23.951,0,0,0-10.844-8.393,32.989,32.989,0,0,0-11.8-2.163c-.739,0-1.476.025-2.189.073a.262.262,0,0,1-.253-.375,12.229,12.229,0,0,1,4.382-4.943.262.262,0,0,1,.134-.042Q222.561,133.1,223.126,133.1Zm20.039,9.217a25.612,25.612,0,0,0-10.158-7.015,26.785,26.785,0,0,0-9.881-1.679q-.519,0-1.017.014a11.712,11.712,0,0,0-3.928,4.288c.58-.031,1.173-.047,1.767-.047a33.52,33.52,0,0,1,11.985,2.2,24.546,24.546,0,0,1,10.764,8.14l.194-.684A11.622,11.622,0,0,0,243.166,142.321Z" transform="translate(-195.129 -119.425)" fill="#221714"/>
        </g>
      </g>
      <g id="Group_42867" data-name="Group 42867" transform="translate(41.503 30.783)">
        <g id="Group_42866" data-name="Group 42866" clip-path="url(#clip-path-4)">
          <path id="Path_6019" data-name="Path 6019" d="M337.508,351.434h0a5.22,5.22,0,0,0-7.248-1.4l-.967.655H314.2a5.22,5.22,0,1,0,0,10.439h16.329a7.472,7.472,0,0,0,3.466-1.02l2.111-1.429a5.219,5.219,0,0,0,1.4-7.248" transform="translate(-318.735 -344.044)" fill="#fff"/>
          <path id="Path_6020" data-name="Path 6020" d="M330.894,346.592h0a5.482,5.482,0,0,1,3.077,10.021l-2.111,1.429a5.438,5.438,0,0,1-2.146.863,5.379,5.379,0,0,1-1.467.2H311.918a5.481,5.481,0,0,1,0-10.963h15.008l.9-.609A5.454,5.454,0,0,1,330.894,346.592Zm-2.647,11.991a7.216,7.216,0,0,0,3.319-.975l2.111-1.429a4.958,4.958,0,1,0-5.558-8.211l-.967.654a.262.262,0,0,1-.147.045H311.918a4.958,4.958,0,0,0,0,9.915Z" transform="translate(-316.449 -341.758)" fill="#221714"/>
        </g>
      </g>
      <g id="Group_42869" data-name="Group 42869">
        <g id="Group_42868" data-name="Group 42868" clip-path="url(#clip-path)">
          <path id="Path_6022" data-name="Path 6022" d="M117.125,175.04s-2.535-1.69-3.32.121,2.233,3.169,2.233,3.169" transform="translate(-101.993 -156.409)" fill="#fff"/>
          <path id="Path_6023" data-name="Path 6023" d="M113.719,176.312a.261.261,0,0,1-.107-.023c-.133-.06-3.243-1.487-2.366-3.512a1.539,1.539,0,0,1,.994-.923,3.959,3.959,0,0,1,2.712.689.262.262,0,0,1-.29.436,3.524,3.524,0,0,0-2.274-.622,1.026,1.026,0,0,0-.661.629c-.673,1.552,2.073,2.813,2.1,2.826a.262.262,0,0,1-.108.5Z" transform="translate(-99.673 -154.129)" fill="#221714"/>
          <path id="Path_6024" data-name="Path 6024" d="M516.559,384.782s2.973.668,2.2,2.486-3.835.571-3.835.571" transform="translate(-462.012 -345.24)" fill="#fff"/>
          <path id="Path_6025" data-name="Path 6025" d="M514.686,386.234a6.429,6.429,0,0,1-2.143-.44.262.262,0,0,1,.2-.485c.028.011,2.836,1.128,3.495-.43a1.026,1.026,0,0,0,0-.912c-.436-.849-2-1.212-2.02-1.216a.262.262,0,0,1,.115-.511,3.959,3.959,0,0,1,2.37,1.487,1.539,1.539,0,0,1,.017,1.356A2.007,2.007,0,0,1,514.686,386.234Z" transform="translate(-459.725 -342.953)" fill="#221714"/>
          <path id="Path_6026" data-name="Path 6026" d="M30.1,81.562l.417.844a.544.544,0,0,0,.409.3l.932.135a.544.544,0,0,1,.3.927l-.674.657a.544.544,0,0,0-.156.481l.159.928a.544.544,0,0,1-.789.573l-.833-.438a.543.543,0,0,0-.506,0l-.833.438a.544.544,0,0,1-.789-.573l.159-.928a.544.544,0,0,0-.156-.481l-.674-.657a.544.544,0,0,1,.3-.927L28.3,82.7a.544.544,0,0,0,.409-.3l.417-.844a.544.544,0,0,1,.975,0" transform="translate(-24.134 -72.909)" fill="#fff000"/>
          <path id="Path_6027" data-name="Path 6027" d="M27.324,78.711a.8.8,0,0,1,.722.449l.417.844a.282.282,0,0,0,.212.154l.932.135a.806.806,0,0,1,.447,1.374l-.674.657a.282.282,0,0,0-.081.25l.159.928a.8.8,0,0,1-1.169.849l-.833-.438a.286.286,0,0,0-.262,0l-.834.438a.8.8,0,0,1-.375.094.807.807,0,0,1-.794-.943l.159-.928a.282.282,0,0,0-.081-.25l-.674-.657a.806.806,0,0,1,.447-1.374l.932-.135A.282.282,0,0,0,26.185,80l.417-.844A.8.8,0,0,1,27.324,78.711Zm1.34,5.211a.289.289,0,0,0,.218-.1.271.271,0,0,0,.06-.227l-.159-.928a.806.806,0,0,1,.232-.713l.674-.657a.282.282,0,0,0-.156-.481l-.932-.135a.805.805,0,0,1-.607-.441l-.417-.844a.282.282,0,0,0-.506,0l-.417.844a.805.805,0,0,1-.607.441l-.932.135a.282.282,0,0,0-.156.481l.674.657a.805.805,0,0,1,.232.713l-.159.928a.271.271,0,0,0,.06.227.284.284,0,0,0,.349.07l.833-.438a.819.819,0,0,1,.75,0l.833.438A.28.28,0,0,0,28.664,83.923Z" transform="translate(-21.848 -70.623)" fill="#221714"/>
          <path id="Path_6028" data-name="Path 6028" d="M546.278,486.878l.417.844a.544.544,0,0,0,.409.3l.932.135a.544.544,0,0,1,.3.927l-.674.657a.544.544,0,0,0-.156.481l.159.928a.544.544,0,0,1-.789.573l-.834-.438a.543.543,0,0,0-.506,0l-.833.438a.544.544,0,0,1-.789-.573l.159-.928a.544.544,0,0,0-.156-.481l-.674-.657a.544.544,0,0,1,.3-.927l.932-.135a.543.543,0,0,0,.409-.3l.417-.844a.544.544,0,0,1,.975,0" transform="translate(-487.27 -436.573)" fill="#fff000"/>
          <path id="Path_6029" data-name="Path 6029" d="M543.5,484.027a.8.8,0,0,1,.722.449l.417.844a.282.282,0,0,0,.212.154l.932.135a.806.806,0,0,1,.447,1.374l-.674.657a.282.282,0,0,0-.081.25l.159.928a.8.8,0,0,1-1.169.849l-.833-.438a.286.286,0,0,0-.262,0l-.833.438a.8.8,0,0,1-.375.094.807.807,0,0,1-.794-.943l.159-.928a.282.282,0,0,0-.081-.25l-.674-.657a.806.806,0,0,1,.447-1.374l.932-.135a.282.282,0,0,0,.212-.154l.417-.844A.8.8,0,0,1,543.5,484.027Zm1.34,5.211a.289.289,0,0,0,.218-.1.272.272,0,0,0,.06-.227l-.159-.928a.806.806,0,0,1,.232-.713l.674-.657a.282.282,0,0,0-.156-.481l-.932-.135a.805.805,0,0,1-.607-.441l-.417-.844a.282.282,0,0,0-.506,0l-.417.844a.805.805,0,0,1-.607.441l-.932.135a.282.282,0,0,0-.156.481l.674.657a.806.806,0,0,1,.232.713l-.159.928a.271.271,0,0,0,.06.227.284.284,0,0,0,.349.07l.833-.438a.819.819,0,0,1,.75,0l.833.438A.28.28,0,0,0,544.844,489.239Z" transform="translate(-484.983 -434.286)" fill="#221714"/>
          <path id="Path_6030" data-name="Path 6030" d="M661.652,153.929l.417.844a.543.543,0,0,0,.409.3l.932.135a.544.544,0,0,1,.3.927l-.674.657a.544.544,0,0,0-.156.481l.159.928a.544.544,0,0,1-.789.573l-.834-.438a.543.543,0,0,0-.506,0l-.833.438a.544.544,0,0,1-.789-.573l.159-.928a.544.544,0,0,0-.156-.481l-.674-.657a.544.544,0,0,1,.3-.927l.932-.135a.544.544,0,0,0,.409-.3l.417-.844a.544.544,0,0,1,.975,0" transform="translate(-590.787 -137.839)" fill="#fff000"/>
          <path id="Path_6031" data-name="Path 6031" d="M658.878,151.078a.8.8,0,0,1,.722.449l.417.844a.282.282,0,0,0,.212.154l.932.135a.806.806,0,0,1,.447,1.374l-.674.657a.282.282,0,0,0-.081.25l.159.928a.8.8,0,0,1-1.169.849l-.833-.438a.286.286,0,0,0-.262,0l-.834.438a.8.8,0,0,1-.375.094.807.807,0,0,1-.794-.943l.159-.928a.282.282,0,0,0-.081-.25l-.674-.657a.806.806,0,0,1,.446-1.374l.932-.135a.282.282,0,0,0,.212-.154l.417-.844A.8.8,0,0,1,658.878,151.078Zm1.34,5.211a.289.289,0,0,0,.218-.1.272.272,0,0,0,.06-.227l-.159-.928a.805.805,0,0,1,.232-.713l.674-.657a.282.282,0,0,0-.156-.481l-.932-.135a.805.805,0,0,1-.606-.441l-.417-.844a.282.282,0,0,0-.506,0l-.417.844a.806.806,0,0,1-.607.441l-.932.135a.282.282,0,0,0-.156.481l.674.657a.805.805,0,0,1,.232.713l-.159.928a.272.272,0,0,0,.06.227.284.284,0,0,0,.349.07l.833-.438a.819.819,0,0,1,.75,0l.833.438A.28.28,0,0,0,660.218,156.29Z" transform="translate(-588.501 -135.553)" fill="#221714"/>
          <path id="Path_6032" data-name="Path 6032" d="M678.392,81.862a.834.834,0,1,1-.834-.834.834.834,0,0,1,.834.834" transform="translate(-607.181 -72.701)" fill="#fff"/>
          <path id="Path_6033" data-name="Path 6033" d="M675.272,78.48a1.1,1.1,0,1,1-1.1,1.1A1.1,1.1,0,0,1,675.272,78.48Zm0,1.668a.572.572,0,1,0-.572-.572A.573.573,0,0,0,675.272,80.148Z" transform="translate(-604.895 -70.415)" fill="#221714"/>
          <path id="Path_6034" data-name="Path 6034" d="M617.992,442.741a.834.834,0,1,1-.834-.834.834.834,0,0,1,.834.834" transform="translate(-552.988 -396.495)" fill="#fff"/>
          <path id="Path_6035" data-name="Path 6035" d="M614.872,439.359a1.1,1.1,0,1,1-1.1,1.1A1.1,1.1,0,0,1,614.872,439.359Zm0,1.668a.572.572,0,1,0-.572-.572A.573.573,0,0,0,614.872,441.027Z" transform="translate(-550.702 -394.208)" fill="#221714"/>
          <path id="Path_6036" data-name="Path 6036" d="M239.078,3.381a.834.834,0,1,1-.834-.834.834.834,0,0,1,.834.834" transform="translate(-213.013 -2.285)" fill="#fff"/>
          <path id="Path_6037" data-name="Path 6037" d="M235.958,0a1.1,1.1,0,1,1-1.1,1.1A1.1,1.1,0,0,1,235.958,0Zm0,1.668a.572.572,0,1,0-.572-.572A.573.573,0,0,0,235.958,1.667Z" transform="translate(-210.727 0.001)" fill="#221714"/>
          <path id="Path_6038" data-name="Path 6038" d="M96.09,373.72a.834.834,0,1,1-.834-.834.834.834,0,0,1,.834.834" transform="translate(-84.719 -334.566)" fill="#fff"/>
          <path id="Path_6039" data-name="Path 6039" d="M92.97,370.338a1.1,1.1,0,1,1-1.1,1.1A1.1,1.1,0,0,1,92.97,370.338Zm0,1.668a.572.572,0,1,0-.572-.572A.573.573,0,0,0,92.97,372.006Z" transform="translate(-82.433 -332.28)" fill="#221714"/>
          <path id="Path_6040" data-name="Path 6040" d="M598.6,56.01s1.443.066,1.83-1.822c0,0,.416,1.875,1.813,1.875,0,0-1.853.182-1.853,2.816,0,0,.1-2.3-1.79-2.87" transform="translate(-537.084 -48.619)" fill="#9de3fc"/>
          <path id="Path_6041" data-name="Path 6041" d="M53.286,420.9s1.443.066,1.83-1.822c0,0,.416,1.875,1.813,1.875,0,0-1.853.182-1.853,2.816,0,0,.1-2.3-1.79-2.87" transform="translate(-47.81 -376.015)" fill="#9de3fc"/>
          <path id="Path_6042" data-name="Path 6042" d="M598.15,51.642a.262.262,0,0,1,.255.2c0,.017.39,1.671,1.558,1.671a.262.262,0,0,1,.027.522c-.064.007-1.579.2-1.617,2.467h0c0,.019,0,.066,0,.088h0c0,.006,0,.011,0,.012a.262.262,0,0,1-.523-.012.3.3,0,0,1,0-.049.258.258,0,0,1,0-.04,2.547,2.547,0,0,0-1.6-2.529.262.262,0,0,1,.085-.512c.213,0,1.249-.078,1.563-1.613a.262.262,0,0,1,.254-.209Zm.976,2.183a2.5,2.5,0,0,1-.962-1.114,2.153,2.153,0,0,1-1.06,1.1,2.713,2.713,0,0,1,.994,1.286A2.494,2.494,0,0,1,599.126,53.825Z" transform="translate(-534.806 -46.335)" fill="#221714"/>
          <path id="Path_6043" data-name="Path 6043" d="M52.837,416.536a.262.262,0,0,1,.255.2c0,.017.39,1.671,1.558,1.671a.262.262,0,0,1,.027.522c-.064.007-1.579.2-1.617,2.467h0c0,.019,0,.066,0,.088h0c0,.006,0,.011,0,.012a.262.262,0,0,1-.523-.012.29.29,0,0,1,0-.049.263.263,0,0,1,0-.04,2.547,2.547,0,0,0-1.6-2.529.262.262,0,0,1,.085-.512c.215,0,1.249-.078,1.563-1.613a.262.262,0,0,1,.254-.209Zm.976,2.183a2.5,2.5,0,0,1-.962-1.114,2.154,2.154,0,0,1-1.06,1.1,2.713,2.713,0,0,1,.994,1.286A2.5,2.5,0,0,1,53.813,418.719Z" transform="translate(-45.532 -373.731)" fill="#221714"/>
          <path id="Path_6044" data-name="Path 6044" d="M6.763,191.309l.217.439a.283.283,0,0,0,.213.155l.485.071a.283.283,0,0,1,.157.482l-.351.342a.283.283,0,0,0-.081.25l.083.483a.283.283,0,0,1-.41.3l-.433-.228a.283.283,0,0,0-.263,0l-.433.228a.283.283,0,0,1-.41-.3l.083-.483a.283.283,0,0,0-.081-.25l-.351-.342a.283.283,0,0,1,.157-.482l.485-.071a.283.283,0,0,0,.213-.155l.217-.439a.283.283,0,0,1,.507,0" transform="translate(-4.575 -171.508)" fill="#f4b6d1"/>
          <path id="Path_6045" data-name="Path 6045" d="M6.763,191.309l.217.439a.283.283,0,0,0,.213.155l.485.071a.283.283,0,0,1,.157.482l-.351.342a.283.283,0,0,0-.081.25l.083.483a.283.283,0,0,1-.41.3l-.433-.228a.283.283,0,0,0-.263,0l-.433.228a.283.283,0,0,1-.41-.3l.083-.483a.283.283,0,0,0-.081-.25l-.351-.342a.283.283,0,0,1,.157-.482l.485-.071a.283.283,0,0,0,.213-.155l.217-.439a.283.283,0,0,1,.507,0" transform="translate(-4.575 -171.508)" fill="#f4b6d1"/>
          <path id="Path_6046" data-name="Path 6046" d="M1.934,186.579a.28.28,0,0,1,.254.158l.217.439a.283.283,0,0,0,.213.155l.485.07a.283.283,0,0,1,.157.482l-.351.342a.282.282,0,0,0-.081.25l.083.483a.282.282,0,0,1-.41.3l-.433-.228a.283.283,0,0,0-.263,0l-.433.228a.28.28,0,0,1-.132.033.283.283,0,0,1-.279-.331l.083-.483a.282.282,0,0,0-.081-.25l-.351-.342a.283.283,0,0,1,.157-.482l.485-.07a.283.283,0,0,0,.213-.155l.217-.439a.28.28,0,0,1,.254-.158m0-.524a.8.8,0,0,0-.723.45l-.161.325-.359.052a.806.806,0,0,0-.447,1.376l.26.253-.061.358a.806.806,0,0,0,1.17.85l.321-.169.321.169a.806.806,0,0,0,1.17-.85l-.061-.358.26-.253a.806.806,0,0,0-.447-1.376l-.359-.052-.161-.325a.8.8,0,0,0-.723-.45" transform="translate(0 -166.935)" fill="#221714"/>
          <path id="Path_6047" data-name="Path 6047" d="M731.89,340.342l.217.439a.282.282,0,0,0,.213.155l.484.07a.283.283,0,0,1,.157.482l-.351.342a.283.283,0,0,0-.081.25l.083.483a.283.283,0,0,1-.41.3l-.433-.228a.284.284,0,0,0-.263,0l-.433.228a.283.283,0,0,1-.41-.3l.083-.483a.283.283,0,0,0-.081-.25l-.351-.342a.283.283,0,0,1,.157-.482l.485-.07a.282.282,0,0,0,.213-.155l.217-.439a.283.283,0,0,1,.507,0" transform="translate(-655.185 -305.225)" fill="#f4b6d1"/>
          <path id="Path_6048" data-name="Path 6048" d="M731.89,340.342l.217.439a.282.282,0,0,0,.213.155l.484.07a.283.283,0,0,1,.157.482l-.351.342a.283.283,0,0,0-.081.25l.083.483a.283.283,0,0,1-.41.3l-.433-.228a.284.284,0,0,0-.263,0l-.433.228a.283.283,0,0,1-.41-.3l.083-.483a.283.283,0,0,0-.081-.25l-.351-.342a.283.283,0,0,1,.157-.482l.485-.07a.282.282,0,0,0,.213-.155l.217-.439a.283.283,0,0,1,.507,0" transform="translate(-655.185 -305.225)" fill="#f4b6d1"/>
          <path id="Path_6049" data-name="Path 6049" d="M727.061,335.612a.279.279,0,0,1,.254.158l.217.439a.283.283,0,0,0,.213.155l.485.07a.283.283,0,0,1,.157.482l-.351.342a.282.282,0,0,0-.081.25l.083.483a.282.282,0,0,1-.41.3l-.433-.228a.283.283,0,0,0-.263,0l-.433.228a.282.282,0,0,1-.41-.3l.083-.483a.283.283,0,0,0-.081-.25l-.351-.342a.283.283,0,0,1,.157-.482l.485-.07a.283.283,0,0,0,.213-.155l.217-.439a.28.28,0,0,1,.254-.158m0-.524a.8.8,0,0,0-.723.449l-.161.326-.359.052a.806.806,0,0,0-.447,1.375l.26.253-.061.358a.806.806,0,0,0,1.17.85l.321-.169.321.169a.806.806,0,0,0,1.17-.85l-.061-.358.26-.253a.807.807,0,0,0-.447-1.376l-.359-.052-.161-.325a.8.8,0,0,0-.723-.45" transform="translate(-650.61 -300.653)" fill="#221714"/>
          <path id="Path_6050" data-name="Path 6050" d="M131.579,64.473a1.725,1.725,0,0,0-1.593-1.848c-.054,0-.108,0-.161,0,.025-.047.05-.095.071-.144a1.725,1.725,0,1,0-3.293-.909,1.725,1.725,0,1,0-2.406,2.425c.043.032.088.062.133.09-.047.026-.093.053-.138.083a1.725,1.725,0,0,0,1.931,2.859c.045-.03.088-.063.129-.1.009.052.02.1.034.157a1.725,1.725,0,0,0,3.334-.887c-.014-.053-.031-.1-.049-.153.052.009.106.016.16.02a1.725,1.725,0,0,0,1.848-1.593m-4.72.838a1.71,1.71,0,0,0-.8-1.186,1.715,1.715,0,0,0,.883-1.287,1.716,1.716,0,0,0,1.406.678,1.711,1.711,0,0,0-.106,1.427,1.711,1.711,0,0,0-1.383.368" transform="translate(-110.75 -53.895)" fill="#4db7e7"/>
          <path id="Path_6051" data-name="Path 6051" d="M125.674,66.344a1.989,1.989,0,0,1-1.856-1.282,1.987,1.987,0,0,1-2.212-3.276,1.987,1.987,0,0,1,2.54-3.05l.044.034.021-.052A1.987,1.987,0,0,1,127.93,60.1a1.987,1.987,0,0,1,1.632,2.1,1.994,1.994,0,0,1-1.924,1.839,1.987,1.987,0,0,1-1.452,2.231A1.992,1.992,0,0,1,125.674,66.344Zm-1.7-1.963a.262.262,0,0,1,.258.218c.008.045.017.089.028.134a1.463,1.463,0,0,0,2.828-.752c-.012-.045-.026-.088-.042-.13a.262.262,0,0,1,.289-.348c.045.007.09.014.136.017l.11,0a1.463,1.463,0,0,0,.106-2.923l-.088-.236-.014-.008-.034.241a.262.262,0,0,1-.235-.387c.022-.04.042-.08.061-.123a1.463,1.463,0,1,0-2.792-.771.262.262,0,0,1-.468.124,1.463,1.463,0,1,0-2.041,2.057c.037.028.075.052.113.076a.262.262,0,0,1-.011.453c-.04.022-.079.045-.117.071a1.463,1.463,0,1,0,1.638,2.425c.038-.026.074-.054.109-.082A.262.262,0,0,1,123.974,64.381Zm.606-1.094a.262.262,0,0,1-.258-.219,1.449,1.449,0,0,0-.679-1.005.262.262,0,0,1,.011-.453,1.453,1.453,0,0,0,.749-1.091.262.262,0,0,1,.468-.125,1.453,1.453,0,0,0,1.161.575.293.293,0,0,1,.244.128.264.264,0,0,1,.022.259,1.449,1.449,0,0,0-.09,1.21.262.262,0,0,1-.29.349,1.471,1.471,0,0,0-.62.027,1.45,1.45,0,0,0-.552.284A.262.262,0,0,1,124.58,63.287Zm-.352-1.437a1.973,1.973,0,0,1,.51.755,1.97,1.97,0,0,1,.88-.234,1.976,1.976,0,0,1,.068-.91,1.907,1.907,0,0,1-.439-.13,1.981,1.981,0,0,1-.448-.269,1.974,1.974,0,0,1-.571.788Z" transform="translate(-108.47 -51.609)" fill="#221714"/>
          <path id="Path_6052" data-name="Path 6052" d="M146.4,86.932a1.67,1.67,0,1,1,1.534-1.008A1.659,1.659,0,0,1,146.4,86.932Zm0-2.818a1.147,1.147,0,1,0,.454.094A1.147,1.147,0,0,0,146.4,84.114Z" transform="translate(-129.854 -75.001)" fill="#221714"/>
          <path id="Path_6053" data-name="Path 6053" d="M149.972,88.106a1.408,1.408,0,1,1-.734-1.852,1.408,1.408,0,0,1,.734,1.852" transform="translate(-132.137 -77.287)" fill="#fff"/>
          <path id="Path_6054" data-name="Path 6054" d="M146.4,86.932a1.67,1.67,0,1,1,1.534-1.008A1.659,1.659,0,0,1,146.4,86.932Zm0-2.818a1.147,1.147,0,1,0,.454.094A1.147,1.147,0,0,0,146.4,84.114Z" transform="translate(-129.854 -75.001)" fill="#221714"/>
        </g>
      </g>
    </g>
  </g>
</svg>
