<svg xmlns="http://www.w3.org/2000/svg" xmlns:xlink="http://www.w3.org/1999/xlink" width="220" height="280" viewBox="0 0 220 280">
  <defs>
    <clipPath id="clip-path">
      <rect id="Rectangle_268" data-name="Rectangle 268" width="160.449" height="277.856" fill="none"/>
    </clipPath>
    <clipPath id="clip-path-2">
      <rect id="Rectangle_269" data-name="Rectangle 269" width="27.61" height="77.309" transform="translate(49.542 204.182) rotate(-88.638)" fill="none"/>
    </clipPath>
    <clipPath id="clip-Img-charactor-men">
      <rect width="220" height="280"/>
    </clipPath>
  </defs>
  <g id="Img-charactor-men" clip-path="url(#clip-Img-charactor-men)">
    <g id="Group_42999" data-name="Group 42999" transform="translate(15703 -8150)">
      <rect id="Rectangle_13827" data-name="Rectangle 13827" width="220" height="280" transform="translate(-15703 8150)" fill="none"/>
      <g id="Group_361" data-name="Group 361" transform="translate(-15673 8151)">
        <g id="Group_356" data-name="Group 356">
          <g id="Group_355" data-name="Group 355" clip-path="url(#clip-path)">
            <path id="Path_4444" data-name="Path 4444" d="M142.336,254.131c0,6.79-23.394,12.294-52.253,12.294s-52.252-5.5-52.252-12.294,23.394-12.294,52.252-12.294,52.253,5.5,52.253,12.294" fill="#e4eef2"/>
            <path id="Path_4445" data-name="Path 4445" d="M160.449,265.994c0,6.551-16,11.862-35.747,11.862s-35.746-5.311-35.746-11.862,16-11.862,35.746-11.862,35.747,5.311,35.747,11.862" fill="#e4eef2"/>
            <path id="Path_4446" data-name="Path 4446" d="M142.36,128.089,154.539,146.1l-.13,13.617-17.772,1.506-17.171-25.3" fill="#fadbc5"/>
            <path id="Path_4447" data-name="Path 4447" d="M142.36,128.089,154.539,146.1l-.13,13.617-17.772,1.506-17.171-25.3" fill="none" stroke="#221714" stroke-linejoin="round" stroke-width="1.894"/>
            <path id="Path_4448" data-name="Path 4448" d="M17.2,149.052a6.649,6.649,0,0,0-8.182-1.661,4.528,4.528,0,0,0-1.206,7.015" fill="#fadbc5"/>
            <path id="Path_4449" data-name="Path 4449" d="M17.2,149.052a6.649,6.649,0,0,0-8.182-1.661,4.528,4.528,0,0,0-1.206,7.015" fill="none" stroke="#221714" stroke-linecap="round" stroke-linejoin="round" stroke-width="1.894"/>
            <path id="Path_4450" data-name="Path 4450" d="M1.12,160.594c1.011-5.7,6.241-9.626,12.557-10L36.64,128.21a14.468,14.468,0,0,1,10.812-4.431,17.614,17.614,0,0,1,10.216,3.258c5.784,4.142,7.623,10.9,4.812,16.171-.436.817-13.151,12.09-13.813,12.819l-1.091,1.2L32.945,173.34c-3.314,3.65-8.841,5.22-14.357,4.078l-4.863-1.007c-8.21-1.7-13.854-8.781-12.605-15.817" fill="#fadbc5"/>
            <path id="Path_4451" data-name="Path 4451" d="M62.48,143.208c2.811-5.266.972-12.029-4.812-16.171-6.68-4.784-16.095-4.259-21.028,1.173L13.677,150.591c-6.316.377-11.546,4.3-12.557,10-1.249,7.036,4.395,14.118,12.605,15.817l4.863,1.007c5.516,1.142,11.043-.428,14.357-4.078l15.722-17.313C49.329,155.3,62.044,144.025,62.48,143.208Z" fill="none" stroke="#221714" stroke-linecap="round" stroke-linejoin="round" stroke-width="1.894"/>
            <rect id="Rectangle_264" data-name="Rectangle 264" width="75.812" height="55.4" transform="translate(12.702 135.9)" fill="#fff"/>
            <rect id="Rectangle_265" data-name="Rectangle 265" width="75.812" height="55.4" transform="translate(12.702 135.9)" fill="none" stroke="#221714" stroke-linejoin="round" stroke-width="1.894"/>
            <path id="Path_4452" data-name="Path 4452" d="M109.491,16.091a3.915,3.915,0,0,1-3.407-5.665c4.078-8.163,13.8-9.4,14.207-9.454a3.915,3.915,0,0,1,.946,7.773c-.135.018-5.989.858-8.149,5.181a3.916,3.916,0,0,1-3.6,2.165" fill="#ec7463"/>
            <path id="Path_4453" data-name="Path 4453" d="M109.491,16.091a3.915,3.915,0,0,1-3.407-5.665c4.078-8.163,13.8-9.4,14.207-9.454a3.915,3.915,0,0,1,.946,7.773c-.135.018-5.989.858-8.149,5.181A3.916,3.916,0,0,1,109.491,16.091Z" fill="none" stroke="#221714" stroke-linecap="round" stroke-linejoin="round" stroke-width="1.894"/>
            <path id="Path_4454" data-name="Path 4454" d="M148.3,116.368,39.774,113.787l6.168-50.428C46.56,37.4,69.131,16.888,96.356,17.535s48.8,22.214,48.179,48.169Z" fill="#221714"/>
            <path id="Path_4455" data-name="Path 4455" d="M148.3,116.368,39.774,113.787l6.168-50.428C46.56,37.4,69.131,16.888,96.356,17.535s48.8,22.214,48.179,48.169Z" fill="none" stroke="#221714" stroke-linejoin="round" stroke-width="1.894"/>
            <path id="Path_4456" data-name="Path 4456" d="M47.226,53.333S31.313,29.7,55.844,11.576,126,6.015,144.151,26.859c14.548,16.71,10.326,35.027.555,36.7L138.361,52.4,53.722,36.425Z" fill="#ec7463"/>
            <path id="Path_4457" data-name="Path 4457" d="M47.226,53.333S31.313,29.7,55.844,11.576,126,6.015,144.151,26.859c14.548,16.71,10.326,35.027.555,36.7L138.361,52.4,53.722,36.425Z" fill="none" stroke="#221714" stroke-linecap="round" stroke-linejoin="round" stroke-width="1.894"/>
            <path id="Path_4458" data-name="Path 4458" d="M64.89,80.054A16.554,16.554,0,1,1,48.734,63.111,16.554,16.554,0,0,1,64.89,80.054" fill="#fadbc5"/>
            <path id="Path_4459" data-name="Path 4459" d="M64.89,80.054A16.554,16.554,0,1,1,48.734,63.111,16.554,16.554,0,0,1,64.89,80.054Z" fill="none" stroke="#221714" stroke-linejoin="round" stroke-width="1.894"/>
            <path id="Path_4460" data-name="Path 4460" d="M35.975,55.391S29.236,42.939,15.61,49.185c0,0,2.519,13.136,17.118,12.364" fill="#f1975b"/>
            <path id="Path_4461" data-name="Path 4461" d="M35.975,55.391S29.236,42.939,15.61,49.185c0,0,2.519,13.136,17.118,12.364" fill="none" stroke="#221714" stroke-linecap="round" stroke-linejoin="round" stroke-width="1.894"/>
            <path id="Path_4462" data-name="Path 4462" d="M32.728,61.549l3.246-6.158L72.161,74.475a3.481,3.481,0,1,1-3.248,6.157Z" fill="#63b631"/>
            <path id="Path_4463" data-name="Path 4463" d="M32.728,61.549l3.246-6.158L72.161,74.475a3.481,3.481,0,1,1-3.248,6.157Z" fill="none" stroke="#221714" stroke-linecap="round" stroke-linejoin="round" stroke-width="1.894"/>
            <line id="Line_578" data-name="Line 578" x2="17.874" y2="0.425" transform="translate(47.028 79.117)" fill="none" stroke="#221714" stroke-linecap="round" stroke-linejoin="round" stroke-width="1.894"/>
            <path id="Path_4464" data-name="Path 4464" d="M56.529,60.713,50.1,85.159,47.574,60.5Z" fill="#221714"/>
            <path id="Path_4465" data-name="Path 4465" d="M122.222,81.418a16.554,16.554,0,1,0,16.943-16.156,16.555,16.555,0,0,0-16.943,16.156" fill="#fadbc5"/>
            <path id="Path_4466" data-name="Path 4466" d="M122.222,81.418a16.554,16.554,0,1,0,16.943-16.156A16.555,16.555,0,0,0,122.222,81.418Z" fill="none" stroke="#221714" stroke-linejoin="round" stroke-width="1.894"/>
            <line id="Line_579" data-name="Line 579" x1="20.478" y1="0.487" transform="translate(122.234 80.906)" fill="none" stroke="#221714" stroke-linecap="round" stroke-linejoin="round" stroke-width="1.894"/>
            <path id="Path_4467" data-name="Path 4467" d="M67.231,259.865,56.269,259.6a17.571,17.571,0,0,1-5.876-33.971l.71-37.485A17.569,17.569,0,0,1,69,170.916l.087,0a17.568,17.568,0,0,1,17.146,17.9l-1.02,53.82a17.569,17.569,0,0,1-17.983,17.231" fill="#fadbc5"/>
            <path id="Path_4468" data-name="Path 4468" d="M67.231,259.865,56.269,259.6a17.571,17.571,0,0,1-5.876-33.971l.71-37.485A17.569,17.569,0,0,1,69,170.916l.087,0a17.568,17.568,0,0,1,17.146,17.9l-1.02,53.82a17.569,17.569,0,0,1-17.983,17.231Z" fill="none" stroke="#221714" stroke-linecap="round" stroke-linejoin="round" stroke-width="1.894"/>
            <path id="Path_4469" data-name="Path 4469" d="M50.393,225.634a17.572,17.572,0,0,0,5.877,33.971l10.96.261a17.57,17.57,0,0,0,17.985-17.231l.51-26.958L50.6,214.842Z" fill="#cd9c7b"/>
            <path id="Path_4470" data-name="Path 4470" d="M50.393,225.634a17.572,17.572,0,0,0,5.877,33.971l10.96.261a17.57,17.57,0,0,0,17.985-17.231l.51-26.958L50.6,214.842Z" fill="none" stroke="#221714" stroke-linecap="round" stroke-linejoin="round" stroke-width="1.894"/>
            <path id="Path_4471" data-name="Path 4471" d="M107.051,260.812l-10.962-.261a17.571,17.571,0,0,1-5.876-33.971l.71-37.485a17.569,17.569,0,0,1,17.9-17.232l.087,0a17.568,17.568,0,0,1,17.146,17.9l-1.02,53.82a17.569,17.569,0,0,1-17.983,17.231" fill="#fadbc5"/>
            <path id="Path_4472" data-name="Path 4472" d="M107.051,260.812l-10.962-.261a17.571,17.571,0,0,1-5.876-33.971l.71-37.485a17.569,17.569,0,0,1,17.9-17.232l.087,0a17.568,17.568,0,0,1,17.146,17.9l-1.02,53.82a17.569,17.569,0,0,1-17.983,17.231Z" fill="none" stroke="#221714" stroke-linecap="round" stroke-linejoin="round" stroke-width="1.894"/>
            <rect id="Rectangle_266" data-name="Rectangle 266" width="27.61" height="77.308" transform="matrix(0.024, -1, 1, 0.024, 49.543, 204.182)" fill="#ec7463"/>
            <rect id="Rectangle_267" data-name="Rectangle 267" width="27.61" height="77.308" transform="matrix(0.024, -1, 1, 0.024, 49.543, 204.182)" fill="#4db7e7"/>
          </g>
        </g>
        <g id="Group_358" data-name="Group 358">
          <g id="Group_357" data-name="Group 357" clip-path="url(#clip-path-2)">
            <path id="Path_4473" data-name="Path 4473" d="M20.467,258.373a.978.978,0,0,1-.955-1l2.918-122.7a.979.979,0,1,1,1.957.047L21.469,257.418a.978.978,0,0,1-1,.955" fill="#fff"/>
            <path id="Path_4474" data-name="Path 4474" d="M32.186,258.652a.978.978,0,0,1-.955-1l2.918-122.695a.979.979,0,1,1,1.957.047L33.188,257.7a.978.978,0,0,1-1,.955" fill="#fff"/>
            <path id="Path_4475" data-name="Path 4475" d="M43.9,258.93a.978.978,0,0,1-.955-1l2.918-122.7a.979.979,0,1,1,1.957.047L44.9,257.975a.978.978,0,0,1-1,.955" fill="#fff"/>
            <path id="Path_4476" data-name="Path 4476" d="M55.622,259.209a.978.978,0,0,1-.955-1l2.918-122.7a.979.979,0,0,1,1.957.047L56.624,258.254a.978.978,0,0,1-1,.955" fill="#fff"/>
            <path id="Path_4477" data-name="Path 4477" d="M67.34,259.488a.979.979,0,0,1-.956-1L69.3,135.791a.979.979,0,0,1,1.957.047L68.341,258.533a.978.978,0,0,1-1,.955" fill="#fff"/>
            <path id="Path_4478" data-name="Path 4478" d="M79.059,259.766a.978.978,0,0,1-.955-1l2.918-122.7a.979.979,0,1,1,1.957.047l-2.918,122.7a.978.978,0,0,1-1,.955" fill="#fff"/>
            <path id="Path_4479" data-name="Path 4479" d="M90.776,260.045a.978.978,0,0,1-.955-1l2.918-122.695a.979.979,0,0,1,1.957.047L91.778,259.09a.978.978,0,0,1-1,.955" fill="#fff"/>
            <path id="Path_4480" data-name="Path 4480" d="M102.5,260.324a.978.978,0,0,1-.955-1l2.918-122.695a.979.979,0,0,1,1.957.047L103.5,259.369a.978.978,0,0,1-1,.955" fill="#fff"/>
            <path id="Path_4481" data-name="Path 4481" d="M114.212,260.6a.978.978,0,0,1-.955-1l2.918-122.7a.979.979,0,1,1,1.957.047l-2.918,122.7a.978.978,0,0,1-1,.955" fill="#fff"/>
            <path id="Path_4482" data-name="Path 4482" d="M125.931,260.881a.978.978,0,0,1-.955-1l2.918-122.695a.979.979,0,1,1,1.957.047l-2.918,122.695a.978.978,0,0,1-1,.955" fill="#fff"/>
            <path id="Path_4483" data-name="Path 4483" d="M137.648,261.16a.978.978,0,0,1-.955-1l2.918-122.695a.979.979,0,1,1,1.957.047L138.65,260.2a.978.978,0,0,1-1,.955" fill="#fff"/>
            <path id="Path_4484" data-name="Path 4484" d="M140.472,258.468,17.777,255.55a.979.979,0,0,1,.047-1.957l122.695,2.918a.979.979,0,1,1-.047,1.957" fill="#fff"/>
            <path id="Path_4485" data-name="Path 4485" d="M140.75,246.75,18.055,243.832a.979.979,0,0,1,.047-1.957L140.8,244.793a.979.979,0,1,1-.047,1.957" fill="#fff"/>
            <path id="Path_4486" data-name="Path 4486" d="M141.029,235.031l-122.7-2.918a.979.979,0,1,1,.047-1.957l122.7,2.918a.979.979,0,1,1-.047,1.957" fill="#fff"/>
            <path id="Path_4487" data-name="Path 4487" d="M141.308,223.314,18.613,220.4a.979.979,0,0,1,.047-1.957l122.695,2.918a.979.979,0,0,1-.047,1.957" fill="#fff"/>
            <path id="Path_4488" data-name="Path 4488" d="M141.586,211.6,18.891,208.679a.979.979,0,0,1,.047-1.957l122.695,2.918a.979.979,0,1,1-.047,1.957" fill="#fff"/>
            <path id="Path_4489" data-name="Path 4489" d="M141.865,199.878,19.17,196.96A.979.979,0,0,1,19.217,195l122.7,2.918a.979.979,0,1,1-.047,1.957" fill="#fff"/>
            <path id="Path_4490" data-name="Path 4490" d="M142.144,188.161,19.449,185.243a.979.979,0,0,1,.047-1.957L142.191,186.2a.979.979,0,1,1-.047,1.957" fill="#fff"/>
            <path id="Path_4491" data-name="Path 4491" d="M142.422,176.442,19.727,173.524a.979.979,0,0,1,.047-1.957l122.695,2.918a.979.979,0,1,1-.047,1.957" fill="#fff"/>
            <path id="Path_4492" data-name="Path 4492" d="M142.7,164.724l-122.7-2.918a.979.979,0,0,1,.047-1.957l122.7,2.918a.979.979,0,1,1-.047,1.957" fill="#fff"/>
            <path id="Path_4493" data-name="Path 4493" d="M142.98,153.005,20.285,150.087a.979.979,0,0,1,.047-1.957l122.695,2.918a.979.979,0,0,1-.047,1.957" fill="#fff"/>
            <path id="Path_4494" data-name="Path 4494" d="M143.258,141.288,20.563,138.37a.979.979,0,0,1,.047-1.957L143.3,139.331a.979.979,0,0,1-.047,1.957" fill="#fff"/>
          </g>
        </g>
        <g id="Group_360" data-name="Group 360">
          <g id="Group_359" data-name="Group 359" clip-path="url(#clip-path)">
            <rect id="Rectangle_270" data-name="Rectangle 270" width="27.61" height="77.308" transform="matrix(0.024, -1, 1, 0.024, 49.543, 204.182)" fill="none" stroke="#221714" stroke-linecap="round" stroke-linejoin="round" stroke-width="1.894"/>
            <path id="Path_4495" data-name="Path 4495" d="M90.276,226.582a17.572,17.572,0,0,0,5.877,33.971l10.961.261A17.569,17.569,0,0,0,125.1,243.583l.51-26.958L90.48,215.79Z" fill="#cd9c7b"/>
            <path id="Path_4496" data-name="Path 4496" d="M90.276,226.582a17.572,17.572,0,0,0,5.877,33.971l10.961.261A17.569,17.569,0,0,0,125.1,243.583l.51-26.958L90.48,215.79Z" fill="none" stroke="#221714" stroke-linecap="round" stroke-linejoin="round" stroke-width="1.894"/>
            <path id="Path_4497" data-name="Path 4497" d="M105.628,224.864c-.6-.367-1.206-.729-1.81-1.092a26.467,26.467,0,0,1,3.849-1.256,1.224,1.224,0,0,0-.594-2.374,29.045,29.045,0,0,0-5.81,2.089c-.589-.356-1.177-.715-1.768-1.066a9.612,9.612,0,0,0-3.317-1.376,1.266,1.266,0,0,0-1.524.819,1.232,1.232,0,0,0,.818,1.525,8.128,8.128,0,0,1,2.915,1.222c.113.067.225.135.337.2-1.416.813-2.808,1.67-4.191,2.537-1.329.832-.156,2.98,1.184,2.141,1.779-1.114,3.553-2.245,5.408-3.231l.115.07q1.433.864,2.866,1.728a7.157,7.157,0,0,1,2.176,1.755,1.23,1.23,0,0,0,1.729.041,1.253,1.253,0,0,0,.041-1.73,8.341,8.341,0,0,0-2.424-2.005" fill="#221714"/>
            <path id="Path_4498" data-name="Path 4498" d="M66.512,223.934c-.6-.367-1.206-.729-1.81-1.092a26.469,26.469,0,0,1,3.849-1.256,1.224,1.224,0,0,0-.594-2.374,29.046,29.046,0,0,0-5.81,2.089c-.589-.356-1.177-.715-1.768-1.066a9.612,9.612,0,0,0-3.317-1.376,1.266,1.266,0,0,0-1.524.819,1.232,1.232,0,0,0,.818,1.525,8.128,8.128,0,0,1,2.915,1.222c.113.067.225.135.337.2-1.416.813-2.808,1.67-4.191,2.537-1.329.832-.156,2.98,1.184,2.141,1.779-1.114,3.553-2.245,5.408-3.231l.115.07q1.432.864,2.866,1.728a7.141,7.141,0,0,1,2.175,1.755,1.231,1.231,0,0,0,1.73.041,1.253,1.253,0,0,0,.041-1.73,8.341,8.341,0,0,0-2.424-2" fill="#221714"/>
            <path id="Path_4499" data-name="Path 4499" d="M149.324,130.013l-13.833-14.507a16.021,16.021,0,0,0-13.625-4.836l-64.858-1.543-.116.713a16.005,16.005,0,0,0-12.062,4.391L30.323,128.065l20.169,21.151-2.639,27.935,82.244,1.956-1.486-29.343Z" fill="#fff000"/>
            <path id="Path_4500" data-name="Path 4500" d="M102.915,142.2a7.693,7.693,0,0,0-9.79-4.746c-.229.079-.45.171-.666.269.022-.237.036-.475.036-.717a7.694,7.694,0,1,0-15.088,2.1,7.691,7.691,0,1,0-5.56,14.184c.236.056.471.1.706.132-.146.187-.287.38-.417.584A7.694,7.694,0,0,0,85.1,162.3c.131-.2.247-.413.356-.624.129.2.266.4.415.586a7.694,7.694,0,0,0,12.081-9.53c-.149-.19-.308-.369-.472-.54.23-.057.46-.122.689-.2a7.693,7.693,0,0,0,4.747-9.791M85.074,153.981a7.628,7.628,0,0,0-5.376-3.438,7.651,7.651,0,0,0,1.339-6.832,7.646,7.646,0,0,0,6.955.29,7.634,7.634,0,0,0,2.092,6.028,7.629,7.629,0,0,0-5.01,3.952" fill="#f4b6d1"/>
            <path id="Path_4501" data-name="Path 4501" d="M102.915,142.2a7.693,7.693,0,0,0-9.79-4.746c-.229.079-.45.171-.666.269.022-.237.036-.475.036-.717a7.694,7.694,0,1,0-15.088,2.1,7.691,7.691,0,1,0-5.56,14.184c.236.056.471.1.706.132-.146.187-.287.38-.417.584A7.694,7.694,0,0,0,85.1,162.3c.131-.2.247-.413.356-.624.129.2.266.4.415.586a7.694,7.694,0,0,0,12.081-9.53c-.149-.19-.308-.369-.472-.54.23-.057.46-.122.689-.2A7.693,7.693,0,0,0,102.915,142.2ZM85.074,153.981a7.628,7.628,0,0,0-5.376-3.438,7.651,7.651,0,0,0,1.339-6.832,7.646,7.646,0,0,0,6.955.29,7.634,7.634,0,0,0,2.092,6.028,7.629,7.629,0,0,0-5.01,3.952Z" fill="none" stroke="#221714" stroke-linecap="round" stroke-linejoin="round" stroke-width="1.894"/>
            <path id="Path_4502" data-name="Path 4502" d="M91.083,148.485A6.282,6.282,0,1,1,84.8,142.2,6.281,6.281,0,0,1,91.083,148.485Z" fill="none" stroke="#221714" stroke-linecap="round" stroke-linejoin="round" stroke-width="1.614"/>
            <path id="Path_4503" data-name="Path 4503" d="M91.083,148.485A6.282,6.282,0,1,1,84.8,142.2a6.281,6.281,0,0,1,6.281,6.281" fill="#fff"/>
            <path id="Path_4504" data-name="Path 4504" d="M91.083,148.485A6.282,6.282,0,1,1,84.8,142.2,6.281,6.281,0,0,1,91.083,148.485Z" fill="none" stroke="#221714" stroke-linecap="round" stroke-linejoin="round" stroke-width="1.894"/>
            <path id="Path_4505" data-name="Path 4505" d="M149.324,130.013l-13.833-14.507a16.021,16.021,0,0,0-13.625-4.836l-64.858-1.543-.116.713a16.005,16.005,0,0,0-12.062,4.391L30.323,128.065l20.169,21.151-2.639,27.935,82.244,1.956-1.486-29.343Z" fill="none" stroke="#221714" stroke-linecap="round" stroke-linejoin="round" stroke-width="1.894"/>
            <rect id="Rectangle_271" data-name="Rectangle 271" width="4.495" height="27.5" transform="translate(112.83 166.609)" fill="#f3f3f4"/>
            <rect id="Rectangle_272" data-name="Rectangle 272" width="4.495" height="27.5" transform="translate(112.83 166.609)" fill="none" stroke="#221714" stroke-linecap="round" stroke-linejoin="round" stroke-width="1.894"/>
            <rect id="Rectangle_273" data-name="Rectangle 273" width="4.495" height="27.5" transform="translate(133.953 166.609)" fill="#f3f3f4"/>
            <rect id="Rectangle_274" data-name="Rectangle 274" width="4.495" height="27.5" transform="translate(133.953 166.609)" fill="none" stroke="#221714" stroke-linecap="round" stroke-linejoin="round" stroke-width="1.894"/>
            <path id="Path_4506" data-name="Path 4506" d="M114.189,265.986a5.781,5.781,0,1,1-5.78-5.78,5.78,5.78,0,0,1,5.78,5.78" fill="#221714"/>
            <path id="Path_4507" data-name="Path 4507" d="M114.189,265.986a5.781,5.781,0,1,1-5.78-5.78A5.78,5.78,0,0,1,114.189,265.986Z" fill="none" stroke="#221714" stroke-linecap="round" stroke-linejoin="round" stroke-width="1.894"/>
            <path id="Path_4508" data-name="Path 4508" d="M146.989,265.986a5.781,5.781,0,1,1-5.78-5.78,5.78,5.78,0,0,1,5.78,5.78" fill="#221714"/>
            <path id="Path_4509" data-name="Path 4509" d="M146.989,265.986a5.781,5.781,0,1,1-5.78-5.78A5.78,5.78,0,0,1,146.989,265.986Z" fill="none" stroke="#221714" stroke-linecap="round" stroke-linejoin="round" stroke-width="1.894"/>
            <path id="Path_4510" data-name="Path 4510" d="M142.975,171.653h-35.7a4.759,4.759,0,0,1,0-9.519h35.7a4.759,4.759,0,1,1,0,9.519" fill="#ec7463"/>
            <path id="Path_4511" data-name="Path 4511" d="M142.975,171.653h-35.7a4.759,4.759,0,0,1,0-9.519h35.7a4.759,4.759,0,1,1,0,9.519Z" fill="none" stroke="#221714" stroke-linecap="round" stroke-linejoin="round" stroke-width="1.894"/>
            <path id="Path_4512" data-name="Path 4512" d="M150.409,189.641h-2.495a11.623,11.623,0,0,1,.153,1.843c0,8.774-9.91,15.887-22.134,15.887S103.8,200.258,103.8,191.484a11.505,11.505,0,0,1,.153-1.843H100.8A6.056,6.056,0,0,0,94.74,195.7v61.37a6.056,6.056,0,0,0,6.056,6.056h49.613a6.056,6.056,0,0,0,6.057-6.056V195.7a6.057,6.057,0,0,0-6.057-6.057" fill="#ec7463"/>
            <path id="Path_4513" data-name="Path 4513" d="M125.933,207.371c12.224,0,22.134-7.113,22.134-15.887a11.517,11.517,0,0,0-.153-1.843H103.952a11.515,11.515,0,0,0-.153,1.843c0,8.774,9.91,15.887,22.134,15.887" fill="#f3f3f4"/>
            <path id="Path_4514" data-name="Path 4514" d="M125.933,207.371c12.224,0,22.134-7.113,22.134-15.887a11.517,11.517,0,0,0-.153-1.843H103.952a11.515,11.515,0,0,0-.153,1.843C103.8,200.258,113.709,207.371,125.933,207.371Z" fill="none" stroke="#221714" stroke-linecap="round" stroke-linejoin="round" stroke-width="1.894"/>
            <path id="Rectangle_275" data-name="Rectangle 275" d="M6.057,0H55.67a6.056,6.056,0,0,1,6.056,6.056V67.427a6.056,6.056,0,0,1-6.056,6.056H6.057A6.057,6.057,0,0,1,0,67.426V6.057A6.057,6.057,0,0,1,6.057,0Z" transform="translate(94.74 189.641)" fill="none" stroke="#221714" stroke-linecap="round" stroke-linejoin="round" stroke-width="1.894"/>
            <path id="Path_4515" data-name="Path 4515" d="M104.585,105.608A14.8,14.8,0,1,1,90.141,90.46a14.8,14.8,0,0,1,14.444,15.148" fill="#fadbc5"/>
            <path id="Path_4516" data-name="Path 4516" d="M104.585,105.608A14.8,14.8,0,1,1,90.141,90.46,14.8,14.8,0,0,1,104.585,105.608Z" fill="none" stroke="#221714" stroke-linecap="round" stroke-linejoin="round" stroke-width="1.894"/>
            <path id="Path_4517" data-name="Path 4517" d="M106.349,108.106l-26.462-.629A25.044,25.044,0,0,1,55.446,81.845l.1-4.267a38.278,38.278,0,1,1,76.534,1.82l-.1,4.267a25.042,25.042,0,0,1-25.631,24.441" fill="#fff"/>
            <path id="Path_4518" data-name="Path 4518" d="M135.027,69.671a36.119,36.119,0,0,0-35.233-35.26l-9.588-.227a36.25,36.25,0,0,0-37,35.278l-.057,2.41a18.107,18.107,0,0,0-9.467,15.491l-.021.856a22.3,22.3,0,0,0,21.762,22.823l43.163,1.026a25.511,25.511,0,0,0,26.111-24.9l.152-6.4.222-9.358c.014-.586-.032-1.159-.046-1.739" fill="#fadbc5"/>
            <path id="Path_4519" data-name="Path 4519" d="M68.191,90.647A11.936,11.936,0,1,1,56.542,78.43,11.936,11.936,0,0,1,68.191,90.647" fill="#f6c6d9"/>
            <path id="Path_4520" data-name="Path 4520" d="M133.408,92.2a11.936,11.936,0,1,1-11.649-12.217A11.936,11.936,0,0,1,133.408,92.2" fill="#f6c6d9"/>
            <path id="Path_4521" data-name="Path 4521" d="M53.208,69.462l-.057,2.41a18.109,18.109,0,0,0-9.468,15.491l-.02.856a22.3,22.3,0,0,0,21.762,22.822l43.164,1.027a25.511,25.511,0,0,0,26.109-24.9l.152-6.4.223-9.359a36.148,36.148,0,0,0-35.279-37l-9.588-.228A36.148,36.148,0,0,0,53.208,69.462Z" fill="none" stroke="#221714" stroke-linecap="round" stroke-linejoin="round" stroke-width="1.894"/>
            <path id="Path_4522" data-name="Path 4522" d="M77.066,79.056a4.261,4.261,0,1,1-4.158-4.395,4.278,4.278,0,0,1,4.158,4.395" fill="#221714"/>
            <path id="Path_4523" data-name="Path 4523" d="M103.481,79.684a4.261,4.261,0,1,1-4.158-4.395,4.278,4.278,0,0,1,4.158,4.395" fill="#221714"/>
            <path id="Path_4524" data-name="Path 4524" d="M88.1,85.554a2.6,2.6,0,1,1-2.542-2.666A2.6,2.6,0,0,1,88.1,85.554" fill="#ec7463"/>
            <path id="Path_4525" data-name="Path 4525" d="M99.151,24.4l-7.2-.171A37.862,37.862,0,0,0,53.195,61.18l-.047,1.987,82.907,1.972.048-1.987A37.863,37.863,0,0,0,99.151,24.4" fill="#221714"/>
            <path id="Path_4526" data-name="Path 4526" d="M99.151,24.4l-7.2-.171A37.862,37.862,0,0,0,53.195,61.18l-.047,1.987,82.907,1.972.048-1.987A37.863,37.863,0,0,0,99.151,24.4Z" fill="none" stroke="#221714" stroke-linejoin="round" stroke-width="1.894"/>
            <line id="Line_580" data-name="Line 580" x2="6.776" y2="0.161" transform="translate(69.752 71.058)" fill="none" stroke="#221714" stroke-linecap="round" stroke-linejoin="round" stroke-width="1.894"/>
            <line id="Line_581" data-name="Line 581" x2="6.776" y2="0.161" transform="translate(95.843 71.678)" fill="none" stroke="#221714" stroke-linecap="round" stroke-linejoin="round" stroke-width="1.894"/>
            <path id="Path_4527" data-name="Path 4527" d="M125.113,145.15a6.6,6.6,0,0,0-6.509-5.229,4.592,4.592,0,0,0-4.337,5.722" fill="#fadbc5"/>
            <path id="Path_4528" data-name="Path 4528" d="M125.113,145.15a6.6,6.6,0,0,0-6.509-5.229,4.592,4.592,0,0,0-4.337,5.722" fill="none" stroke="#221714" stroke-linecap="round" stroke-linejoin="round" stroke-width="1.894"/>
            <path id="Path_4529" data-name="Path 4529" d="M105.432,148.116c3.554-4.64,10.032-5.755,15.829-3.2l15.14-5.7a14.489,14.489,0,0,1,11.682.984,17.472,17.472,0,0,1,7.577,7.589c3.22,6.351,1.71,13.242-3.242,16.667a11.712,11.712,0,0,1-2.548,1.328l-1.53.575-20.516,7.718c-4.647,1.748-10.3.623-14.674-2.922l-3.86-3.126c-6.515-5.277-8.243-14.194-3.858-19.916" fill="#fadbc5"/>
            <path id="Path_4530" data-name="Path 4530" d="M152.418,164.459c4.952-3.425,6.462-10.315,3.242-16.667-3.72-7.336-12.342-11.174-19.26-8.572l-15.139,5.695c-5.8-2.553-12.275-1.439-15.829,3.2-4.385,5.722-2.658,14.639,3.858,19.916l3.859,3.125c4.378,3.546,10.027,4.671,14.675,2.922l22.046-8.293A11.712,11.712,0,0,0,152.418,164.459Z" fill="none" stroke="#221714" stroke-linecap="round" stroke-linejoin="round" stroke-width="1.894"/>
            <path id="Path_4531" data-name="Path 4531" d="M48.027,53.491s9.944-22.525,42.18-19.308,54.5,29.372,54.5,29.372,1.756-26.156-42-41.306C61.246,7.9,42.858,45.8,48.027,53.491" fill="#ec7463"/>
            <path id="Path_4532" data-name="Path 4532" d="M47.226,53.333s10.744-22.367,42.98-19.15,54.5,29.373,54.5,29.373,1.077-26.7-40.479-40.757S42.057,45.644,47.226,53.333Z" fill="none" stroke="#221714" stroke-linejoin="round" stroke-width="1.894"/>
            <line id="Line_582" data-name="Line 582" y1="7.251" x2="0.172" transform="translate(62.273 55.654)" fill="none" stroke="#221714" stroke-linecap="round" stroke-linejoin="round" stroke-width="1.894"/>
            <line id="Line_583" data-name="Line 583" y1="7.251" x2="0.172" transform="translate(71.078 55.864)" fill="none" stroke="#221714" stroke-linecap="round" stroke-linejoin="round" stroke-width="1.894"/>
            <line id="Line_584" data-name="Line 584" y1="7.251" x2="0.172" transform="translate(79.882 56.073)" fill="none" stroke="#221714" stroke-linecap="round" stroke-linejoin="round" stroke-width="1.894"/>
            <line id="Line_585" data-name="Line 585" y1="7.251" x2="0.172" transform="translate(88.687 56.283)" fill="none" stroke="#221714" stroke-linecap="round" stroke-linejoin="round" stroke-width="1.894"/>
            <line id="Line_586" data-name="Line 586" y1="7.251" x2="0.172" transform="translate(97.492 56.492)" fill="none" stroke="#221714" stroke-linecap="round" stroke-linejoin="round" stroke-width="1.894"/>
            <line id="Line_587" data-name="Line 587" y1="7.251" x2="0.172" transform="translate(106.297 56.701)" fill="none" stroke="#221714" stroke-linecap="round" stroke-linejoin="round" stroke-width="1.894"/>
            <line id="Line_588" data-name="Line 588" y1="7.251" x2="0.172" transform="translate(115.102 56.911)" fill="none" stroke="#221714" stroke-linecap="round" stroke-linejoin="round" stroke-width="1.894"/>
            <line id="Line_589" data-name="Line 589" y1="7.251" x2="0.172" transform="translate(123.907 57.12)" fill="none" stroke="#221714" stroke-linecap="round" stroke-linejoin="round" stroke-width="1.894"/>
            <path id="Path_4533" data-name="Path 4533" d="M82.431,91.973a8.5,8.5,0,0,0,8.014.233" fill="none" stroke="#221714" stroke-linecap="round" stroke-linejoin="round" stroke-width="1.894"/>
            <path id="Path_4534" data-name="Path 4534" d="M134.2,61.373,135.776,86.6,143.023,62.9Z" fill="#221714"/>
          </g>
        </g>
      </g>
    </g>
  </g>
</svg>
