<svg xmlns="http://www.w3.org/2000/svg" xmlns:xlink="http://www.w3.org/1999/xlink" width="220" height="280" viewBox="0 0 220 280">
  <defs>
    <clipPath id="clip-path">
      <rect id="Rectangle_13703" data-name="Rectangle 13703" width="129.377" height="230.886" fill="none"/>
    </clipPath>
    <clipPath id="clip-Img-charactor-panda">
      <rect width="220" height="280"/>
    </clipPath>
  </defs>
  <g id="Img-charactor-panda" clip-path="url(#clip-Img-charactor-panda)">
    <g id="Group_43000" data-name="Group 43000" transform="translate(15703 -8150)">
      <rect id="Rectangle_13827" data-name="Rectangle 13827" width="220" height="280" transform="translate(-15703 8150)" fill="none"/>
      <ellipse id="Ellipse_81" data-name="Ellipse 81" cx="47.5" cy="13.5" rx="47.5" ry="13.5" transform="translate(-15640 8392)" fill="#e4eef2"/>
      <g id="Group_43010" data-name="Group 43010" transform="translate(-15663.159 8174.557)">
        <g id="Group_42829" data-name="Group 42829" clip-path="url(#clip-path)">
          <path id="Path_5444" data-name="Path 5444" d="M205.161,51.79c-6.145-1.525-12.367-2.895-18.47-4.585-6.9-1.911-8.333-8.289-14.271-11.189-6.526-3.187-11.529-2.251-17.261-7.633-2.581-2.424-5.028-5.535-8.34-7.047-2.93-1.338-7.457-1.852-10.572-2.626l2.543-10.245c3.114.773,7.642,1.287,10.572,2.625,3.311,1.512,5.759,4.624,8.34,7.047,5.732,5.383,10.735,4.446,17.261,7.633,5.938,2.9,7.376,9.278,14.271,11.189,6.1,1.691,12.325,3.06,18.469,4.585L205.161,51.79" transform="translate(-91.735 -5.699)" fill="#4db7e7"/>
          <path id="Path_5445" data-name="Path 5445" d="M203.613,50.992a.752.752,0,0,1-.182-.022c-2.042-.507-4.13-1.006-6.149-1.488-4.059-.969-8.256-1.971-12.34-3.1-4.035-1.118-6.3-3.683-8.49-6.164a37.029,37.029,0,0,0-2.676-2.824,13.6,13.6,0,0,0-3.234-2.25,36.39,36.39,0,0,0-6.724-2.357c-3.608-.989-7.015-1.923-10.721-5.4-.655-.615-1.31-1.283-1.944-1.928-1.885-1.92-3.835-3.906-6.193-4.983a34.333,34.333,0,0,0-7.08-1.874c-1.206-.234-2.346-.454-3.36-.706a.751.751,0,0,1-.548-.91l2.543-10.245a.751.751,0,0,1,.91-.548c.976.242,2.1.459,3.283.689a35.3,35.3,0,0,1,7.42,1.983c2.612,1.193,4.661,3.28,6.642,5.3.652.664,1.267,1.291,1.9,1.885a17.665,17.665,0,0,0,5,3.368,34.39,34.39,0,0,0,5.086,1.682,37.6,37.6,0,0,1,6.986,2.456,20.574,20.574,0,0,1,6.377,5.43c2.139,2.423,4.16,4.712,7.765,5.71,4.057,1.124,8.24,2.123,12.286,3.089,2.023.483,4.114.982,6.164,1.491a.751.751,0,0,1,.548.91l-2.543,10.245A.752.752,0,0,1,203.613,50.992Zm-68-34.39c.79.176,1.652.343,2.552.517a35.3,35.3,0,0,1,7.419,1.982c2.612,1.193,4.66,3.28,6.641,5.3.652.664,1.268,1.291,1.9,1.886a17.666,17.666,0,0,0,5,3.367,34.394,34.394,0,0,0,5.087,1.682,37.608,37.608,0,0,1,6.987,2.456,20.572,20.572,0,0,1,6.377,5.43c2.139,2.423,4.16,4.712,7.765,5.71,4.058,1.124,8.242,2.123,12.288,3.089,1.783.426,3.619.864,5.433,1.311l2.181-8.787c-1.808-.445-3.642-.883-5.421-1.308-4.058-.969-8.255-1.971-12.338-3.1-4.035-1.118-6.3-3.683-8.49-6.164a37.033,37.033,0,0,0-2.676-2.824,13.6,13.6,0,0,0-3.234-2.25,36.388,36.388,0,0,0-6.724-2.357c-3.608-.989-7.015-1.923-10.721-5.4-.655-.615-1.31-1.282-1.944-1.928-1.885-1.921-3.835-3.906-6.194-4.984A34.329,34.329,0,0,0,140.42,8.35c-.924-.179-1.808-.35-2.627-.534Z" transform="translate(-90.186 -4.15)" fill="#221714"/>
          <path id="Path_5446" data-name="Path 5446" d="M197.492,82.683c-6.145-1.525-12.367-2.894-18.469-4.585-6.9-1.911-8.333-8.289-14.271-11.189-6.526-3.187-11.529-2.251-17.261-7.633-2.581-2.424-5.028-5.535-8.34-7.047-2.93-1.338-7.457-1.852-10.572-2.626l2.543-10.245c3.114.773,7.642,1.287,10.572,2.625,3.311,1.512,5.759,4.624,8.34,7.047,5.732,5.383,10.735,4.446,17.261,7.633,5.938,2.9,7.376,9.278,14.271,11.189,6.1,1.691,12.325,3.06,18.47,4.585l-2.544,10.245" transform="translate(-86.572 -26.499)" fill="#fff000"/>
          <path id="Path_5447" data-name="Path 5447" d="M195.944,81.885a.753.753,0,0,1-.182-.022c-2.042-.507-4.13-1.005-6.148-1.487-4.059-.969-8.257-1.971-12.341-3.1-4.035-1.118-6.3-3.683-8.49-6.164a37.032,37.032,0,0,0-2.676-2.824,13.6,13.6,0,0,0-3.234-2.25,36.391,36.391,0,0,0-6.724-2.357c-3.608-.989-7.015-1.923-10.721-5.4-.655-.615-1.31-1.283-1.944-1.928-1.885-1.92-3.835-3.906-6.193-4.983a34.333,34.333,0,0,0-7.08-1.874c-1.206-.234-2.346-.454-3.36-.706a.751.751,0,0,1-.548-.91l2.543-10.245a.751.751,0,0,1,.91-.548c.976.242,2.1.459,3.282.689a35.294,35.294,0,0,1,7.42,1.982c2.612,1.193,4.661,3.28,6.642,5.3.652.664,1.267,1.291,1.9,1.885a17.664,17.664,0,0,0,5,3.368,34.39,34.39,0,0,0,5.086,1.682,37.6,37.6,0,0,1,6.986,2.456,20.573,20.573,0,0,1,6.377,5.43c2.139,2.423,4.16,4.712,7.765,5.71,4.058,1.124,8.242,2.123,12.288,3.089,2.022.483,4.113.982,6.162,1.491a.751.751,0,0,1,.548.91l-2.544,10.245A.752.752,0,0,1,195.944,81.885Zm-68-34.39c.79.176,1.652.343,2.552.517A35.3,35.3,0,0,1,137.914,50c2.612,1.193,4.66,3.28,6.641,5.3.652.664,1.268,1.291,1.9,1.886a17.666,17.666,0,0,0,5,3.367,34.393,34.393,0,0,0,5.087,1.682,37.61,37.61,0,0,1,6.987,2.456,20.571,20.571,0,0,1,6.377,5.43c2.139,2.423,4.16,4.712,7.765,5.71,4.058,1.125,8.242,2.124,12.288,3.09,1.783.426,3.618.864,5.432,1.31l2.182-8.787c-1.808-.445-3.64-.882-5.42-1.307-4.059-.969-8.256-1.971-12.34-3.1-4.035-1.118-6.3-3.683-8.49-6.164a37.021,37.021,0,0,0-2.676-2.824,13.6,13.6,0,0,0-3.234-2.25,36.388,36.388,0,0,0-6.724-2.357c-3.608-.989-7.015-1.923-10.721-5.4-.655-.615-1.31-1.282-1.944-1.928-1.885-1.921-3.835-3.906-6.194-4.984a34.329,34.329,0,0,0-7.081-1.874c-.924-.179-1.808-.35-2.627-.534Z" transform="translate(-85.023 -24.95)" fill="#221714"/>
          <path id="Path_5448" data-name="Path 5448" d="M189.823,113.575c-6.145-1.525-12.368-2.894-18.47-4.585-6.9-1.911-8.333-8.289-14.271-11.189-6.527-3.187-11.529-2.251-17.261-7.633-2.581-2.424-5.028-5.535-8.34-7.047-2.93-1.338-7.457-1.852-10.572-2.626l2.543-10.245c3.114.773,7.642,1.287,10.572,2.625,3.312,1.512,5.759,4.624,8.34,7.047,5.732,5.383,10.735,4.446,17.26,7.633,5.939,2.9,7.376,9.278,14.271,11.189,6.1,1.691,12.325,3.06,18.469,4.585l-2.543,10.245" transform="translate(-81.408 -47.298)" fill="#f4b6d1"/>
          <path id="Path_5449" data-name="Path 5449" d="M188.274,112.777a.751.751,0,0,1-.181-.022c-2.042-.507-4.129-1.005-6.148-1.487-4.06-.969-8.258-1.972-12.342-3.1-4.035-1.118-6.3-3.683-8.49-6.164a37.024,37.024,0,0,0-2.676-2.824,13.6,13.6,0,0,0-3.234-2.25,36.4,36.4,0,0,0-6.724-2.357c-3.608-.989-7.015-1.923-10.721-5.4-.655-.615-1.31-1.283-1.944-1.928-1.885-1.92-3.835-3.906-6.193-4.983a34.333,34.333,0,0,0-7.08-1.874c-1.206-.234-2.346-.454-3.36-.706a.751.751,0,0,1-.548-.91l2.543-10.245a.751.751,0,0,1,.91-.548c.976.242,2.1.459,3.283.689a35.294,35.294,0,0,1,7.42,1.982c2.612,1.193,4.661,3.28,6.642,5.3.652.664,1.267,1.291,1.9,1.885a17.664,17.664,0,0,0,5,3.368,34.387,34.387,0,0,0,5.086,1.682,37.6,37.6,0,0,1,6.986,2.456,20.574,20.574,0,0,1,6.378,5.43c2.139,2.423,4.16,4.711,7.764,5.71,4.056,1.124,8.239,2.123,12.283,3.088,2.024.483,4.116.983,6.166,1.492a.751.751,0,0,1,.548.91L189,112.207a.752.752,0,0,1-.729.57Zm-68-34.39c.79.176,1.652.343,2.552.517a35.3,35.3,0,0,1,7.419,1.982c2.612,1.193,4.66,3.28,6.641,5.3.652.664,1.268,1.291,1.9,1.885a17.666,17.666,0,0,0,5,3.367,34.4,34.4,0,0,0,5.087,1.682,37.611,37.611,0,0,1,6.987,2.456,20.57,20.57,0,0,1,6.377,5.43c2.139,2.423,4.16,4.712,7.764,5.71,4.058,1.125,8.243,2.124,12.29,3.09,1.782.426,3.618.864,5.431,1.31l2.181-8.787c-1.809-.445-3.643-.883-5.424-1.308-4.058-.969-8.253-1.971-12.336-3.1-4.034-1.118-6.3-3.683-8.49-6.164a37.036,37.036,0,0,0-2.676-2.824,13.6,13.6,0,0,0-3.234-2.25,36.383,36.383,0,0,0-6.724-2.357c-3.608-.989-7.015-1.923-10.721-5.4-.655-.615-1.31-1.282-1.944-1.928-1.885-1.921-3.835-3.906-6.194-4.984a34.329,34.329,0,0,0-7.081-1.874c-.924-.179-1.808-.35-2.627-.533Z" transform="translate(-79.859 -45.749)" fill="#221714"/>
          <path id="Path_5450" data-name="Path 5450" d="M182.153,144.468c-6.145-1.525-12.367-2.895-18.47-4.585-6.9-1.911-8.333-8.289-14.271-11.189-6.526-3.187-11.529-2.251-17.261-7.633-2.581-2.424-5.028-5.535-8.34-7.047-2.93-1.338-7.457-1.852-10.572-2.626l2.543-10.245c3.114.773,7.642,1.287,10.572,2.625,3.311,1.512,5.759,4.624,8.34,7.047,5.732,5.383,10.735,4.446,17.261,7.633,5.938,2.9,7.376,9.278,14.271,11.189,6.1,1.691,12.325,3.06,18.469,4.585l-2.543,10.245" transform="translate(-76.244 -68.098)" fill="#9fcc64"/>
          <path id="Path_5451" data-name="Path 5451" d="M180.6,143.67a.752.752,0,0,1-.182-.022c-2.042-.507-4.13-1.006-6.149-1.488-4.059-.969-8.256-1.971-12.34-3.1-4.035-1.118-6.3-3.683-8.49-6.164a37.035,37.035,0,0,0-2.676-2.824,13.6,13.6,0,0,0-3.234-2.25,36.387,36.387,0,0,0-6.724-2.357c-3.608-.989-7.015-1.923-10.721-5.4-.655-.615-1.31-1.283-1.944-1.928-1.885-1.92-3.835-3.906-6.193-4.983a34.331,34.331,0,0,0-7.08-1.874c-1.206-.234-2.346-.454-3.36-.706a.751.751,0,0,1-.548-.91l2.543-10.245a.751.751,0,0,1,.91-.548c.976.242,2.1.459,3.282.689a35.3,35.3,0,0,1,7.42,1.983c2.612,1.193,4.661,3.28,6.642,5.3.652.664,1.267,1.291,1.9,1.885a17.665,17.665,0,0,0,5,3.368,34.392,34.392,0,0,0,5.086,1.682,37.6,37.6,0,0,1,6.986,2.456,20.573,20.573,0,0,1,6.377,5.43c2.139,2.423,4.16,4.712,7.765,5.71,4.057,1.124,8.24,2.123,12.286,3.089,2.023.483,4.114.982,6.164,1.491a.751.751,0,0,1,.548.91l-2.3,9.264-.244.981A.752.752,0,0,1,180.6,143.67Zm-68-34.39c.79.176,1.652.343,2.552.518a35.3,35.3,0,0,1,7.419,1.982c2.612,1.193,4.66,3.28,6.641,5.3.652.664,1.268,1.291,1.9,1.886a17.667,17.667,0,0,0,5,3.367,34.4,34.4,0,0,0,5.087,1.682,37.608,37.608,0,0,1,6.987,2.456,20.572,20.572,0,0,1,6.377,5.43c2.139,2.423,4.16,4.712,7.765,5.71,4.058,1.124,8.242,2.123,12.288,3.089,1.783.426,3.619.864,5.433,1.311l.063-.253,2.119-8.534c-1.809-.445-3.642-.883-5.421-1.308-4.058-.969-8.255-1.971-12.338-3.1-4.035-1.118-6.3-3.683-8.49-6.164a37.024,37.024,0,0,0-2.676-2.824,13.6,13.6,0,0,0-3.234-2.25,36.387,36.387,0,0,0-6.724-2.357c-3.608-.989-7.015-1.923-10.721-5.4-.655-.615-1.31-1.282-1.944-1.928-1.885-1.921-3.835-3.906-6.194-4.984a34.327,34.327,0,0,0-7.081-1.874c-.924-.179-1.808-.35-2.627-.534Z" transform="translate(-74.695 -66.549)" fill="#221714"/>
          <path id="Path_5452" data-name="Path 5452" d="M262.078,399.23c0,16.77-14.313,30.365-31.97,30.365S198.139,416,198.139,399.23s14.313-30.365,31.969-30.365,31.97,13.595,31.97,30.365" transform="translate(-133.406 -248.355)" fill="#9fcc64"/>
          <path id="Ellipse_57" data-name="Ellipse 57" d="M30.517-2.157a34.556,34.556,0,0,1,6.577.63A33.758,33.758,0,0,1,43.224.28a33.246,33.246,0,0,1,5.548,2.86,32.61,32.61,0,0,1,4.836,3.79,31.69,31.69,0,0,1,3.993,4.6,30.629,30.629,0,0,1,3.017,5.28,29.733,29.733,0,0,1,0,24.212A30.629,30.629,0,0,1,57.6,46.3a31.69,31.69,0,0,1-3.993,4.6,32.611,32.611,0,0,1-4.836,3.79,33.246,33.246,0,0,1-5.548,2.86,33.757,33.757,0,0,1-6.129,1.807,34.658,34.658,0,0,1-13.155,0,33.757,33.757,0,0,1-6.129-1.807,33.245,33.245,0,0,1-5.548-2.86,32.61,32.61,0,0,1-4.836-3.79,31.69,31.69,0,0,1-3.993-4.6,30.629,30.629,0,0,1-3.017-5.28,29.733,29.733,0,0,1,0-24.212,30.628,30.628,0,0,1,3.017-5.28,31.69,31.69,0,0,1,3.993-4.6,32.609,32.609,0,0,1,4.836-3.79A33.245,33.245,0,0,1,17.811.28,33.758,33.758,0,0,1,23.94-1.527,34.556,34.556,0,0,1,30.517-2.157Zm0,60.73a33.142,33.142,0,0,0,6.309-.6A32.344,32.344,0,0,0,42.7,56.238,31.833,31.833,0,0,0,48.011,53.5a31.2,31.2,0,0,0,4.627-3.626,30.279,30.279,0,0,0,3.815-4.391,29.216,29.216,0,0,0,2.878-5.036,28.324,28.324,0,0,0,0-23.065,29.216,29.216,0,0,0-2.878-5.036,30.278,30.278,0,0,0-3.815-4.391,31.2,31.2,0,0,0-4.627-3.626A31.833,31.833,0,0,0,42.7,1.588,32.345,32.345,0,0,0,36.826-.144a33.249,33.249,0,0,0-12.617,0,32.344,32.344,0,0,0-5.873,1.731,31.833,31.833,0,0,0-5.313,2.739A31.2,31.2,0,0,0,8.4,7.952a30.279,30.279,0,0,0-3.815,4.391A29.216,29.216,0,0,0,1.7,17.38a28.324,28.324,0,0,0,0,23.065,29.216,29.216,0,0,0,2.878,5.036A30.279,30.279,0,0,0,8.4,49.873,31.2,31.2,0,0,0,13.023,53.5a31.833,31.833,0,0,0,5.313,2.739,32.344,32.344,0,0,0,5.873,1.731A33.142,33.142,0,0,0,30.517,58.573Z" transform="translate(66.185 121.962)" fill="#040000"/>
          <path id="Path_5453" data-name="Path 5453" d="M2.193,359.247a12.182,12.182,0,0,0,1.141,6.167l1.443,3.054A12.231,12.231,0,0,0,6.724,371.4c11.019,12.311,27.638,16.978,29.5,17.469a12.241,12.241,0,0,0,6.3-23.656c-2.924-.8-11.161-3.894-16.462-9.005l-.594-1.257a12.243,12.243,0,0,0-23.274,4.3" transform="translate(-1.452 -234.266)" fill="#040000"/>
          <path id="Path_5454" data-name="Path 5454" d="M12.94,345.782h0A12.949,12.949,0,0,1,24.653,353.2l.538,1.14a29.384,29.384,0,0,0,4.2,3.279,43.621,43.621,0,0,0,4.65,2.625,44.887,44.887,0,0,0,7.215,2.84,12.941,12.941,0,0,1,4.479,22.809A12.915,12.915,0,0,1,34.589,388.1c-1.878-.5-18.676-5.2-29.842-17.68a12.929,12.929,0,0,1-2.059-3.1l-1.443-3.054a12.947,12.947,0,0,1,11.7-18.482Zm24.968,41.342a11.457,11.457,0,0,0,3.7-.615,11.546,11.546,0,0,0,3.37-20.036,11.446,11.446,0,0,0-4.092-2.031h0a46.373,46.373,0,0,1-7.463-2.933,45.028,45.028,0,0,1-4.8-2.711,30.6,30.6,0,0,1-4.5-3.533.705.705,0,0,1-.148-.206l-.594-1.257a11.537,11.537,0,1,0-20.86,9.861l1.443,3.054A11.522,11.522,0,0,0,5.8,369.479a50.585,50.585,0,0,0,8.873,7.745,66.351,66.351,0,0,0,9.091,5.257,67.316,67.316,0,0,0,11.188,4.256A11.577,11.577,0,0,0,37.908,387.124Z" transform="translate(0 -232.813)" fill="#221714"/>
          <path id="Path_5455" data-name="Path 5455" d="M112.619,401.7s-11.826,5.212-13.23,18.441a24.5,24.5,0,0,0,8.218,20.847" transform="translate(-66.825 -270.461)" fill="#9fcc64"/>
          <path id="Path_5456" data-name="Path 5456" d="M106.156,440.238a.7.7,0,0,1-.437-.152,16.92,16.92,0,0,1-1.553-1.463,26.488,26.488,0,0,1-3.242-4.178,25.227,25.227,0,0,1-2.973-6.734,24.526,24.526,0,0,1-.713-9.1,22.811,22.811,0,0,1,2.744-8.731,24.463,24.463,0,0,1,4.614-5.889,27.081,27.081,0,0,1,4.333-3.326,17.912,17.912,0,0,1,1.955-1.066.7.7,0,0,1,.569,1.289h0a17.075,17.075,0,0,0-1.826,1,25.658,25.658,0,0,0-4.1,3.161,23.038,23.038,0,0,0-4.328,5.542,21.411,21.411,0,0,0-2.559,8.167,23.126,23.126,0,0,0,.662,8.545,23.807,23.807,0,0,0,2.789,6.345,25.09,25.09,0,0,0,3.061,3.963,16.1,16.1,0,0,0,1.444,1.368.7.7,0,0,1-.439,1.257Z" transform="translate(-65.374 -269.008)" fill="#221714"/>
          <path id="Path_5457" data-name="Path 5457" d="M69.631,565.4l-7.993-3.285A13.849,13.849,0,0,1,66.9,535.462L78,508.077a13.847,13.847,0,0,1,18.034-7.63l.063.026a13.846,13.846,0,0,1,7.567,18.009L87.727,557.8a13.847,13.847,0,0,1-18.1,7.6" transform="translate(-35.719 -336.263)" fill="#fff"/>
          <path id="Path_5458" data-name="Path 5458" d="M73.442,565.7A14.482,14.482,0,0,1,67.91,564.6l-7.993-3.285a14.553,14.553,0,0,1-2.477-25.609,14.607,14.607,0,0,1,7.529-2.4L75.9,506.36a14.539,14.539,0,0,1,18.952-8.019l.069.029a14.539,14.539,0,0,1,7.95,18.924L86.928,556.612A14.552,14.552,0,0,1,73.442,565.7Zm15.944-67.015A13.148,13.148,0,0,0,77.2,506.89L66.1,534.274a.7.7,0,0,1-.653.44,13.142,13.142,0,0,0-4.995,25.3l7.993,3.285a13.143,13.143,0,0,0,17.176-7.218l15.939-39.318a13.13,13.13,0,0,0-7.182-17.092l-.006,0-.055-.023A13.068,13.068,0,0,0,89.386,498.681Z" transform="translate(-34.267 -334.81)" fill="#221714"/>
          <path id="Path_5459" data-name="Path 5459" d="M66.9,609.037a13.849,13.849,0,0,0-5.262,26.658l7.993,3.285a13.847,13.847,0,0,0,18.1-7.6l4.879-12.141L66.991,608.705Z" transform="translate(-35.719 -409.838)" fill="#040000"/>
          <path id="Path_5460" data-name="Path 5460" d="M65.539,606.548a.7.7,0,0,1,.268.053l25.615,10.528a.7.7,0,0,1,.386.915l-4.879,12.141v0a14.552,14.552,0,0,1-19.017,7.992l-7.993-3.285a14.553,14.553,0,0,1-2.477-25.609,14.606,14.606,0,0,1,7.5-2.4.7.7,0,0,1,.6-.341Zm24.7,11.619L65.868,608.15a.7.7,0,0,1-.42.139,13.142,13.142,0,0,0-4.995,25.3l7.993,3.285a13.143,13.143,0,0,0,17.176-7.217Z" transform="translate(-34.266 -408.386)" fill="#221714"/>
          <path id="Path_5461" data-name="Path 5461" d="M259.329,559.1l-6.111,6.111a13.849,13.849,0,0,1-22.573-15.125l-21-20.793a13.847,13.847,0,0,1-.094-19.582l.048-.048a13.846,13.846,0,0,1,19.534-.046l30.144,29.854a13.847,13.847,0,0,1,.047,19.63" transform="translate(-138.394 -340.419)" fill="#fff"/>
          <path id="Path_5462" data-name="Path 5462" d="M241.975,568.514A14.561,14.561,0,0,1,228.366,548.8L207.7,528.336a14.54,14.54,0,0,1-.1-20.579l0,0,.048-.048a14.538,14.538,0,0,1,20.528-.049l30.144,29.854a14.551,14.551,0,0,1,.05,20.629l-6.111,6.111a14.508,14.508,0,0,1-10.289,4.262ZM208.6,508.75a13.131,13.131,0,0,0,.09,18.585l21,20.793a.7.7,0,0,1,.155.772,13.142,13.142,0,0,0,21.424,14.355l6.111-6.111a13.143,13.143,0,0,0-.045-18.63L227.189,508.66a13.13,13.13,0,0,0-18.54.044Z" transform="translate(-136.941 -338.967)" fill="#221714"/>
          <path id="Path_5463" data-name="Path 5463" d="M121.1,409.457s-11.478,20.9-5.3,42,53.785,20.308,59.777-.134-6.63-41.871-6.63-41.871Z" transform="translate(-76.74 -275.685)" fill="#fff"/>
          <path id="Path_5464" data-name="Path 5464" d="M154.184,433.32l-.2-.189a82.558,82.558,0,0,1-12.123-14.45,132.76,132.76,0,0,1-8.8-15.254c-2.447-4.935-4.273-9.295-5.374-12.083-1.195-3.026-1.821-4.915-1.827-4.934l1.338-.442h0c.007.021.625,1.884,1.807,4.878,1.092,2.764,2.9,7.085,5.328,11.976a131.306,131.306,0,0,0,8.7,15.082,81.553,81.553,0,0,0,11.7,14l17.447-.135,7.875-14.315,1.235.679-8.274,15.039Z" transform="translate(-84.739 -259.869)" fill="#040000"/>
          <path id="Path_5465" data-name="Path 5465" d="M119.651,407.3H167.5a.7.7,0,0,1,.607.347c.033.056.818,1.395,1.91,3.727a74.235,74.235,0,0,1,3.72,9.7,61.664,61.664,0,0,1,2.589,13.591,48.031,48.031,0,0,1-.058,7.61,40.766,40.766,0,0,1-1.461,7.8c-1.477,5.04-5.473,9.238-11.554,12.139a39.979,39.979,0,0,1-9.222,3.012,51.055,51.055,0,0,1-10.171,1.006,49.975,49.975,0,0,1-9.919-.971,38.115,38.115,0,0,1-8.971-2.944,24.618,24.618,0,0,1-7.091-4.99,17.158,17.158,0,0,1-4.2-7.117,48.529,48.529,0,0,1-1.807-15.7A63.275,63.275,0,0,1,114,420.91a71.8,71.8,0,0,1,3.3-9.587c.982-2.294,1.7-3.6,1.727-3.657A.7.7,0,0,1,119.651,407.3Zm47.438,1.409H120.077c-.275.536-.823,1.643-1.489,3.2a70.386,70.386,0,0,0-3.233,9.4,61.833,61.833,0,0,0-2.079,13.283,47.116,47.116,0,0,0,1.752,15.217,15.764,15.764,0,0,0,3.864,6.535,23.221,23.221,0,0,0,6.688,4.7,36.709,36.709,0,0,0,8.639,2.832,48.556,48.556,0,0,0,9.639.943,44.576,44.576,0,0,0,18.786-3.88,24.185,24.185,0,0,0,6.883-4.753,15.476,15.476,0,0,0,3.925-6.51,39.354,39.354,0,0,0,1.41-7.533,46.613,46.613,0,0,0,.055-7.386,60.256,60.256,0,0,0-2.531-13.279,72.808,72.808,0,0,0-3.648-9.508C167.991,410.372,167.385,409.243,167.089,408.709Z" transform="translate(-75.289 -274.233)" fill="#221714"/>
          <path id="Path_5466" data-name="Path 5466" d="M280.284,600.841a13.849,13.849,0,0,0,22.573,15.125l6.11-6.111a13.847,13.847,0,0,0-.047-19.629l-9.325-9.179-19.583,19.583Z" transform="translate(-187.997 -391.215)" fill="#040000"/>
          <path id="Path_5467" data-name="Path 5467" d="M298.144,578.889a.7.7,0,0,1,.494.2l9.325,9.18,0,0a14.551,14.551,0,0,1,.049,20.628l-6.11,6.111a14.553,14.553,0,0,1-24.588-7.579,14.607,14.607,0,0,1,.677-7.84.7.7,0,0,1,.07-.915L297.645,579.1A.7.7,0,0,1,298.144,578.889Zm8.829,10.385-8.825-8.688-18.632,18.632a.7.7,0,0,1-.033.441,13.142,13.142,0,0,0,21.425,14.355l6.11-6.111a13.143,13.143,0,0,0-.044-18.63Z" transform="translate(-186.544 -389.763)" fill="#221714"/>
          <path id="Path_5468" data-name="Path 5468" d="M133.068,206.2a12.883,12.883,0,1,1-12.883-12.883A12.883,12.883,0,0,1,133.068,206.2" transform="translate(-72.247 -130.157)" fill="#040000"/>
          <path id="Ellipse_58" data-name="Ellipse 58" d="M13.587,0a13.591,13.591,0,0,1,5.289,26.107A13.591,13.591,0,0,1,8.3,1.068,13.5,13.5,0,0,1,13.587,0Zm0,25.765a12.181,12.181,0,0,0,4.74-23.4,12.181,12.181,0,0,0-9.48,22.442A12.1,12.1,0,0,0,13.587,25.765Z" transform="translate(28.724 76.039) rotate(-45)" fill="#221714"/>
          <path id="Path_5469" data-name="Path 5469" d="M283.748,206.2a12.883,12.883,0,1,1-12.883-12.883A12.883,12.883,0,0,1,283.748,206.2" transform="translate(-173.699 -130.157)" fill="#040000"/>
          <path id="Ellipse_59" data-name="Ellipse 59" d="M13.587,0a13.591,13.591,0,0,1,5.289,26.107A13.591,13.591,0,0,1,8.3,1.068,13.5,13.5,0,0,1,13.587,0Zm0,25.765a12.181,12.181,0,0,0,4.74-23.4,12.181,12.181,0,0,0-9.48,22.442A12.1,12.1,0,0,0,13.587,25.765Z" transform="translate(79.414 68.686) rotate(-22.5)" fill="#221714"/>
          <path id="Path_5470" data-name="Path 5470" d="M163.223,421.832s-19.6-1.878-17.768,19.707c0,0,18.5-.918,17.768-19.707" transform="translate(-97.853 -283.989)" fill="#63b631"/>
          <path id="Path_5471" data-name="Path 5471" d="M160.613,419.634h0c.752,0,1.206.043,1.225.044a.7.7,0,0,1,.637.674,23.765,23.765,0,0,1-.573,6.432,17.639,17.639,0,0,1-2,4.962,17.238,17.238,0,0,1-6.4,6.144,22.073,22.073,0,0,1-3.454,1.577,24.778,24.778,0,0,1-3.021.869,19.843,19.843,0,0,1-3,.453.7.7,0,0,1-.737-.644c-.562-6.629.8-11.787,4.06-15.33a15.542,15.542,0,0,1,7.277-4.348A21.851,21.851,0,0,1,160.613,419.634Zm.471,1.416c-.137,0-.3-.006-.471-.006h0a20.422,20.422,0,0,0-5.583.778,14.155,14.155,0,0,0-6.631,3.948c-2.864,3.117-4.123,7.672-3.746,13.548.5-.059,1.237-.169,2.127-.367a22.145,22.145,0,0,0,6.075-2.308A15.829,15.829,0,0,0,158.713,431a16.248,16.248,0,0,0,1.823-4.558A21.91,21.91,0,0,0,161.084,421.049Z" transform="translate(-96.401 -282.537)" fill="#040000"/>
          <path id="Path_5472" data-name="Path 5472" d="M189.8,421.9s-14.386,13.44,3,26.364c0,0,11.561-14.466-3-26.364" transform="translate(-124.028 -284.065)" fill="#63b631"/>
          <path id="Path_5473" data-name="Path 5473" d="M188.349,419.746a.7.7,0,0,1,.446.159,23.764,23.764,0,0,1,4.44,4.689,17.641,17.641,0,0,1,2.4,4.781,17.239,17.239,0,0,1,.367,8.863,22.075,22.075,0,0,1-1.105,3.632,24.79,24.79,0,0,1-1.35,2.839,19.842,19.842,0,0,1-1.645,2.544.7.7,0,0,1-.971.126,30.211,30.211,0,0,1-4-3.526,20.736,20.736,0,0,1-2.693-3.529,14.815,14.815,0,0,1-2.155-6.8,15.017,15.017,0,0,1,.726-5.429,19.364,19.364,0,0,1,2.006-4.288,20.494,20.494,0,0,1,3.059-3.87A.7.7,0,0,1,188.349,419.746Zm2.853,26.073c.285-.412.692-1.038,1.133-1.837a22.143,22.143,0,0,0,2.294-6.081,15.83,15.83,0,0,0-.349-8.127,16.247,16.247,0,0,0-2.208-4.385,21.911,21.911,0,0,0-3.675-3.981,20.727,20.727,0,0,0-2.413,3.177,17.917,17.917,0,0,0-1.848,3.967,13.6,13.6,0,0,0-.651,4.9C183.737,437.884,186.332,442.041,191.2,445.819Z" transform="translate(-122.576 -282.613)" fill="#040000"/>
          <path id="Line_648" data-name="Line 648" d="M.786,10A.7.7,0,0,1,.1,9.441L-2.142-1.309A.7.7,0,0,1-1.6-2.142.7.7,0,0,1-.763-1.6L1.476,9.154A.705.705,0,0,1,.786,10Z" transform="translate(67.445 142.788)" fill="#040000"/>
          <path id="Line_649" data-name="Line 649" d="M-1.453,7.9a.7.7,0,0,1-.474-.184.7.7,0,0,1-.046-1L5.911-1.927a.7.7,0,0,1,1-.046.7.7,0,0,1,.046,1L-.931,7.674A.7.7,0,0,1-1.453,7.9Z" transform="translate(56.072 142.237)" fill="#040000"/>
          <path id="Path_5474" data-name="Path 5474" d="M127.55,397.395s5.845,11.558,26.586,11.558c23.273,0,29.037-10.4,29.037-10.4" transform="translate(-85.879 -267.564)" fill="#63b631"/>
          <path id="Path_5475" data-name="Path 5475" d="M152.84,409a44.028,44.028,0,0,1-13.114-1.838,29.565,29.565,0,0,1-8.365-4.072,22.291,22.291,0,0,1-4.418-4.1,12.236,12.236,0,0,1-1.317-1.93l1.258-.636v0a11.37,11.37,0,0,0,1.208,1.745A20.988,20.988,0,0,0,132.256,402a28.249,28.249,0,0,0,7.957,3.84,42.689,42.689,0,0,0,12.627,1.753,57.631,57.631,0,0,0,14.181-1.6,32.8,32.8,0,0,0,8.7-3.5c4.139-2.475,5.523-4.913,5.536-4.938l1.233.683c-.063.113-1.584,2.8-6.046,5.464a34.2,34.2,0,0,1-9.078,3.654A59.028,59.028,0,0,1,152.84,409Z" transform="translate(-84.583 -266.905)" fill="#040000"/>
          <path id="Path_5476" data-name="Path 5476" d="M272.035,399.156s-11.375,6.136-11.722,19.435a24.5,24.5,0,0,0,9.849,20.127" transform="translate(-175.262 -268.75)" fill="#9fcc64"/>
          <path id="Path_5477" data-name="Path 5477" d="M268.71,437.97a.7.7,0,0,1-.391-.119,16.914,16.914,0,0,1-1.665-1.334,26.486,26.486,0,0,1-3.563-3.907,25.227,25.227,0,0,1-3.5-6.476,24.524,24.524,0,0,1-1.434-9.013A22.811,22.811,0,0,1,260.2,408.2a24.467,24.467,0,0,1,4.131-6.237,27.075,27.075,0,0,1,4.055-3.66,17.934,17.934,0,0,1,1.864-1.218.7.7,0,0,1,.67,1.24h0a17.118,17.118,0,0,0-1.741,1.144,25.665,25.665,0,0,0-3.837,3.477,23.039,23.039,0,0,0-3.874,5.868,21.41,21.41,0,0,0-1.9,8.344,23.122,23.122,0,0,0,1.351,8.5,23.817,23.817,0,0,0,3.3,6.114,22.653,22.653,0,0,0,4.881,4.911.7.7,0,0,1-.393,1.29Z" transform="translate(-173.809 -267.297)" fill="#221714"/>
          <path id="Path_5478" data-name="Path 5478" d="M293.625,451.025a12.242,12.242,0,0,1-19.934-12.758l.424-1.325c-.38-7.362-4.292-15.253-5.876-17.829a12.241,12.241,0,0,1,20.766-12.967c1.023,1.628,9.973,16.389,9.611,32.909a12.167,12.167,0,0,1-.581,3.468L297,445.74a12.181,12.181,0,0,1-3.38,5.286" transform="translate(-179.378 -269.604)" fill="#040000"/>
          <path id="Path_5479" data-name="Path 5479" d="M283.9,453.5a12.942,12.942,0,0,1-12.331-16.9l.384-1.2a29.371,29.371,0,0,0-.829-5.27,43.6,43.6,0,0,0-1.605-5.1,45.479,45.479,0,0,0-3.332-7,12.946,12.946,0,0,1,21.963-13.711c1.033,1.645,10.085,16.559,9.719,33.3a12.872,12.872,0,0,1-.614,3.668l-1.03,3.215a12.957,12.957,0,0,1-12.324,9Zm-6.7-53.823a11.543,11.543,0,0,0-6.094,1.746,11.485,11.485,0,0,0-5.131,7.162,11.539,11.539,0,0,0,1.409,8.706,46.288,46.288,0,0,1,3.449,7.239,45.016,45.016,0,0,1,1.657,5.263,30.59,30.59,0,0,1,.875,5.661.7.7,0,0,1-.033.251l-.424,1.325a11.536,11.536,0,1,0,21.971,7.042l1.03-3.216a11.467,11.467,0,0,0,.547-3.268,50.592,50.592,0,0,0-1.19-11.719,66.351,66.351,0,0,0-3.049-10.049,67.307,67.307,0,0,0-5.265-10.751,11.556,11.556,0,0,0-1.908-2.313,11.422,11.422,0,0,0-2.352-1.689A11.582,11.582,0,0,0,277.2,399.678Z" transform="translate(-177.923 -268.152)" fill="#221714"/>
          <path id="Path_5480" data-name="Path 5480" d="M100.373,238.192v2.078a15.615,15.615,0,0,0-7.843,13.547v.738a19.226,19.226,0,0,0,19.226,19.226h37.225a22,22,0,0,0,22-22V238.192a31.167,31.167,0,0,0-31.167-31.167H131.54a31.167,31.167,0,0,0-31.167,31.167" transform="translate(-62.3 -139.389)" fill="#fff"/>
          <path id="Path_5481" data-name="Path 5481" d="M136.867,307.66a8.161,8.161,0,0,1-1.263-16.223,7.615,7.615,0,0,0,1.08-.881,8.161,8.161,0,1,1,11.758,11.321c-1.222,1.281-5.639,5.482-11.137,5.772-.146.008-.292.012-.437.012" transform="translate(-86.662 -193.938)" fill="#040000"/>
          <path id="Path_5482" data-name="Path 5482" d="M229.79,307.66a8.161,8.161,0,0,0,1.263-16.223,7.613,7.613,0,0,1-1.08-.881,8.161,8.161,0,1,0-11.758,11.321c1.222,1.281,5.639,5.482,11.137,5.772.146.008.292.012.437.012" transform="translate(-145.395 -193.938)" fill="#040000"/>
          <path id="Path_5483" data-name="Path 5483" d="M130.088,204.868h8.269a32.106,32.106,0,0,1,6.423.647,31.7,31.7,0,0,1,11.4,4.8,31.962,31.962,0,0,1,11.546,14.022,31.712,31.712,0,0,1,1.857,5.984,32.1,32.1,0,0,1,.648,6.423v13.593a22.6,22.6,0,0,1-3.877,12.692,22.764,22.764,0,0,1-9.987,8.224,22.559,22.559,0,0,1-8.836,1.784H110.3a19.842,19.842,0,0,1-11.144-3.4,19.986,19.986,0,0,1-7.22-8.768,19.806,19.806,0,0,1-1.567-7.758v-.738a16.317,16.317,0,0,1,7.843-13.948V236.74a32.1,32.1,0,0,1,.648-6.423,31.7,31.7,0,0,1,4.8-11.4,31.962,31.962,0,0,1,14.022-11.547,31.717,31.717,0,0,1,5.984-1.857A32.106,32.106,0,0,1,130.088,204.868Zm17.441,66.756a21.187,21.187,0,0,0,11.9-3.636,21.354,21.354,0,0,0,7.714-9.368,21.157,21.157,0,0,0,1.673-8.287V236.74a30.687,30.687,0,0,0-.619-6.14,30.291,30.291,0,0,0-4.583-10.891,30.553,30.553,0,0,0-13.4-11.037A30.3,30.3,0,0,0,144.5,206.9a30.691,30.691,0,0,0-6.14-.619h-8.269a30.691,30.691,0,0,0-6.14.619,30.292,30.292,0,0,0-10.891,4.583,30.553,30.553,0,0,0-11.037,13.4,30.3,30.3,0,0,0-1.775,5.717,30.691,30.691,0,0,0-.619,6.14v2.078a.7.7,0,0,1-.353.611,15.018,15.018,0,0,0-5.424,5.36,14.833,14.833,0,0,0-2.066,7.576v.738a18.431,18.431,0,0,0,3.163,10.355,18.578,18.578,0,0,0,8.149,6.711,18.4,18.4,0,0,0,7.209,1.455Z" transform="translate(-60.848 -137.937)" fill="#221714"/>
          <path id="Path_5484" data-name="Path 5484" d="M167.724,307.6a3.674,3.674,0,1,1-3.674-3.7,3.688,3.688,0,0,1,3.674,3.7" transform="translate(-107.98 -204.612)" fill="#fff"/>
          <path id="Path_5485" data-name="Path 5485" d="M237.455,307.6a3.674,3.674,0,1,1-3.674-3.7,3.688,3.688,0,0,1,3.674,3.7" transform="translate(-154.93 -204.612)" fill="#fff"/>
          <path id="Path_5486" data-name="Path 5486" d="M202.185,332.409a2.246,2.246,0,1,1-2.246-2.246,2.246,2.246,0,0,1,2.246,2.246" transform="translate(-133.106 -222.297)" fill="#221714"/>
          <rect id="Rectangle_13700" data-name="Rectangle 13700" width="10.444" height="6.321" transform="translate(73.376 158.831)" fill="#ec7463"/>
          <path id="Rectangle_13701" data-name="Rectangle 13701" d="M-1.452-2.157H8.992a.7.7,0,0,1,.7.7V4.869a.7.7,0,0,1-.7.7H-1.452a.7.7,0,0,1-.7-.7V-1.452A.7.7,0,0,1-1.452-2.157ZM8.287-.748H-.748V4.164H8.287Z" transform="translate(74.828 160.284)" fill="#040000"/>
          <path id="Path_5487" data-name="Path 5487" d="M219.2,546.548H201.191a5.738,5.738,0,0,1-5.738-5.739V530.456a5.738,5.738,0,0,1,5.738-5.739H219.2a5.738,5.738,0,0,1,5.739,5.739V540.81a5.739,5.739,0,0,1-5.739,5.739" transform="translate(-131.597 -353.289)" fill="#4db7e7"/>
          <path id="Rectangle_13702" data-name="Rectangle 13702" d="M4.286-2.157H22.295a6.438,6.438,0,0,1,6.443,6.443V14.641a6.439,6.439,0,0,1-6.443,6.443H4.286a6.439,6.439,0,0,1-6.443-6.443V4.286A6.438,6.438,0,0,1,4.286-2.157ZM22.295,19.674a5.034,5.034,0,0,0,5.034-5.034V4.286A5.034,5.034,0,0,0,22.295-.748H4.286A5.034,5.034,0,0,0-.748,4.286V14.641a5.034,5.034,0,0,0,5.034,5.034Z" transform="translate(65.308 172.88)" fill="#040000"/>
          <path id="Path_5488" data-name="Path 5488" d="M230.707,511.427H212.1l4.083-6.321h10.444Z" transform="translate(-142.804 -340.085)" fill="#fff000"/>
          <path id="Path_5489" data-name="Path 5489" d="M229.254,510.679h-18.61a.7.7,0,0,1-.592-1.087l4.083-6.321a.7.7,0,0,1,.592-.322h10.444a.7.7,0,0,1,.592.322l4.083,6.321a.7.7,0,0,1-.592,1.087Zm-17.316-1.409H227.96l-3.173-4.912h-9.677Z" transform="translate(-141.351 -338.632)" fill="#040000"/>
          <path id="Path_5490" data-name="Path 5490" d="M233.6,543.139a2.612,2.612,0,0,0-3.324-1.611c-.078.027-.153.058-.226.091.008-.08.012-.161.012-.243a2.612,2.612,0,1,0-5.122.715,2.611,2.611,0,1,0-1.887,4.815c.08.019.159.033.24.045-.05.063-.1.129-.141.2a2.612,2.612,0,1,0,4.4,2.814c.044-.069.084-.14.121-.212.044.068.09.134.141.2a2.612,2.612,0,1,0,4.1-3.235c-.051-.064-.1-.125-.16-.184.078-.019.156-.041.234-.068a2.612,2.612,0,0,0,1.611-3.324m-6.057,4a1.283,1.283,0,0,1-1.342-2.165,2.6,2.6,0,0,0-.028-1.321,2.6,2.6,0,0,0,2.361.1,1.283,1.283,0,0,1-.287,2.531,2.6,2.6,0,0,0-.7.857" transform="translate(-148.833 -362.747)" fill="#f4b6d1"/>
          <path id="Path_5491" data-name="Path 5491" d="M226,536.607a3.322,3.322,0,0,1,3.249,2.647,5.5,5.5,0,1,1-2.972,10.164,5.835,5.835,0,1,1-3.581-9.786A3.321,3.321,0,0,1,226,536.607Zm2.6,4.264a.7.7,0,0,1-.7-.771c.006-.067.009-.125.009-.178a1.907,1.907,0,1,0-3.74.522.7.7,0,0,1-1.023.807,1.9,1.9,0,0,0-2.107.157,1.907,1.907,0,0,0,.729,3.359c.053.012.11.023.175.032a.7.7,0,0,1,.455,1.132c-.04.051-.074.1-.1.142a1.907,1.907,0,1,0,3.213,2.056c.029-.044.057-.095.088-.155a.7.7,0,0,1,1.218-.06c.036.055.069.1.1.146a1.907,1.907,0,0,0,2.994-2.363c-.033-.042-.072-.086-.118-.135a.7.7,0,0,1,.342-1.169c.066-.016.123-.033.173-.05a1.907,1.907,0,1,0-1.252-3.6c-.051.018-.1.039-.166.067A.7.7,0,0,1,228.6,540.871Zm-3.878.624a.7.7,0,0,1,.346.091,1.892,1.892,0,0,0,1.723.071.7.7,0,0,1,.994.708,1.885,1.885,0,0,0,.518,1.492.7.7,0,0,1-.342,1.172,1.885,1.885,0,0,0-1.241.979.7.7,0,0,1-1.219.06,1.886,1.886,0,0,0-1.331-.851.7.7,0,0,1-.457-1.132,1.895,1.895,0,0,0,.332-1.693.7.7,0,0,1,.678-.9ZM226,543.24a3.294,3.294,0,0,1-.486-.036.582.582,0,0,0,.174,1.105,3.306,3.306,0,0,1,.349.257.553.553,0,0,0,.511-.937,3.291,3.291,0,0,1-.115-.418A3.32,3.32,0,0,1,226,543.24Z" transform="translate(-147.38 -361.295)" fill="#221714"/>
          <path id="Ellipse_60" data-name="Ellipse 60" d="M2.837,0A2.837,2.837,0,1,1,0,2.837,2.84,2.84,0,0,1,2.837,0Zm0,4.265A1.428,1.428,0,1,0,1.409,2.837,1.429,1.429,0,0,0,2.837,4.265Z" transform="matrix(0.23, -0.973, 0.973, 0.23, 75.208, 184.635)" fill="#221714"/>
          <path id="Path_5492" data-name="Path 5492" d="M238.388,554.291a2.132,2.132,0,1,1-2.132-2.132,2.132,2.132,0,0,1,2.132,2.132" transform="translate(-157.634 -371.766)" fill="#fff"/>
          <path id="Ellipse_61" data-name="Ellipse 61" d="M2.837,0A2.837,2.837,0,1,1,0,2.837,2.84,2.84,0,0,1,2.837,0Zm0,4.265A1.428,1.428,0,1,0,1.409,2.837,1.429,1.429,0,0,0,2.837,4.265Z" transform="matrix(0.23, -0.973, 0.973, 0.23, 75.208, 184.635)" fill="#221714"/>
          <path id="Path_5493" data-name="Path 5493" d="M168.773,313.051a.7.7,0,0,1-.367-1.307l1.682-1.025-1.65-.891a.7.7,0,0,1,.67-1.24l2.73,1.474a.7.7,0,0,1,.032,1.222l-2.73,1.664A.7.7,0,0,1,168.773,313.051Z" transform="translate(-113.159 -207.714)" fill="#040000"/>
          <path id="Path_5494" data-name="Path 5494" d="M236.719,313.051a.7.7,0,0,1-.366-.1l-2.73-1.664a.7.7,0,0,1,.032-1.222l2.73-1.474a.7.7,0,1,1,.67,1.24l-1.65.891,1.682,1.025a.7.7,0,0,1-.367,1.307Z" transform="translate(-157.07 -207.714)" fill="#040000"/>
          <path id="Path_5495" data-name="Path 5495" d="M190.911,354.606a7.361,7.361,0,0,0-.146,1.441c0,3.372,2.242,6.106,5.008,6.106s5.008-2.734,5.008-6.106a7.391,7.391,0,0,0-.146-1.441Z" transform="translate(-128.441 -238.754)" fill="#ec7463"/>
          <path id="Path_5496" data-name="Path 5496" d="M189.459,352.449h9.724a.7.7,0,0,1,.691.568,8.134,8.134,0,0,1,.16,1.578,7.5,7.5,0,0,1-1.627,4.764,5.765,5.765,0,0,1-1.814,1.488,4.9,4.9,0,0,1-4.545,0,5.765,5.765,0,0,1-1.814-1.488,7.5,7.5,0,0,1-1.627-4.764,8.1,8.1,0,0,1,.16-1.578A.7.7,0,0,1,189.459,352.449Zm9.122,1.409h-8.521a6.424,6.424,0,0,0-.043.736,6.531,6.531,0,0,0,.355,2.146,5.6,5.6,0,0,0,.952,1.725,3.881,3.881,0,0,0,3,1.531c2.373,0,4.3-2.423,4.3-5.4A6.419,6.419,0,0,0,198.581,353.858Z" transform="translate(-126.989 -237.302)" fill="#221714"/>
          <path id="Path_5497" data-name="Path 5497" d="M35.035,151.329a2.032,2.032,0,0,1-1.977-2.5L67.284,3.721a2.029,2.029,0,1,1,3.949.932L37.008,149.765a2.03,2.03,0,0,1-1.973,1.564" transform="translate(-22.221 -1.452)" fill="#fff"/>
          <path id="Path_5498" data-name="Path 5498" d="M33.582,150.581a2.735,2.735,0,0,1-2.663-3.362L65.145,2.107A2.731,2.731,0,0,1,68.433.074a2.734,2.734,0,0,1,2.033,3.289L36.241,148.475a2.735,2.735,0,0,1-2.659,2.107ZM67.8,1.41A1.317,1.317,0,0,0,66.517,2.43L32.291,147.543a1.328,1.328,0,0,0,1.291,1.629,1.33,1.33,0,0,0,.815-.282,1.31,1.31,0,0,0,.473-.739L69.094,3.039a1.324,1.324,0,0,0-.985-1.593A1.343,1.343,0,0,0,67.8,1.41Z" transform="translate(-20.768 0)" fill="#221714"/>
        </g>
      </g>
    </g>
  </g>
</svg>
