<svg xmlns="http://www.w3.org/2000/svg" xmlns:xlink="http://www.w3.org/1999/xlink" width="160" height="160" viewBox="0 0 160 160">
  <defs>
    <clipPath id="clip-Flower-white-red">
      <rect width="160" height="160"/>
    </clipPath>
  </defs>
  <g id="Flower-white-red" clip-path="url(#clip-Flower-white-red)">
    <path id="Path_7112" data-name="Path 7112" d="M145.928,53.666a29.677,29.677,0,0,0-37.969-18.829c-.887.315-1.742.679-2.579,1.067.084-.937.139-1.883.139-2.843,0-16.855-13.358-30.518-29.837-30.518S45.844,16.207,45.844,33.062A31.155,31.155,0,0,0,47,41.407a29.374,29.374,0,0,0-7.664-3.1C23.31,34.387,7.208,44.493,3.371,60.885S9.414,93.744,25.441,97.669c.912.223,1.825.389,2.736.522-.565.744-1.111,1.51-1.617,2.318a30.935,30.935,0,0,0,9.062,42.151,29.445,29.445,0,0,0,41.212-9.268c.506-.809.957-1.637,1.38-2.473.5.789,1.03,1.568,1.612,2.321a29.391,29.391,0,0,0,41.905,5.059,30.987,30.987,0,0,0,4.948-42.86c-.582-.754-1.2-1.461-1.832-2.144.894-.225,1.785-.481,2.672-.8,15.569-5.524,23.811-22.911,18.409-38.834M76.737,100.395a30.029,30.029,0,0,0-8.963-9.154,29.274,29.274,0,0,0-11.885-4.483A30.633,30.633,0,0,0,61.405,75.1a31.008,31.008,0,0,0-.326-15.437,29.091,29.091,0,0,0,26.976,1.147A31,31,0,0,0,89.55,73.671a30.479,30.479,0,0,0,6.617,11.047A29.424,29.424,0,0,0,84.773,90.38a30.222,30.222,0,0,0-8.036,10.015" transform="translate(2.936 4.991)" fill="#fff"/>
    <path id="Path_7113" data-name="Path 7113" d="M145.928,53.666a29.677,29.677,0,0,0-37.969-18.829c-.887.315-1.742.679-2.579,1.067.084-.937.139-1.883.139-2.843,0-16.855-13.358-30.518-29.837-30.518S45.844,16.207,45.844,33.062A31.155,31.155,0,0,0,47,41.407a29.374,29.374,0,0,0-7.664-3.1C23.31,34.387,7.208,44.493,3.371,60.885S9.414,93.744,25.441,97.669c.912.223,1.825.389,2.736.522-.565.744-1.111,1.51-1.617,2.318a30.935,30.935,0,0,0,9.062,42.151,29.445,29.445,0,0,0,41.212-9.268c.506-.809.957-1.637,1.38-2.473.5.789,1.03,1.568,1.612,2.321a29.391,29.391,0,0,0,41.905,5.059,30.987,30.987,0,0,0,4.948-42.86c-.582-.754-1.2-1.461-1.832-2.144.894-.225,1.785-.481,2.672-.8C143.088,86.976,151.33,69.589,145.928,53.666ZM76.737,100.395a30.029,30.029,0,0,0-8.963-9.154,29.274,29.274,0,0,0-11.885-4.483A30.633,30.633,0,0,0,61.405,75.1a31.008,31.008,0,0,0-.326-15.437,29.091,29.091,0,0,0,26.976,1.147A31,31,0,0,0,89.55,73.671a30.479,30.479,0,0,0,6.617,11.047A29.424,29.424,0,0,0,84.773,90.38,30.222,30.222,0,0,0,76.737,100.395Z" transform="translate(2.936 4.991)" fill="none" stroke="#221714" stroke-linecap="round" stroke-linejoin="round" stroke-width="6"/>
    <ellipse id="Ellipse_86" data-name="Ellipse 86" cx="24.36" cy="24.915" rx="24.36" ry="24.915" transform="translate(54.257 58.669)" fill="none" stroke="#221714" stroke-linecap="round" stroke-linejoin="round" stroke-width="4.338"/>
    <path id="Path_7114" data-name="Path 7114" d="M101.319,78.762c0,13.76-10.907,24.915-24.36,24.915S52.6,92.523,52.6,78.762,63.5,53.847,76.958,53.847,101.319,65,101.319,78.762" transform="translate(1.658 4.822)" fill="#ec7463"/>
    <ellipse id="Ellipse_87" data-name="Ellipse 87" cx="24.36" cy="24.915" rx="24.36" ry="24.915" transform="translate(54.257 58.669)" fill="none" stroke="#221714" stroke-linecap="round" stroke-linejoin="round" stroke-width="6"/>
    <rect id="Rectangle_13887" data-name="Rectangle 13887" width="150" height="150" transform="translate(3 5)" fill="none"/>
  </g>
</svg>
