<svg xmlns="http://www.w3.org/2000/svg" xmlns:xlink="http://www.w3.org/1999/xlink" width="220" height="280" viewBox="0 0 220 280">
  <defs>
    <clipPath id="clip-path">
      <rect id="Rectangle_13707" data-name="Rectangle 13707" width="94.246" height="123.725" fill="none"/>
    </clipPath>
    <clipPath id="clip-Img-charactor-ghost">
      <rect width="220" height="280"/>
    </clipPath>
  </defs>
  <g id="Img-charactor-ghost" clip-path="url(#clip-Img-charactor-ghost)">
    <g id="Group_43000" data-name="Group 43000" transform="translate(15703 -8150)">
      <rect id="Rectangle_13827" data-name="Rectangle 13827" width="220" height="280" transform="translate(-15703 8150)" fill="none"/>
      <g id="Group_43015" data-name="Group 43015" transform="translate(0 -14)">
        <ellipse id="Ellipse_81" data-name="Ellipse 81" cx="30" cy="9" rx="30" ry="9" transform="translate(-15623 8402)" fill="#e4eef2"/>
        <g id="Group_43014" data-name="Group 43014" transform="translate(-15640.123 8287.521)">
          <g id="Group_42842" data-name="Group 42842" clip-path="url(#clip-path)">
            <path id="Path_5586" data-name="Path 5586" d="M118.119,200.06h3.657A5.86,5.86,0,0,0,124,188.78l.06-47.994a5.859,5.859,0,0,0-5.831-5.887h-.029a5.859,5.859,0,0,0-5.859,5.831l-.087,53.443a5.86,5.86,0,0,0,5.859,5.887" transform="translate(-64.291 -77.257)" fill="#4db7e7"/>
            <path id="Path_5587" data-name="Path 5587" d="M124,256.171a5.86,5.86,0,0,1-2.229,11.28h-3.657a5.86,5.86,0,0,1-5.859-5.888l.044-8.992h11.719Z" transform="translate(-64.291 -144.648)" fill="#ec7463"/>
            <path id="Path_5588" data-name="Path 5588" d="M111.068,250.414h11.719a.922.922,0,0,1,.922.926l-.015,3.011a6.781,6.781,0,0,1-3.153,12.786h-3.657a6.781,6.781,0,0,1-6.781-6.814l.044-8.992A.922.922,0,0,1,111.068,250.414Zm10.792,1.843h-9.875l-.039,8.075a4.938,4.938,0,0,0,4.937,4.962h3.657a4.939,4.939,0,0,0,1.878-9.506.922.922,0,0,1-.571-.857Z" transform="translate(-63.056 -143.412)" fill="#221714"/>
            <path id="Path_5589" data-name="Path 5589" d="M75.92,200.06H72.263a5.86,5.86,0,0,1-2.229-11.28l-.06-47.994a5.859,5.859,0,0,1,5.831-5.887h.029a5.859,5.859,0,0,1,5.859,5.831l.087,53.443a5.86,5.86,0,0,1-5.859,5.887" transform="translate(-38.03 -77.257)" fill="#4db7e7"/>
            <path id="Path_5590" data-name="Path 5590" d="M120.541,199.746h-3.657a6.781,6.781,0,0,1-6.781-6.812l.087-53.442v0a6.78,6.78,0,0,1,6.78-6.748H117a6.776,6.776,0,0,1,6.748,6.812l-.06,47.405a6.781,6.781,0,0,1-3.151,12.787ZM112.033,139.5l-.087,53.441v0a4.938,4.938,0,0,0,4.937,4.961h3.657a4.939,4.939,0,0,0,1.878-9.506.922.922,0,0,1-.571-.853l.06-47.994s0,0,0,0A4.937,4.937,0,0,0,117,134.585h-.026a4.937,4.937,0,0,0-4.937,4.912Z" transform="translate(-63.056 -76.021)" fill="#221714"/>
            <path id="Path_5591" data-name="Path 5591" d="M74.685,199.746H71.028a6.782,6.782,0,0,1-3.151-12.787l-.06-47.405a6.776,6.776,0,0,1,6.748-6.812H74.6a6.78,6.78,0,0,1,6.78,6.748v0l.087,53.443a6.781,6.781,0,0,1-6.781,6.811Zm-.112-65.161a4.937,4.937,0,0,0-4.912,4.961v0l.06,47.994a.922.922,0,0,1-.571.853,4.939,4.939,0,0,0,1.878,9.506h3.657a4.938,4.938,0,0,0,4.937-4.961v0L79.535,139.5a4.937,4.937,0,0,0-4.937-4.912Z" transform="translate(-36.794 -76.021)" fill="#221714"/>
            <path id="Path_5592" data-name="Path 5592" d="M70.084,256.171a5.86,5.86,0,0,0,2.229,11.28H75.97a5.86,5.86,0,0,0,5.859-5.888l-.044-8.992H70.067Z" transform="translate(-38.058 -144.648)" fill="#ec7463"/>
            <path id="Path_5593" data-name="Path 5593" d="M68.831,250.414H80.55a.922.922,0,0,1,.922.917l.044,8.992a6.781,6.781,0,0,1-6.781,6.814H71.078a6.782,6.782,0,0,1-3.153-12.786l-.015-3.011a.922.922,0,0,1,.922-.926Zm10.8,1.843H69.758l.013,2.674a.922.922,0,0,1-.571.857,4.938,4.938,0,0,0,1.878,9.506h3.657a4.938,4.938,0,0,0,4.937-4.962Z" transform="translate(-36.823 -143.412)" fill="#221714"/>
            <path id="Path_5594" data-name="Path 5594" d="M63.4,90.7c8.246,9.143,19.273,21.823,26.9,31.483,1.744,2.208,3.522,4.534,4.1,7.287s-.425,6.054-2.99,7.212-5.507-.152-8.318-.266c-8.392-.34-15.064,9.922-23.26,8.087-4.263-.954-7.717-5.126-12.058-4.638-3.419.384-5.762,3.508-8.661,5.359a12.8,12.8,0,0,1-13.006.288c-3.288-1.9-5.639-5.24-9.116-6.764-2.564-1.123-5.5-1.141-8.09-2.192a11.1,11.1,0,0,1-6.725-10.707c.315-4.883,4.54-7.362,8.173-10.64,9.028-8.145,18.874-16.322,26.876-27.569" transform="translate(-1.235 -50.19)" fill="#fff"/>
            <path id="Path_5595" data-name="Path 5595" d="M61.51,90.113q7.429,8.24,14.645,16.671,3.709,4.335,7.344,8.733c2.248,2.728,4.613,5.434,6.618,8.349,1.8,2.613,3.253,6.046,1.481,9.062-2.038,3.471-6.425,1.516-9.556,1.336-6.028-.346-10.845,4.207-15.9,6.747-2.346,1.179-4.982,1.975-7.6,1.292-3.19-.833-5.683-3.251-8.82-4.239a7.719,7.719,0,0,0-4.914.022,14.471,14.471,0,0,0-4.191,2.611,24.851,24.851,0,0,1-4.081,3,11.612,11.612,0,0,1-4.869,1.279,11.95,11.95,0,0,1-5.126-.891,16.209,16.209,0,0,1-4.24-2.868,43.665,43.665,0,0,0-4.2-3.451,14.549,14.549,0,0,0-5.131-2.058,23.171,23.171,0,0,1-5.55-1.5,9.929,9.929,0,0,1-3.52-2.948,9.4,9.4,0,0,1-1.519-8.9c1.167-2.889,4-4.829,6.289-6.775,2.778-2.363,5.464-4.851,8.173-7.294A150.2,150.2,0,0,0,33.107,91.7q1.914-2.356,3.679-4.828a.929.929,0,0,0-.331-1.261.941.941,0,0,0-1.261.33,119.637,119.637,0,0,1-16.272,17.954c-2.8,2.6-5.664,5.134-8.514,7.682-1.348,1.2-2.689,2.412-4.076,3.572a31.379,31.379,0,0,0-3.648,3.386A10.752,10.752,0,0,0,.33,122.7a10.533,10.533,0,0,0-.021,5.155,12.121,12.121,0,0,0,6.048,7.875,21.464,21.464,0,0,0,5.671,1.663,13.978,13.978,0,0,1,5.286,2.062c3.01,2.069,5.29,5.009,8.751,6.416a13.841,13.841,0,0,0,10.8-.283,19.877,19.877,0,0,0,4.381-3.021,14.191,14.191,0,0,1,4.056-2.7c3.255-1.169,6.183,1,8.893,2.526a14.466,14.466,0,0,0,4.685,1.864,11.005,11.005,0,0,0,4.305-.164c5.813-1.36,10.05-6.277,15.832-7.7a11.327,11.327,0,0,1,4.631-.093c1.946.324,3.965.821,5.927.324,3.4-.863,5.013-4.562,4.612-7.828-.473-3.837-3.185-6.907-5.506-9.812s-4.681-5.765-7.068-8.608q-7.544-8.985-15.363-17.734-1.712-1.922-3.435-3.835c-.8-.883-2.1.424-1.3,1.3" transform="translate(0 -48.955)" fill="#221714"/>
            <path id="Path_5596" data-name="Path 5596" d="M52.4,26.83A24.673,24.673,0,1,0,77.071,2.157,24.673,24.673,0,0,0,52.4,26.83" transform="translate(-30.008 -1.235)" fill="#fff"/>
            <path id="Ellipse_64" data-name="Ellipse 64" d="M23.437-2.157A25.479,25.479,0,0,1,37.748,2.215a25.666,25.666,0,0,1,9.272,11.26,25.562,25.562,0,0,1-2.36,24.273A25.666,25.666,0,0,1,33.4,47.02,25.562,25.562,0,0,1,9.127,44.66,25.666,25.666,0,0,1-.145,33.4,25.562,25.562,0,0,1,2.215,9.127,25.666,25.666,0,0,1,13.475-.145,25.435,25.435,0,0,1,23.437-2.157Zm0,49.345a23.636,23.636,0,0,0,13.279-4.056,23.823,23.823,0,0,0,8.606-10.451,23.719,23.719,0,0,0-2.19-22.523A23.823,23.823,0,0,0,32.682,1.552a23.719,23.719,0,0,0-22.523,2.19A23.823,23.823,0,0,0,1.552,14.193a23.719,23.719,0,0,0,2.19,22.523,23.823,23.823,0,0,0,10.451,8.606A23.6,23.6,0,0,0,23.437,47.188Z" transform="translate(23.625 2.157)" fill="#221714"/>
            <path id="Path_5597" data-name="Path 5597" d="M126.651,46.076a2.616,2.616,0,1,0,1.971-3.147,2.626,2.626,0,0,0-1.971,3.147" transform="translate(-72.495 -24.548)" fill="#221714"/>
            <path id="Path_5598" data-name="Path 5598" d="M89.628,54.434A2.616,2.616,0,1,0,91.6,51.287a2.626,2.626,0,0,0-1.971,3.147" transform="translate(-51.292 -29.335)" fill="#221714"/>
            <path id="Path_5599" data-name="Path 5599" d="M114.129,62.768a1.6,1.6,0,1,0,1.208-1.912,1.6,1.6,0,0,0-1.208,1.912" transform="translate(-65.339 -34.83)" fill="#221714"/>
            <path id="Path_5600" data-name="Path 5600" d="M114.751,68.486a11.045,11.045,0,0,1-5.556,4.07,10.2,10.2,0,0,1-7.418-.881c-1.059-.526-1.994,1.064-.93,1.592a12.139,12.139,0,0,0,8.839,1.067,13.073,13.073,0,0,0,6.658-4.917.929.929,0,0,0-.331-1.261.941.941,0,0,0-1.261.331" transform="translate(-57.486 -38.961)" fill="#221714"/>
            <path id="Path_5601" data-name="Path 5601" d="M85.726,133.767c-2.613,2.9-6.107,6.914-8.525,9.975a5.826,5.826,0,0,0-1.3,2.309,2.038,2.038,0,0,0,.947,2.285c.812.367,1.745-.048,2.636-.084,2.659-.108,4.773,3.144,7.37,2.563,1.351-.3,2.445-1.624,3.82-1.47,1.083.122,1.825,1.112,2.745,1.7a4.056,4.056,0,0,0,4.121.091c1.042-.6,1.787-1.66,2.889-2.143.812-.356,1.741-.362,2.563-.694a3.517,3.517,0,0,0,2.131-3.393c-.1-1.547-1.438-2.333-2.589-3.371-2.861-2.581-5.98-5.172-8.516-8.735" transform="translate(-43.44 -76.054)" fill="#221714"/>
            <path id="Path_5602" data-name="Path 5602" d="M83.853,131.884q-2.536,2.814-4.994,5.7-1.215,1.427-2.4,2.877a19.673,19.673,0,0,0-2.193,2.909,3.639,3.639,0,0,0-.193,3.443,2.82,2.82,0,0,0,3.182,1.28,5.382,5.382,0,0,1,1.433-.139,4.01,4.01,0,0,1,1.3.438c.9.453,1.71,1.056,2.607,1.51a4.955,4.955,0,0,0,3.023.62,12.325,12.325,0,0,0,2.921-1.329c1.043-.447,1.73.289,2.5.9a5.2,5.2,0,0,0,3.376,1.249,5.314,5.314,0,0,0,3.357-1.36c.424-.351.812-.752,1.266-1.065a4.562,4.562,0,0,1,1.788-.642,4.863,4.863,0,0,0,3.165-1.855,4.275,4.275,0,0,0,.763-3.3,5.341,5.341,0,0,0-2.123-2.9c-1.028-.861-2.016-1.773-3.011-2.671a41.3,41.3,0,0,1-6.026-6.448.948.948,0,0,0-1.261-.33A.929.929,0,0,0,92,132.031c2.752,3.839,6.357,6.83,9.859,9.948a2.486,2.486,0,0,1,1.111,2.207,2.632,2.632,0,0,1-1.525,2.022,10.306,10.306,0,0,1-1.671.406,4.978,4.978,0,0,0-1.736.755,14.961,14.961,0,0,1-2.48,1.89,3.165,3.165,0,0,1-2.895-.244,11.979,11.979,0,0,0-2.52-1.69A3.858,3.858,0,0,0,87,147.92a3.74,3.74,0,0,1-2.281.8,6.268,6.268,0,0,1-2.344-1.072,13.267,13.267,0,0,0-2.431-1.271A4.819,4.819,0,0,0,78.6,146.1a10.735,10.735,0,0,0-1.838.208,1.078,1.078,0,0,1-.958-.2,1.332,1.332,0,0,1-.233-1.051c.176-1.143,1.276-2.18,1.976-3.042q1.23-1.515,2.5-3,2.513-2.956,5.113-5.836c.792-.879-.507-2.187-1.3-1.3" transform="translate(-42.219 -74.822)" fill="#221714"/>
            <path id="Path_5603" data-name="Path 5603" d="M107.5,113.531a7.817,7.817,0,1,1-7.817-7.817,7.817,7.817,0,0,1,7.817,7.817" transform="translate(-52.609 -60.543)" fill="#221714"/>
            <path id="Ellipse_65" data-name="Ellipse 65" d="M8.739,0a8.741,8.741,0,0,1,3.4,16.791,8.741,8.741,0,0,1-6.8-16.1A8.685,8.685,0,0,1,8.739,0Zm0,15.635A6.9,6.9,0,0,0,13.615,3.863a6.9,6.9,0,1,0-9.752,9.752A6.851,6.851,0,0,0,8.739,15.635Z" transform="translate(36.836 59.918) rotate(-79.099)" fill="#221714"/>
            <path id="Path_5604" data-name="Path 5604" d="M56.342,117.522c2.929,5.749,8.337,9.761,12.469,14.717.537.644,1.084,1.478.785,2.261a2.221,2.221,0,0,1-1.7,1.133,16.861,16.861,0,0,1-7.042-.265,65.343,65.343,0,0,1-14.382-4.649" transform="translate(-26.615 -67.305)" fill="#fff"/>
            <path id="Path_5605" data-name="Path 5605" d="M54.32,116.742c2.534,4.923,6.778,8.584,10.518,12.555q.66.7,1.3,1.421a6.271,6.271,0,0,1,1.33,1.765c.407,1.118-1.954,1.2-2.594,1.233-3.1.179-6.3-.681-9.268-1.484a64.439,64.439,0,0,1-9.894-3.556.949.949,0,0,0-1.261.331.929.929,0,0,0,.33,1.261,67.568,67.568,0,0,0,9.566,3.529q2.445.693,4.94,1.194a23.36,23.36,0,0,0,5.184.585c1.377-.036,3.223-.16,4.253-1.211,1.322-1.349.338-3.049-.655-4.224-1.924-2.278-4.085-4.338-6.153-6.482a33.851,33.851,0,0,1-6-7.848c-.543-1.055-2.134-.124-1.592.93" transform="translate(-25.389 -66.06)" fill="#221714"/>
            <path id="Path_5606" data-name="Path 5606" d="M131.159,117.522c-2.929,5.749-8.337,9.761-12.469,14.717-.537.644-1.084,1.478-.785,2.261a2.221,2.221,0,0,0,1.7,1.133,16.861,16.861,0,0,0,7.042-.265,65.343,65.343,0,0,0,14.382-4.649" transform="translate(-67.476 -67.305)" fill="#fff"/>
            <path id="Path_5607" data-name="Path 5607" d="M129.126,115.812c-2.735,5.314-7.507,9.076-11.413,13.473-.959,1.08-2.382,2.448-1.986,4.047.387,1.559,2.144,1.959,3.512,2.139,3.388.446,6.944-.477,10.2-1.331a67.308,67.308,0,0,0,10.816-3.87.929.929,0,0,0,.331-1.261.944.944,0,0,0-1.261-.331,64.332,64.332,0,0,1-8.742,3.233,38.1,38.1,0,0,1-9.208,1.82,11.365,11.365,0,0,1-2.169-.113c-.464-.076-1.3-.158-1.618-.58s.265-1.081.515-1.391c.437-.544.91-1.063,1.38-1.578,1.852-2.031,3.844-3.926,5.726-5.928a33.171,33.171,0,0,0,5.507-7.4c.542-1.053-1.048-1.987-1.592-.93" transform="translate(-66.238 -66.059)" fill="#221714"/>
            <path id="Path_5608" data-name="Path 5608" d="M114.793,115.281a.8.8,0,1,0,.8-.8.8.8,0,0,0-.8.8" transform="translate(-65.742 -65.562)" fill="#fff"/>
            <path id="Path_5609" data-name="Path 5609" d="M103.249,115.281a.8.8,0,1,0,.8-.8.8.8,0,0,0-.8.8" transform="translate(-59.131 -65.562)" fill="#fff"/>
            <path id="Path_5610" data-name="Path 5610" d="M110.063,120.094a.486.486,0,1,0,.486-.486.486.486,0,0,0-.486.486" transform="translate(-63.033 -68.5)" fill="#fff"/>
          </g>
        </g>
      </g>
    </g>
  </g>
</svg>
